<svg xmlns="http://www.w3.org/2000/svg" xmlns:xlink="http://www.w3.org/1999/xlink" width="348" height="113" viewBox="0 0 348 113">
    <defs>
        <path id="a" d="M0 7.03v.112c.021 2.146 1.282 4.286 4.418 5.552 8.54 2.24 12.62-8.674 4.527-11.915a6.036 6.036 0 0 0-2.26-.446C3.073.333.034 3.673 0 7.031"/>
        <linearGradient id="b" x1="3.716%" x2="96.942%" y1="35.723%" y2="65.33%">
            <stop offset="0%" stop-color="#7A5749"/>
            <stop offset="100%" stop-color="#231F20"/>
        </linearGradient>
        <path id="d" d="M5.293.557C2.04.579-.465 4.42.357 5.977c.772 1.462 1.61 2.863 3.5 3.253 1.28.667 2.59.463 3.807-.355 3.073-2.065 2.59-5.877.261-7.462C7.047.815 6.175.563 5.35.557h-.056zm.92 1.857a3.47 3.47 0 0 0 0 0zm1.642 1.229c.031.038.066.075.097.114-.031-.039-.066-.076-.097-.114zm.131.162c.733.959 1.007 2.124.223 2.8.781-.674.51-1.84-.223-2.8z"/>
        <linearGradient id="e" x1="4.879%" x2="97.422%" y1="33.969%" y2="63.797%">
            <stop offset="0%" stop-color="#7A5749"/>
            <stop offset="100%" stop-color="#231F20"/>
        </linearGradient>
        <path id="g" d="M11.318 6.605c.471-.51 7.39-4.777 7.907-4.22-3.294 1.391-9.6 5.565-12.283 10.11-7.202 9.74-12.613 31.212 6.918 31.212 5.13 0 11.107-5.703 11.107-9.97 0-2.226-1.318-3.061-2.494-3.154-1.883 4.128-5.836 9.09-11.107 8.21-7.578-1.253-2.495-21.057 6.683-28.06-.283-.881-3.906 2.69-3.906 2.69 3.012-3.571 7.294-5.937 12.19-7.653 2.023 6.076-6.354 12.29-6.354 12.29 11.624 0 12.66-15.907 4.141-17.716a7.193 7.193 0 0 0-1.533-.156c-3.556 0-8.245 2.23-11.269 6.417M8.165 22.65C5.859 28.635 5.812 34.34 5.577 35.638c-.094-.557-1.694-4.22 2.588-12.987"/>
        <linearGradient id="h" x1="44.756%" x2="50.51%" y1="-58.142%" y2="55.332%">
            <stop offset="0%" stop-color="#7A5749"/>
            <stop offset="100%" stop-color="#231F20"/>
        </linearGradient>
        <path id="j" d="M57.797.223c-1.163.233-4.369 5.65-5.345 7.752-1.626 3.559-3.564 8.222-5.389 13.167-3.538 1.97-11.748 4.745-14.737 2.525 4.974-3.408 10.32-7.472 12.132-13.123-.325.14-2.045 3.503-3.3 4.81 1.116-2.008 3.346-6.07 4.415-6.538.373-.794.559-.84.466-2.335-.14-2.709-3.997-6.959-7.39-6.258-1.163.233-4.37 5.65-5.346 7.752-1.839 4.023-4.075 9.457-6.096 15.118-1.767 1.172-3.626 1.72-6.547 1.976.745-4.437-1.719-10.648-7.017-10.555a2.564 2.564 0 0 1-.744.84c-1.116-.746-2.882-2.287-3.904-1.448-.034-.097-.235.072-.44.24-.385.316-.786.631-.119-.8C2.673 17.643-.952 24.508 1.14 34.69c.047-.233.093-.467.233-.607.743 1.168 2.695 2.522 4.834 3.222 7.529 2.476 12.038-5.09 13.479-9.293 0 0 4.067-1.048 6.747-2.702-1.942 5.665-3.592 11.403-4.332 16.06-1.254 7.75.512 12.142 7.67 12.001 1.58-.84 7.949-17.466 7.576-21.296-.139-1.588-1.905-4.157-2.603-5.371 2.417.215 8.496-1.956 11.709-3.879-2.312 6.444-4.354 13.205-5.202 18.544-1.255 7.752.511 12.143 7.67 12.002 1.58-.84 7.947-17.466 7.576-21.296-.14-1.588-1.906-4.157-2.603-5.371 2.335.208 8.088-1.814 11.373-3.684-2.516 5.226-2.73 11.311 1.873 13.398 1.394 1.775 6.321 3.083 8.97 2.615 3.672-1.073 7.066-4.25 9.621-7.938.187 5.137 3.348 7.145 7.438 7.845 9.528 1.635 21.056-15.038 19.522-16.953-3.95 4.717-11.481 16.206-19.522 11.816-1.023-.747-2.51-2.522-1.116-7.053-.976 1.355-1.07 3.083-1.208 4.951-.884-6.537 4.833-13.964 6.32-15.085-1.532 1.962-2.23 3.737-3.438 5.792 1.115-1.262 4.694-7.052 9.25-6.633.278 0 .65.094 1.022.187.232 2.523-4.508 8.92-7.948 8.92-3.114 0-2.65-2.288-2.65-2.288s-2.231 4.764 2.928 4.764c6.368 0 11.156-8.08 11.156-9.434 0-1.028-1.72-2.662-2.975-2.941-1.348-.982-2.603-1.636-4.09-1.683-6.415-.232-12.318 6.258-14.13 13.31-2.51 3.644-5.811 7.707-10.877 9.014-1.906.514-4.695.095-5.299-.934-1.255-2.148-1.069-4.716-.79-7.285-.418.56-.744 2.522-.79 3.69-.047-4.204 2.138-7.567 2.324-7.66-.65.187-1.394 1.821-1.766 2.896.372-3.036 4.416-6.866 5.81-7.473-1.44.234-3.161 2.056-3.95 2.755 1.58-3.082 9.806-8.453 9.992-2.148 0 2.335-3.3 4.764-5.903 5.605-3.253 1.214-5.484.84-5.438 1.167 1.58 2.008 7.53 2.288 12.783-1.728 3.253-2.662 2.416-7.146-.745-8.873-2.742-1.542-6.6-1.588-9.156-.42-2.36 1.058-4.532 3.252-6.152 5.859-3.467 1.974-11.834 4.84-14.856 2.593 4.973-3.408 10.318-7.472 12.131-13.123-.326.14-2.045 3.503-3.3 4.81 1.115-2.008 3.346-6.07 4.416-6.538.371-.794.557-.84.464-2.335C65.06 3.974 61.743.147 58.56.146c-.255 0-.51.025-.763.077m2.743 4.53c.231-.046.464.42.464.56.93 6.726-5.484 12.376-7.762 14.058 1.86-5.418 4.927-9.667 7.298-14.618m-19.149 0c.232-.046.464.42.464.56.93 6.726-5.485 12.376-7.763 14.058 1.86-5.418 4.928-9.667 7.3-14.618m12.78 7.753c-.79 2.941-2.463 6.445-3.672 9.667-2.697 7.8-5.532 20.643-6.182 24.986-1.255-1.121 3.625-16.954 3.44-18.448 0 0-.233-.887-.651-1.168.139-1.307.975-3.595 1.72-5.184.464.187-1.348 3.41-.698 4.764.28-.7 1.302-4.95 1.674-5.604-.326-.654-.047-.606.418-.233 1.069-3.13 2.184-6.259 3.95-8.78m-19.149 0c-.79 2.941-2.463 6.445-3.671 9.667-2.697 7.8-5.532 20.643-6.182 24.986-1.255-1.121 3.625-16.954 3.44-18.448 0 0-.234-.887-.652-1.168.14-1.307.977-3.595 1.72-5.184.465.187-1.348 3.41-.697 4.764.279-.7 1.301-4.95 1.673-5.604-.325-.654-.046-.606.42-.233 1.068-3.13 2.183-6.259 3.95-8.78M72.53 16.52c-.558.561-2.603 1.915-3.394 2.616.465-.607 1.302-1.26 1.441-1.354-1.195.566-2.118 1.446-3.01 2.794a.698.698 0 0 0-.196-.179c-.014.012-.032.024-.047.035 1.337-1.887 3.025-3.215 5.206-3.912m20.684.047c-1.117 1.402-2.371 3.503-3.534 5.745a1.859 1.859 0 0 0-.138-.42c-.14.187-.326.42-.465.653 1.254-2.522 2.789-4.81 4.137-5.978m-77.388 4.39s-.28-2.941.93-3.596c1.673 2.897 2.51 4.997 1.72 7.66-2.418-.514-2.65-4.063-2.65-4.063m-4.09-2.803c-.279 1.168.697 4.39.697 4.39s.372-1.96.372.234c-.372 2.009 2.37 4.25 4.276 4.857-1.488 3.176-7.298 10.648-11.713 6.024-.976-2.194-.651-6.257.14-8.639-.233 1.727-.42 6.492.185 8.453.28-7.145 1.255-11.815 6.043-15.319m-6.74.187c-.93 3.456-2.417 7.193-3.393 10.882-.651-2.43 2.742-9.433 3.393-10.882m61.102 4.168c.206-.134.394-.266.563-.396-.65 1.219-1.327 2.707-2.127 4.542.444-1.539.96-2.92 1.564-4.146m-15.832 4.192c3.951 5.09-1.72 19.196-4.23 23.258-.65-6.351 2.882-18.12 4.23-23.258m-19.15 0c3.952 5.09-1.718 19.196-4.229 23.258-.65-6.351 2.882-18.12 4.23-23.258m37.09.374c.371.233-1.58 4.156.371 7.239-2.463-2.008-.603-7.146-.371-7.24m18.499 2.476c.139-.186.279-.42.418-.654-.279.981-.418 1.915-.465 2.663-.045-.608 0-1.261.047-2.01"/>
        <linearGradient id="k" x1="46.192%" x2="49.457%" y1="25.292%" y2="46.285%">
            <stop offset="0%" stop-color="#7A5749"/>
            <stop offset="100%" stop-color="#231F20"/>
        </linearGradient>
        <path id="m" d="M31.29 1.478c.37.922-.26 2.816.843 3.253.185 1.725 1.078 1.058-4.266 3.634a33.312 33.312 0 0 0-5.435 3.266c-.33.247-.687.437-1.098.51-.247.63-1.037.783-1.26 1.436-.379.019-.702.143-.998.405-1.132.999-2.29 1.97-3.424 2.967-.822.723-1.722 1.393-1.998 2.55.237.16.342.394.43.637-.099-.253-.217-.493-.43-.637-.928.07-.989.978-1.449 1.501-1.462.973-2.017 2.745-3.354 3.831 0 0-.134 1.102-2.059 3.568l.037.008c1.522.343 2.226.285 2.197.988.029-.701-.675-.645-2.197-.988l-.036-.008c-.926.388-3.129 5.967-3.519 7.283-.254.856-.32 1.759-.67 2.583C.95 44.576.582 48.881.615 50.101c.012.443-.435.938-.187 1.299.78 1.134-.334 1.947 0 3.53.234 1.112.336 2.254.72 3.333.218 2.969.676 4.147.035 5.672-.678 1.614 1.566.532.802 2.683-.794 2.235 1.222 2.154 2.121 4.01 1.786 3.685-.771.055 3.921 7.59a.85.85 0 0 0 .212.563c1.172 1.301 2.006 2.869 3.239 4.122 8.265 12.192 27.01 18.003 29.064 17.762.07-.236.152-.438.234-.627.1-.236.198-.45.267-.673-.07.222-.167.437-.267.673-.082.19-.164.391-.234.627 6.987 2.42 34.193 2.607 40.658-9.122.683-.097.474-1.225 1.27-.295a.978.978 0 0 1 .174.32c.403 1.244 1.33-.506 2.053-.742 1.164-.38 2.125-.995 2.54-2.239.352-1.056.935-.399 1.338-1.835.07-.252.183-.467.413-.584.927-.467 1.323-1.436 2.012-2.128.41-.41.433-.903-.054-1.277-1.37-1.053-.305-4.426-1.837-3.398-.747.502-1.776 2.949-3.19 4.284-3.445 3.256-2.42 1.068-8.763 5.968-7.151 5.526-14.933 7.107-14.933 7.107l-.485.005c-2.443.524-4.88 1.092-7.406.986-.56.153-1.123.3-1.713.248-10.858-.025-11.429-2.166-19.36-6.105C29.116 89.8 19.866 80.626 19.18 79.444a.92.92 0 0 0-.811-.482c0 .43-.568.879-.902 1.399.334-.523.902-.971.902-1.4-1.709-1.524-1.204-1.49-1.913-1.493.05-.511-.292-.847-.55-1.22-.06-.654.174-1.437-.75-1.71-3.354-5.964-2.76-8.148-4.46-11.182-.667-1.187-.173-2.024-1.198-6.342.012-1.16-.397-2.288-.242-3.456.174-.14.275-.33.184-.535-.24-.547-.173-1.118-.184-1.685.504-.413-.046-.82-.008-1.232-.153-1.412.312-2.788.25-4.196 1.059-2.016.275-2.74 1.397-4.623.408-.687 1.027-1.519 1.856-1.456.377.028.753-.01 1.129-.049.627-.064 1.254-.129 1.879.117 4.185 1.64 3.324 2.022 4.512 2.756 1.046.647 2.22.033 2.28-1.19.065-1.303-.253-2.418.83-3.011.7-.385.04-.916-.34-.507-.381.412-.87.612-1.387.74-.96.243-1.171-.028-1.11-1.015.097-1.612 1.462-1.65 2.57-2.497.495-.378.756-.365 1.382-.354.583.011 1.48.023 3.176-.28 1.714-.303.65.89 1.001 1.422.256.106.508.013.768-.08.19-.067.386-.135.59-.126.377.018.463-.317.286-.616-.324-.553-1.216-.972-.733-1.776.433-.718.353-1.495.368-2.27.037-1.933 1.309.37 3.919-3.166.762-1.031.593-2.296.76-3.474l.014-.249c.188-.11.229-.292.234-.489.006-.548.633-.888.49-1.482-.054-.062-.123-.115-.16-.184-.074-.146-.08-.338-.089-.53.022.242.06.5.249.714.223-.56.571-1.106.639-1.683.102-.883.642-1.8.28-2.634-.474-1.096-1.273-4.6-.702-7.034l.294-.712c.335-.04.584-.2.73-.51.255-.157.353-.526.717-.536.212.023.391-.029.502-.229.471-.022.83-.317 1.233-.505.687.027 1.229-.29 1.718-.73l.992-.253.498-.024c.276.047.5-.095.737-.198.208.003.39-.05.513-.235-.04 0-.077.002-.114.005.125-.018.262-.016.4-.015.062 0 .125.002.186 0 5.073-.512 6.707-1.137 9.854-.555.251.047.486.012.725-.067.568-.188 1.113-.104 1.686.05 1.57.416 7.135.71 8.42 1.863.231.206.536.192.823.18 1.8-.078 8.63 3.382 9.063 3.932.256.324.614.533.977.725.938.496 1.857 1.02 2.609 1.785.232.237.466.466.824.486.035.275.19.566.548.75.29.15.626.277.829.514 1.945 2.262 4.633 3.8 6.215 6.411.083.137.219.245.336.36 3.579 3.484 3.162 4.336 4.934 6.637 1.55 2.012.199 1.526 2.309 3.56.402.388.885.285.822-.55-.041-.515-.769-.604-.712-1.514.104-1.665-1.983-2.918-2.025-4.786-.003-.138-.134-.298-.247-.406-.593-.563-.845-1.28-.937-2.064-.18-1.542-.593-.586-2.526-3.346-.335-.477-.448-.818-.12-1.42.631-1.166.314-2.63-.763-3.025-1.132-.413-1.645-1.266-2.259-2.115-.537.151-.763-.476-1.233-.496a41.16 41.16 0 0 1-.242-.248c-.014-.323-.178-.486-.503-.484-.988-1.766-11.452-8.084-20.63-9.13-.358-.04-.629-.152-.797-.475a9.907 9.907 0 0 1-2.706-.273c-1.343-.157-11.652-.607-12.568.033l-.98.008c-.254.29-.468.424-.736.477.28-.07.519-.228.736-.477-.636-.091-1.204.094-1.734.435.127.032.245.052.358.066-.379-.018-.874-.06-1.58-.054-.362-.353-.44-.045-.534.229.05.003.098.004.145.003-.147.017-.345.016-.63.014a31.923 31.923 0 0 0-.706.003c-.4-.398-.564-.017-.77.232.1.005.199.013.295.01-.09.005-.193.004-.314.003-.126-.001-.272-.002-.444.003a8.769 8.769 0 0 1-.006-.233c-.2.008-.38.054-.482.249-.28-.023-.506.128-.745.234-.353-.005-.691.016-.772.465l.525.025a.433.433 0 0 1 .03-.004c.564-.057.553.452.848.63-.299-.176-.29-.686-.848-.63-.01 0-.02.002-.03.004-.63-.028-.416-.028-.98-.013-.25-.32-.635-.182-.951-.28l-.025-.698c-.022-.73.056-1.05-.276-1.082-.492-.05-.468.572-.5 1.07-.411.33-.029.944-.457 1.265-.499.048-.962.326-1.482.226-.005-.351-.016-.697-.484-.743l-.256-.247c-.024-2.46-.519-2.092-.627-3.336-.029-.333-.299-.5-.56-.5-.34 0-.667.281-.437.85m28.447 3.098l-.039.018c-.763.355-.795.286-.842.119.053.163.095.228.842-.119l.04-.018m-11.092.307c.467.33.67 1.23 1.805.371-.349.264-.609.362-.816.362-.47 0-.666-.504-.99-.733m11.429.127c.136.055.337.076.666.117l-.132.003c-.191 0-.376-.023-.534-.12m-2.794.146h.026a3.257 3.257 0 0 0 0 0h-.026m5.058.247c.304.068.647.15 1.036.253a.987.987 0 0 1 .275.119c-.273-.119-.797-.242-1.31-.372m-7.484.002c.21.088.4.113.584.104-.023.002-.046.002-.07.002-.161 0-.33-.03-.514-.106m9.028.72a.235.235 0 0 1-.123.206c.065-.04.11-.12.123-.205m-25.673.58c-.127.03-.238.107-.272.21.024-.092.097-.17.272-.21m-.273.341c-.01-.03-.006-.057-.004-.083-.003.042.008.09.017.135l-.013-.052m.107.57c-.021.29-.285.22-.654.169.453.034.615-.043.654-.17m-.994.13c.073.012.133.016.198.023-.359-.034-.783-.003-1.17.39.244-.28.523-.48.972-.413m-3.97 1.403c.082.026.175.058.281.096.684.247 1.156.237 1.515.097-.413.167-.888.13-1.515-.097a7.496 7.496 0 0 0-.28-.096c-.838-.267-.475.1-.825.688.351-.593-.026-.96.824-.688m-1.32 3.176c-.422.417-1.172.252-2.213.366 1.043-.115 1.79.05 2.213-.366m-2.78.164c-.033.027-.063.057-.096.082a3.608 3.608 0 0 1-.25.18c.115-.075.23-.17.347-.262m-2.005.625c-.338.063-.613.246-.864.495.348-.352.614-.465.864-.495m-5.565.526c.194.515.794.79 1.062 1.099-.268-.307-.868-.58-1.062-1.099m3.242 1.611c.334-.546.861-.972 1.289-1.462-.659.756-1.054 1.215-1.322 1.508.011-.016.023-.029.034-.046m54.657-.61c-.143.02-.256.157-.312.338.025-.166.094-.306.312-.337m-51.913.065c.133.068.26.16.393.237-.135-.058-.259-.16-.393-.237m-.67.045c-.681.474-1.01.773-1.188 1.013.29-.438.752-.71 1.188-1.013m54.186.364c.17.232.332.454.845.454h.01-.01c-.516 0-.675-.222-.845-.454m-56.744.62a1.255 1.255 0 0 1-.317.166c.109-.05.215-.102.317-.166m1.156.493l.001-.003c-.035.14-.063.285-.143.472a2.14 2.14 0 0 1-.133.264c.085-.152.175-.38.275-.733m-.92.739c.15.13.284.269.426.225a.19.19 0 0 1-.068.013c-.122 0-.234-.122-.358-.238m2.622 2.24c-.175.179-.44.342-.994.31.044.003.088.005.13.005.466 0 .703-.151.864-.315m-5.08.34c-.2.077-.42.178-.714.314-.028.014-.054.024-.082.036.22-.137.395-.263.797-.35m-7.68 1.048c.101.211.21.364.339.457-.155-.103-.256-.268-.34-.457m20.756.393c-.092-.163-.277-.265-.665-.23.405-.037.58.062.665.23m-22.558.017c2.495.101-1.006 1.508 1.006 3.682.033.035.066.068.1.098.703.628 1.55.04 2.558-.846-1.008.89-1.852 1.477-2.558.846a1.474 1.474 0 0 1-.1-.098c-2.017-2.178 1.476-3.58-1.006-3.682m21.058 1.252l.02.005c.044.012.086.025.125.04.677.238.631.712.74 1.048-.11-.336-.065-.811-.74-1.049a1.939 1.939 0 0 0-.125-.04c-.007 0-.014-.003-.02-.004m-5.96 3.019a.778.778 0 0 0 0 0m-7.864 4.15a1.26 1.26 0 0 0 0 0c-.437-.29-.872-.09-1.322.194.45-.284.883-.486 1.322-.195m-4.818.879c.113-.152.255-.28.41-.36-.166.133-.339.34-.576.548.055-.06.112-.116.166-.188m-2.18.82c-.19-.009-.384-.022-.573-.025.238 0 .482.016.73.024l-.065.001-.054.002-.037-.002m-2.13.798a.284.284 0 0 1-.02.03c-.204.326-.61.266-.977-.01.37.273.776.331.978.01a.284.284 0 0 0 .018-.03M5.48 37.28a3.016 3.016 0 0 0-.783-.063c.254-.022.515.006.783.063m-1.485.167c-.2.146-.336.332-.507.49a1.95 1.95 0 0 1 .507-.49m2.377.063c.576.156 1.163.287 1.734.135.004 0 .007-.002.01-.003a.202.202 0 0 1 .025-.007h.001a.202.202 0 0 0-.02.006.02.02 0 0 0-.005.001c-.004 0-.007.002-.01.003-.201.054-.394.076-.582.076-.404 0-.782-.102-1.153-.211m1.257 8.611c-.336.503-.422 1.004-.336 1.507-.1-.432-.07-.899.336-1.507m-.005 2.453c.1.243.15.476.164.702a2.823 2.823 0 0 0-.164-.702m.16 1.094a1.805 1.805 0 0 1-.024.196l-.014.078c-.042.296-.098.59-.126.886.02-.291.071-.586.126-.886.01-.078.025-.154.033-.233l.004-.041m.966 4.144c-.11.096-.22.186-.353.2.12-.017.224-.103.353-.2m-2.47 2.644c.203-.216.579-.15 1.018.003-.036-.007-.071-.02-.107-.023-.57-.076-.803-.027-.972.079.02-.02.04-.037.06-.059m-.442.368c-.176.126-.444.258-.93.365.329-.074.642-.183.93-.365m2.458.013c.35.124.695.219.994.206a1.588 1.588 0 0 1-.139.006c-.303 0-.582-.092-.855-.212m1.298 20.84c-.521-.13-.993-.101-1.361.28a.886.886 0 0 1 0 0c.37-.383.84-.411 1.36-.28m70.54 12.956c-2.514 1.104-2.92.64-3.623 1.887.707-1.255 1.091-.775 3.622-1.887m-3.76 2.086c-.516.632-1.628.99-2.546 1.173.928-.187 2.035-.549 2.547-1.173"/>
        <linearGradient id="n" x1="47.844%" x2="51.217%" y1="11.632%" y2="60.473%">
            <stop offset="0%" stop-color="#7A5749"/>
            <stop offset="100%" stop-color="#231F20"/>
        </linearGradient>
        <path id="p" d="M.948.706c.633.006.858-.45.275-.491C.37.43.52.703.948.705"/>
        <linearGradient id="q" x1="-123.931%" x2="247.115%" y1="-869.924%" y2="1094.998%">
            <stop offset="0%" stop-color="#7A5749"/>
            <stop offset="100%" stop-color="#231F20"/>
        </linearGradient>
        <path id="s" d="M.199.358C.383.437.328.456.406.276L.262.213.199.358"/>
        <linearGradient id="t" x1="156.657%" x2="688.723%" y1="1490.085%" y2="8672.971%">
            <stop offset="0%" stop-color="#7A5749"/>
            <stop offset="100%" stop-color="#231F20"/>
        </linearGradient>
    </defs>
    <g fill="none" fill-rule="evenodd">
        <g transform="translate(0 20)">
            <mask id="c" fill="#fff">
                <use xlink:href="#a"/>
            </mask>
            <path fill="url(#b)" d="M0 7.03v.112c.021 2.146 1.282 4.286 4.418 5.552 8.54 2.24 12.62-8.674 4.527-11.915a6.036 6.036 0 0 0-2.26-.446C3.073.333.034 3.673 0 7.031" mask="url(#c)"/>
        </g>
        <g transform="translate(2)">
            <mask id="f" fill="#fff">
                <use xlink:href="#d"/>
            </mask>
            <path fill="url(#e)" d="M5.293.557C2.04.579-.465 4.42.357 5.977c.772 1.462 1.61 2.863 3.5 3.253 1.28.667 2.59.463 3.807-.355 3.073-2.065 2.59-5.877.261-7.462C7.047.815 6.175.563 5.35.557h-.056zm.92 1.857a3.47 3.47 0 0 0 0 0zm1.642 1.229c.031.038.066.075.097.114-.031-.039-.066-.076-.097-.114zm.131.162c.733.959 1.007 2.124.223 2.8.781-.674.51-1.84-.223-2.8z" mask="url(#f)"/>
        </g>
        <g fill="#383838">
            <path d="M264.067 24.443c.83.961 1.545 2.055 2.143 3.28.598 1.226.847 2.601.747 4.124-.298 2.584-1.104 5.218-2.416 7.902-1.313 2.682-2.883 5.101-4.71 7.255s-3.654 3.727-5.48 4.72c-1.695.83-3.38 1.003-5.058.523-1.678-.48-3.173-1.334-4.485-2.56-1.313-1.225-2.284-2.517-2.915-3.876 2.093-.265 4.343-1.209 6.752-2.833a39.955 39.955 0 0 0 6.677-5.664c2.043-2.153 3.613-4.166 4.71-6.038 1.095-1.871 1.427-3.172.996-3.902-.631-.695-1.844-.778-3.638-.248-1.794.53-3.912 1.54-6.353 3.032-2.442 1.49-4.975 3.288-7.599 5.391a75.141 75.141 0 0 0-7.375 6.759c-2.292 2.402-4.17 4.795-5.63 7.18-1.463 2.453-2.168 4.564-2.119 6.336a8.312 8.312 0 0 0 1.645 4.796c1.046 1.424 2.317 2.85 3.812 4.273a64.743 64.743 0 0 1 3.04 3.255 23.724 23.724 0 0 1 2.69 3.801c1.262 2.32 1.536 4.664.822 7.032-.714 2.37-2.184 4.547-4.41 6.535-2.225 1.988-4.983 3.56-8.271 4.721-3.29 1.159-6.877 1.705-10.763 1.639-1.96-.098-3.556-.653-4.784-1.664a9.228 9.228 0 0 1-2.74-3.751 15.163 15.163 0 0 1-1.072-4.497c-.117-1.508-.05-2.8.2-3.878.248-1.075.588-1.697 1.02-1.862.565 2.12 1.745 3.685 3.538 4.696 1.795 1.01 3.879 1.573 6.255 1.689a23.922 23.922 0 0 0 7.025-.696c2.309-.578 4.252-1.391 5.83-2.435 1.578-1.043 2.484-2.227 2.716-3.553.1-1.192-.399-2.41-1.495-3.652-1.096-1.243-2.475-2.559-4.136-3.95a66.91 66.91 0 0 1-5.107-4.92 19.057 19.057 0 0 1-3.862-6.088c-.897-2.269-1.046-4.845-.448-7.727.598-2.65 1.794-5.384 3.587-8.2 1.794-2.816 3.987-5.532 6.578-8.15a58.94 58.94 0 0 1 8.42-7.056c3.023-2.087 6.088-3.751 9.194-4.995 3.106-1.242 6.038-1.862 8.795-1.862 1.163 0 2.176.24 3.04.72a10.59 10.59 0 0 1 2.342 1.764 24.155 24.155 0 0 1 1.944 2.187c.1.132.215.282.348.447M270.446 39.898c-.732-.331-1.197-.654-1.396-.97-.2-.314-.183-.72.05-1.217.2-.43.416-.944.648-1.54.764-1.789 1.62-3.71 2.566-5.765.947-2.054 1.785-3.445 2.517-4.174.863-.828 1.926-1.16 3.188-.994.997.166 1.927.406 2.791.72.864.316 1.495.73 1.894 1.243.398.513.431 1.151.1 1.913-.2.331-.69 1.086-1.471 2.261-.78 1.176-1.636 2.46-2.566 3.851a99.555 99.555 0 0 1-2.491 3.578c-.765 1.027-1.38 1.714-1.844 2.063-.466.347-.89.48-1.27.397-.383-.083-.806-.29-1.271-.621a58.61 58.61 0 0 0-1.445-.745zm-20.929 42.687a6.436 6.436 0 0 1-.847-.497 6.008 6.008 0 0 1-2.092-1.989c-.532-.827-.649-2.02-.35-3.577.632-2.153 2.16-5.334 4.584-9.541a320.974 320.974 0 0 1 7.575-12.474c1.926-3.014 3.255-5.516 3.986-7.503.897.066 1.944.447 3.14 1.143 1.196.695 2.175 1.549 2.94 2.559.763 1.01.929 2.012.498 3.006-.665 1.193-1.778 3.016-3.339 5.467a1055.045 1055.045 0 0 0-4.858 7.876c-1.711 2.8-3.157 5.342-4.335 7.628-1.18 2.286-1.753 3.876-1.72 4.77.133.894.532 1.243 1.196 1.044.664-.2 1.395-.638 2.192-1.317.798-.679 1.429-1.284 1.895-1.813 1.295-1.458 3.08-3.685 5.356-6.684a758.386 758.386 0 0 0 7.35-9.864c.399-.398.838-.622 1.32-.671.482-.05.84.074 1.072.372.232.299.182.746-.15 1.342-2.99 4.207-5.839 8.1-8.545 11.678-2.709 3.579-4.86 6.096-6.453 7.553-1.562 1.391-3.256 2.245-5.083 2.56-1.827.314-3.555.009-5.182-.92l-.15-.148z"/>
            <path d="M262.822 106.835c1.694-2.02 3.596-4.647 5.705-7.877 2.11-3.23 3.663-5.806 4.66-7.727-.898.597-2.201 1.582-3.912 2.956a116.389 116.389 0 0 0-5.407 4.647c-1.893 1.722-3.554 3.405-4.983 5.044-1.428 1.64-2.325 3.023-2.691 4.15-.265 1.192.009 1.814.823 1.864.814.048 1.793-.242 2.94-.871 1.146-.63 2.101-1.359 2.865-2.186m48.434-44.973c-.631.862-1.246 1.723-1.843 2.585-3.256 4.472-6.811 8.39-10.664 11.752-3.854 3.363-8.106 6.551-12.756 9.566-1.097 1.954-2.492 4.231-4.186 6.832a135.596 135.596 0 0 1-5.556 7.877c-2.01 2.65-4.045 5.035-6.104 7.156-2.06 2.12-4.003 3.644-5.83 4.571-.73.365-1.81.613-3.24.747-1.427.13-2.864.016-4.31-.348-1.445-.366-2.549-1.112-3.313-2.237-.93-1.657-.93-3.495 0-5.516s2.533-4.116 4.808-6.286c2.276-2.17 4.917-4.316 7.923-6.435a115.083 115.083 0 0 1 9.294-5.914l4.035-7.206c-1.494 1.69-2.865 2.965-4.11 3.827-1.246.862-2.251 1.076-3.015.645a26.433 26.433 0 0 1-2.467-1.639 10.255 10.255 0 0 1-2.167-2.162 5.832 5.832 0 0 1-1.096-2.758c-.232-3.015.282-6.112 1.545-9.293 1.262-3.18 3.08-6.227 5.456-9.144a40.33 40.33 0 0 1 8.221-7.627c3.107-2.17 6.354-3.752 9.743-4.746 3.387-.994 6.71-1.143 9.965-.447 1.794.397 2.948 1.077 3.464 2.037.514.961.605 2.08.273 3.355-.332 1.276-.946 2.592-1.843 3.95a33.394 33.394 0 0 1-2.99 3.877c-.93-2.518-2.367-3.901-4.31-4.15-1.944-.248-4.12.298-6.528 1.64-2.409 1.342-4.751 3.172-7.026 5.491-2.276 2.32-4.203 4.796-5.78 7.43-1.578 2.633-2.517 5.093-2.815 7.378-.1 1.028.398 1.244 1.494.647 1.097-.596 2.5-1.722 4.211-3.38 1.71-1.655 3.463-3.56 5.257-5.714a80.73 80.73 0 0 0 4.783-6.312c.897-1.622 1.561-2.848 1.994-3.677 1.096-.132 2.25.092 3.463.67 1.212.581 2.142 1.41 2.79 2.486.648 1.077.656 2.31.025 3.702a1480.82 1480.82 0 0 0-8.42 14.41c3.022-2.086 6.178-4.612 9.467-7.577 3.288-2.964 6.045-5.938 8.272-8.92a94.296 94.296 0 0 0 1.644-2.186c.399-.398.838-.622 1.32-.671.482-.05.83.075 1.046.372.217.299.175.746-.124 1.342"/>
            <path d="M345.29 60.819c.398-.398.847-.622 1.345-.672.499-.049.855.076 1.072.373.215.299.157.746-.175 1.342a380.177 380.177 0 0 1-8.52 11.678c-2.725 3.579-4.884 6.097-6.479 7.553-1.561 1.392-3.247 2.245-5.057 2.56-1.811.314-3.546.009-5.207-.92l-.15-.149c-.3-.165-.581-.33-.847-.497a5.99 5.99 0 0 1-2.093-1.987c-.531-.828-.631-2.02-.298-3.578.497-1.889 1.76-4.613 3.786-8.175a298.368 298.368 0 0 1 6.528-10.908c.399-.696.83-1.407 1.295-2.137.698-.994 1.229-1.83 1.595-2.509.365-.678.382-1.01.05-.994-.332.018-1.23.589-2.69 1.715-2.194 1.69-4.669 3.967-7.426 6.833a113.91 113.91 0 0 0-7.723 8.895c-2.392 3.064-4.136 5.756-5.232 8.075-.631 1.59-.98 2.85-1.047 3.776-.066.929 0 1.79.2 2.585-2.193.099-4.104-.43-5.731-1.59a6.005 6.005 0 0 1-2.092-1.988c-.531-.828-.631-2.02-.3-3.578.598-2.154 2.118-5.334 4.56-9.542a343.637 343.637 0 0 1 7.599-12.473c1.926-3.014 3.255-5.516 3.986-7.503.864.066 1.901.447 3.115 1.143 1.212.696 2.2 1.548 2.964 2.558.765 1.011.93 2.013.498 3.008-.697 1.192-1.827 3.015-3.387 5.466-.3.497-.616.993-.948 1.49a108.734 108.734 0 0 1 6.08-6.882c2.06-2.137 4.06-3.834 6.004-5.094 1.943-1.258 3.695-1.771 5.257-1.54.73.166 1.611.638 2.641 1.416 1.03.778 1.869 1.673 2.517 2.683.647 1.011.788 1.93.423 2.758-.664 1.193-1.777 3.016-3.338 5.467a451.421 451.421 0 0 0-4.784 7.752c-1.662 2.75-3.081 5.251-4.26 7.504-1.18 2.254-1.753 3.826-1.72 4.721.133.894.531 1.242 1.197 1.044.664-.2 1.395-.639 2.192-1.318a24.704 24.704 0 0 0 1.943-1.813c1.262-1.458 3.03-3.686 5.307-6.685a749.055 749.055 0 0 0 7.35-9.863"/>
        </g>
        <g transform="translate(64 38)">
            <mask id="i" fill="#fff">
                <use xlink:href="#g"/>
            </mask>
            <path fill="url(#h)" d="M11.318 6.605c.471-.51 7.39-4.777 7.907-4.22-3.294 1.391-9.6 5.565-12.283 10.11-7.202 9.74-12.613 31.212 6.918 31.212 5.13 0 11.107-5.703 11.107-9.97 0-2.226-1.318-3.061-2.494-3.154-1.883 4.128-5.836 9.09-11.107 8.21-7.578-1.253-2.495-21.057 6.683-28.06-.283-.881-3.906 2.69-3.906 2.69 3.012-3.571 7.294-5.937 12.19-7.653 2.023 6.076-6.354 12.29-6.354 12.29 11.624 0 12.66-15.907 4.141-17.716a7.193 7.193 0 0 0-1.533-.156c-3.556 0-8.245 2.23-11.269 6.417M8.165 22.65C5.859 28.635 5.812 34.34 5.577 35.638c-.094-.557-1.694-4.22 2.588-12.987" mask="url(#i)"/>
        </g>
        <g transform="translate(92 39)">
            <mask id="l" fill="#fff">
                <use xlink:href="#j"/>
            </mask>
            <path fill="url(#k)" d="M57.797.223c-1.163.233-4.369 5.65-5.345 7.752-1.626 3.559-3.564 8.222-5.389 13.167-3.538 1.97-11.748 4.745-14.737 2.525 4.974-3.408 10.32-7.472 12.132-13.123-.325.14-2.045 3.503-3.3 4.81 1.116-2.008 3.346-6.07 4.415-6.538.373-.794.559-.84.466-2.335-.14-2.709-3.997-6.959-7.39-6.258-1.163.233-4.37 5.65-5.346 7.752-1.839 4.023-4.075 9.457-6.096 15.118-1.767 1.172-3.626 1.72-6.547 1.976.745-4.437-1.719-10.648-7.017-10.555a2.564 2.564 0 0 1-.744.84c-1.116-.746-2.882-2.287-3.904-1.448-.034-.097-.235.072-.44.24-.385.316-.786.631-.119-.8C2.673 17.643-.952 24.508 1.14 34.69c.047-.233.093-.467.233-.607.743 1.168 2.695 2.522 4.834 3.222 7.529 2.476 12.038-5.09 13.479-9.293 0 0 4.067-1.048 6.747-2.702-1.942 5.665-3.592 11.403-4.332 16.06-1.254 7.75.512 12.142 7.67 12.001 1.58-.84 7.949-17.466 7.576-21.296-.139-1.588-1.905-4.157-2.603-5.371 2.417.215 8.496-1.956 11.709-3.879-2.312 6.444-4.354 13.205-5.202 18.544-1.255 7.752.511 12.143 7.67 12.002 1.58-.84 7.947-17.466 7.576-21.296-.14-1.588-1.906-4.157-2.603-5.371 2.335.208 8.088-1.814 11.373-3.684-2.516 5.226-2.73 11.311 1.873 13.398 1.394 1.775 6.321 3.083 8.97 2.615 3.672-1.073 7.066-4.25 9.621-7.938.187 5.137 3.348 7.145 7.438 7.845 9.528 1.635 21.056-15.038 19.522-16.953-3.95 4.717-11.481 16.206-19.522 11.816-1.023-.747-2.51-2.522-1.116-7.053-.976 1.355-1.07 3.083-1.208 4.951-.884-6.537 4.833-13.964 6.32-15.085-1.532 1.962-2.23 3.737-3.438 5.792 1.115-1.262 4.694-7.052 9.25-6.633.278 0 .65.094 1.022.187.232 2.523-4.508 8.92-7.948 8.92-3.114 0-2.65-2.288-2.65-2.288s-2.231 4.764 2.928 4.764c6.368 0 11.156-8.08 11.156-9.434 0-1.028-1.72-2.662-2.975-2.941-1.348-.982-2.603-1.636-4.09-1.683-6.415-.232-12.318 6.258-14.13 13.31-2.51 3.644-5.811 7.707-10.877 9.014-1.906.514-4.695.095-5.299-.934-1.255-2.148-1.069-4.716-.79-7.285-.418.56-.744 2.522-.79 3.69-.047-4.204 2.138-7.567 2.324-7.66-.65.187-1.394 1.821-1.766 2.896.372-3.036 4.416-6.866 5.81-7.473-1.44.234-3.161 2.056-3.95 2.755 1.58-3.082 9.806-8.453 9.992-2.148 0 2.335-3.3 4.764-5.903 5.605-3.253 1.214-5.484.84-5.438 1.167 1.58 2.008 7.53 2.288 12.783-1.728 3.253-2.662 2.416-7.146-.745-8.873-2.742-1.542-6.6-1.588-9.156-.42-2.36 1.058-4.532 3.252-6.152 5.859-3.467 1.974-11.834 4.84-14.856 2.593 4.973-3.408 10.318-7.472 12.131-13.123-.326.14-2.045 3.503-3.3 4.81 1.115-2.008 3.346-6.07 4.416-6.538.371-.794.557-.84.464-2.335C65.06 3.974 61.743.147 58.56.146c-.255 0-.51.025-.763.077m2.743 4.53c.231-.046.464.42.464.56.93 6.726-5.484 12.376-7.762 14.058 1.86-5.418 4.927-9.667 7.298-14.618m-19.149 0c.232-.046.464.42.464.56.93 6.726-5.485 12.376-7.763 14.058 1.86-5.418 4.928-9.667 7.3-14.618m12.78 7.753c-.79 2.941-2.463 6.445-3.672 9.667-2.697 7.8-5.532 20.643-6.182 24.986-1.255-1.121 3.625-16.954 3.44-18.448 0 0-.233-.887-.651-1.168.139-1.307.975-3.595 1.72-5.184.464.187-1.348 3.41-.698 4.764.28-.7 1.302-4.95 1.674-5.604-.326-.654-.047-.606.418-.233 1.069-3.13 2.184-6.259 3.95-8.78m-19.149 0c-.79 2.941-2.463 6.445-3.671 9.667-2.697 7.8-5.532 20.643-6.182 24.986-1.255-1.121 3.625-16.954 3.44-18.448 0 0-.234-.887-.652-1.168.14-1.307.977-3.595 1.72-5.184.465.187-1.348 3.41-.697 4.764.279-.7 1.301-4.95 1.673-5.604-.325-.654-.046-.606.42-.233 1.068-3.13 2.183-6.259 3.95-8.78M72.53 16.52c-.558.561-2.603 1.915-3.394 2.616.465-.607 1.302-1.26 1.441-1.354-1.195.566-2.118 1.446-3.01 2.794a.698.698 0 0 0-.196-.179c-.014.012-.032.024-.047.035 1.337-1.887 3.025-3.215 5.206-3.912m20.684.047c-1.117 1.402-2.371 3.503-3.534 5.745a1.859 1.859 0 0 0-.138-.42c-.14.187-.326.42-.465.653 1.254-2.522 2.789-4.81 4.137-5.978m-77.388 4.39s-.28-2.941.93-3.596c1.673 2.897 2.51 4.997 1.72 7.66-2.418-.514-2.65-4.063-2.65-4.063m-4.09-2.803c-.279 1.168.697 4.39.697 4.39s.372-1.96.372.234c-.372 2.009 2.37 4.25 4.276 4.857-1.488 3.176-7.298 10.648-11.713 6.024-.976-2.194-.651-6.257.14-8.639-.233 1.727-.42 6.492.185 8.453.28-7.145 1.255-11.815 6.043-15.319m-6.74.187c-.93 3.456-2.417 7.193-3.393 10.882-.651-2.43 2.742-9.433 3.393-10.882m61.102 4.168c.206-.134.394-.266.563-.396-.65 1.219-1.327 2.707-2.127 4.542.444-1.539.96-2.92 1.564-4.146m-15.832 4.192c3.951 5.09-1.72 19.196-4.23 23.258-.65-6.351 2.882-18.12 4.23-23.258m-19.15 0c3.952 5.09-1.718 19.196-4.229 23.258-.65-6.351 2.882-18.12 4.23-23.258m37.09.374c.371.233-1.58 4.156.371 7.239-2.463-2.008-.603-7.146-.371-7.24m18.499 2.476c.139-.186.279-.42.418-.654-.279.981-.418 1.915-.465 2.663-.045-.608 0-1.261.047-2.01" mask="url(#l)"/>
        </g>
        <g transform="translate(16 1)">
            <mask id="o" fill="#fff">
                <use xlink:href="#m"/>
            </mask>
            <path fill="url(#n)" d="M31.29 1.478c.37.922-.26 2.816.843 3.253.185 1.725 1.078 1.058-4.266 3.634a33.312 33.312 0 0 0-5.435 3.266c-.33.247-.687.437-1.098.51-.247.63-1.037.783-1.26 1.436-.379.019-.702.143-.998.405-1.132.999-2.29 1.97-3.424 2.967-.822.723-1.722 1.393-1.998 2.55.237.16.342.394.43.637-.099-.253-.217-.493-.43-.637-.928.07-.989.978-1.449 1.501-1.462.973-2.017 2.745-3.354 3.831 0 0-.134 1.102-2.059 3.568l.037.008c1.522.343 2.226.285 2.197.988.029-.701-.675-.645-2.197-.988l-.036-.008c-.926.388-3.129 5.967-3.519 7.283-.254.856-.32 1.759-.67 2.583C.95 44.576.582 48.881.615 50.101c.012.443-.435.938-.187 1.299.78 1.134-.334 1.947 0 3.53.234 1.112.336 2.254.72 3.333.218 2.969.676 4.147.035 5.672-.678 1.614 1.566.532.802 2.683-.794 2.235 1.222 2.154 2.121 4.01 1.786 3.685-.771.055 3.921 7.59a.85.85 0 0 0 .212.563c1.172 1.301 2.006 2.869 3.239 4.122 8.265 12.192 27.01 18.003 29.064 17.762.07-.236.152-.438.234-.627.1-.236.198-.45.267-.673-.07.222-.167.437-.267.673-.082.19-.164.391-.234.627 6.987 2.42 34.193 2.607 40.658-9.122.683-.097.474-1.225 1.27-.295a.978.978 0 0 1 .174.32c.403 1.244 1.33-.506 2.053-.742 1.164-.38 2.125-.995 2.54-2.239.352-1.056.935-.399 1.338-1.835.07-.252.183-.467.413-.584.927-.467 1.323-1.436 2.012-2.128.41-.41.433-.903-.054-1.277-1.37-1.053-.305-4.426-1.837-3.398-.747.502-1.776 2.949-3.19 4.284-3.445 3.256-2.42 1.068-8.763 5.968-7.151 5.526-14.933 7.107-14.933 7.107l-.485.005c-2.443.524-4.88 1.092-7.406.986-.56.153-1.123.3-1.713.248-10.858-.025-11.429-2.166-19.36-6.105C29.116 89.8 19.866 80.626 19.18 79.444a.92.92 0 0 0-.811-.482c0 .43-.568.879-.902 1.399.334-.523.902-.971.902-1.4-1.709-1.524-1.204-1.49-1.913-1.493.05-.511-.292-.847-.55-1.22-.06-.654.174-1.437-.75-1.71-3.354-5.964-2.76-8.148-4.46-11.182-.667-1.187-.173-2.024-1.198-6.342.012-1.16-.397-2.288-.242-3.456.174-.14.275-.33.184-.535-.24-.547-.173-1.118-.184-1.685.504-.413-.046-.82-.008-1.232-.153-1.412.312-2.788.25-4.196 1.059-2.016.275-2.74 1.397-4.623.408-.687 1.027-1.519 1.856-1.456.377.028.753-.01 1.129-.049.627-.064 1.254-.129 1.879.117 4.185 1.64 3.324 2.022 4.512 2.756 1.046.647 2.22.033 2.28-1.19.065-1.303-.253-2.418.83-3.011.7-.385.04-.916-.34-.507-.381.412-.87.612-1.387.74-.96.243-1.171-.028-1.11-1.015.097-1.612 1.462-1.65 2.57-2.497.495-.378.756-.365 1.382-.354.583.011 1.48.023 3.176-.28 1.714-.303.65.89 1.001 1.422.256.106.508.013.768-.08.19-.067.386-.135.59-.126.377.018.463-.317.286-.616-.324-.553-1.216-.972-.733-1.776.433-.718.353-1.495.368-2.27.037-1.933 1.309.37 3.919-3.166.762-1.031.593-2.296.76-3.474l.014-.249c.188-.11.229-.292.234-.489.006-.548.633-.888.49-1.482-.054-.062-.123-.115-.16-.184-.074-.146-.08-.338-.089-.53.022.242.06.5.249.714.223-.56.571-1.106.639-1.683.102-.883.642-1.8.28-2.634-.474-1.096-1.273-4.6-.702-7.034l.294-.712c.335-.04.584-.2.73-.51.255-.157.353-.526.717-.536.212.023.391-.029.502-.229.471-.022.83-.317 1.233-.505.687.027 1.229-.29 1.718-.73l.992-.253.498-.024c.276.047.5-.095.737-.198.208.003.39-.05.513-.235-.04 0-.077.002-.114.005.125-.018.262-.016.4-.015.062 0 .125.002.186 0 5.073-.512 6.707-1.137 9.854-.555.251.047.486.012.725-.067.568-.188 1.113-.104 1.686.05 1.57.416 7.135.71 8.42 1.863.231.206.536.192.823.18 1.8-.078 8.63 3.382 9.063 3.932.256.324.614.533.977.725.938.496 1.857 1.02 2.609 1.785.232.237.466.466.824.486.035.275.19.566.548.75.29.15.626.277.829.514 1.945 2.262 4.633 3.8 6.215 6.411.083.137.219.245.336.36 3.579 3.484 3.162 4.336 4.934 6.637 1.55 2.012.199 1.526 2.309 3.56.402.388.885.285.822-.55-.041-.515-.769-.604-.712-1.514.104-1.665-1.983-2.918-2.025-4.786-.003-.138-.134-.298-.247-.406-.593-.563-.845-1.28-.937-2.064-.18-1.542-.593-.586-2.526-3.346-.335-.477-.448-.818-.12-1.42.631-1.166.314-2.63-.763-3.025-1.132-.413-1.645-1.266-2.259-2.115-.537.151-.763-.476-1.233-.496a41.16 41.16 0 0 1-.242-.248c-.014-.323-.178-.486-.503-.484-.988-1.766-11.452-8.084-20.63-9.13-.358-.04-.629-.152-.797-.475a9.907 9.907 0 0 1-2.706-.273c-1.343-.157-11.652-.607-12.568.033l-.98.008c-.254.29-.468.424-.736.477.28-.07.519-.228.736-.477-.636-.091-1.204.094-1.734.435.127.032.245.052.358.066-.379-.018-.874-.06-1.58-.054-.362-.353-.44-.045-.534.229.05.003.098.004.145.003-.147.017-.345.016-.63.014a31.923 31.923 0 0 0-.706.003c-.4-.398-.564-.017-.77.232.1.005.199.013.295.01-.09.005-.193.004-.314.003-.126-.001-.272-.002-.444.003a8.769 8.769 0 0 1-.006-.233c-.2.008-.38.054-.482.249-.28-.023-.506.128-.745.234-.353-.005-.691.016-.772.465l.525.025a.433.433 0 0 1 .03-.004c.564-.057.553.452.848.63-.299-.176-.29-.686-.848-.63-.01 0-.02.002-.03.004-.63-.028-.416-.028-.98-.013-.25-.32-.635-.182-.951-.28l-.025-.698c-.022-.73.056-1.05-.276-1.082-.492-.05-.468.572-.5 1.07-.411.33-.029.944-.457 1.265-.499.048-.962.326-1.482.226-.005-.351-.016-.697-.484-.743l-.256-.247c-.024-2.46-.519-2.092-.627-3.336-.029-.333-.299-.5-.56-.5-.34 0-.667.281-.437.85m28.447 3.098l-.039.018c-.763.355-.795.286-.842.119.053.163.095.228.842-.119l.04-.018m-11.092.307c.467.33.67 1.23 1.805.371-.349.264-.609.362-.816.362-.47 0-.666-.504-.99-.733m11.429.127c.136.055.337.076.666.117l-.132.003c-.191 0-.376-.023-.534-.12m-2.794.146h.026a3.257 3.257 0 0 0 0 0h-.026m5.058.247c.304.068.647.15 1.036.253a.987.987 0 0 1 .275.119c-.273-.119-.797-.242-1.31-.372m-7.484.002c.21.088.4.113.584.104-.023.002-.046.002-.07.002-.161 0-.33-.03-.514-.106m9.028.72a.235.235 0 0 1-.123.206c.065-.04.11-.12.123-.205m-25.673.58c-.127.03-.238.107-.272.21.024-.092.097-.17.272-.21m-.273.341c-.01-.03-.006-.057-.004-.083-.003.042.008.09.017.135l-.013-.052m.107.57c-.021.29-.285.22-.654.169.453.034.615-.043.654-.17m-.994.13c.073.012.133.016.198.023-.359-.034-.783-.003-1.17.39.244-.28.523-.48.972-.413m-3.97 1.403c.082.026.175.058.281.096.684.247 1.156.237 1.515.097-.413.167-.888.13-1.515-.097a7.496 7.496 0 0 0-.28-.096c-.838-.267-.475.1-.825.688.351-.593-.026-.96.824-.688m-1.32 3.176c-.422.417-1.172.252-2.213.366 1.043-.115 1.79.05 2.213-.366m-2.78.164c-.033.027-.063.057-.096.082a3.608 3.608 0 0 1-.25.18c.115-.075.23-.17.347-.262m-2.005.625c-.338.063-.613.246-.864.495.348-.352.614-.465.864-.495m-5.565.526c.194.515.794.79 1.062 1.099-.268-.307-.868-.58-1.062-1.099m3.242 1.611c.334-.546.861-.972 1.289-1.462-.659.756-1.054 1.215-1.322 1.508.011-.016.023-.029.034-.046m54.657-.61c-.143.02-.256.157-.312.338.025-.166.094-.306.312-.337m-51.913.065c.133.068.26.16.393.237-.135-.058-.259-.16-.393-.237m-.67.045c-.681.474-1.01.773-1.188 1.013.29-.438.752-.71 1.188-1.013m54.186.364c.17.232.332.454.845.454h.01-.01c-.516 0-.675-.222-.845-.454m-56.744.62a1.255 1.255 0 0 1-.317.166c.109-.05.215-.102.317-.166m1.156.493l.001-.003c-.035.14-.063.285-.143.472a2.14 2.14 0 0 1-.133.264c.085-.152.175-.38.275-.733m-.92.739c.15.13.284.269.426.225a.19.19 0 0 1-.068.013c-.122 0-.234-.122-.358-.238m2.622 2.24c-.175.179-.44.342-.994.31.044.003.088.005.13.005.466 0 .703-.151.864-.315m-5.08.34c-.2.077-.42.178-.714.314-.028.014-.054.024-.082.036.22-.137.395-.263.797-.35m-7.68 1.048c.101.211.21.364.339.457-.155-.103-.256-.268-.34-.457m20.756.393c-.092-.163-.277-.265-.665-.23.405-.037.58.062.665.23m-22.558.017c2.495.101-1.006 1.508 1.006 3.682.033.035.066.068.1.098.703.628 1.55.04 2.558-.846-1.008.89-1.852 1.477-2.558.846a1.474 1.474 0 0 1-.1-.098c-2.017-2.178 1.476-3.58-1.006-3.682m21.058 1.252l.02.005c.044.012.086.025.125.04.677.238.631.712.74 1.048-.11-.336-.065-.811-.74-1.049a1.939 1.939 0 0 0-.125-.04c-.007 0-.014-.003-.02-.004m-5.96 3.019a.778.778 0 0 0 0 0m-7.864 4.15a1.26 1.26 0 0 0 0 0c-.437-.29-.872-.09-1.322.194.45-.284.883-.486 1.322-.195m-4.818.879c.113-.152.255-.28.41-.36-.166.133-.339.34-.576.548.055-.06.112-.116.166-.188m-2.18.82c-.19-.009-.384-.022-.573-.025.238 0 .482.016.73.024l-.065.001-.054.002-.037-.002m-2.13.798a.284.284 0 0 1-.02.03c-.204.326-.61.266-.977-.01.37.273.776.331.978.01a.284.284 0 0 0 .018-.03M5.48 37.28a3.016 3.016 0 0 0-.783-.063c.254-.022.515.006.783.063m-1.485.167c-.2.146-.336.332-.507.49a1.95 1.95 0 0 1 .507-.49m2.377.063c.576.156 1.163.287 1.734.135.004 0 .007-.002.01-.003a.202.202 0 0 1 .025-.007h.001a.202.202 0 0 0-.02.006.02.02 0 0 0-.005.001c-.004 0-.007.002-.01.003-.201.054-.394.076-.582.076-.404 0-.782-.102-1.153-.211m1.257 8.611c-.336.503-.422 1.004-.336 1.507-.1-.432-.07-.899.336-1.507m-.005 2.453c.1.243.15.476.164.702a2.823 2.823 0 0 0-.164-.702m.16 1.094a1.805 1.805 0 0 1-.024.196l-.014.078c-.042.296-.098.59-.126.886.02-.291.071-.586.126-.886.01-.078.025-.154.033-.233l.004-.041m.966 4.144c-.11.096-.22.186-.353.2.12-.017.224-.103.353-.2m-2.47 2.644c.203-.216.579-.15 1.018.003-.036-.007-.071-.02-.107-.023-.57-.076-.803-.027-.972.079.02-.02.04-.037.06-.059m-.442.368c-.176.126-.444.258-.93.365.329-.074.642-.183.93-.365m2.458.013c.35.124.695.219.994.206a1.588 1.588 0 0 1-.139.006c-.303 0-.582-.092-.855-.212m1.298 20.84c-.521-.13-.993-.101-1.361.28a.886.886 0 0 1 0 0c.37-.383.84-.411 1.36-.28m70.54 12.956c-2.514 1.104-2.92.64-3.623 1.887.707-1.255 1.091-.775 3.622-1.887m-3.76 2.086c-.516.632-1.628.99-2.546 1.173.928-.187 2.035-.549 2.547-1.173" mask="url(#o)"/>
        </g>
        <g transform="translate(41 38)">
            <mask id="r" fill="#fff">
                <use xlink:href="#p"/>
            </mask>
            <path fill="url(#q)" d="M.948.706c.633.006.858-.45.275-.491C.37.43.52.703.948.705" mask="url(#r)"/>
        </g>
        <g transform="translate(60 3)">
            <mask id="u" fill="#fff">
                <use xlink:href="#s"/>
            </mask>
            <path fill="url(#t)" d="M.199.358C.383.437.328.456.406.276L.262.213.199.358" mask="url(#u)"/>
        </g>
    </g>
</svg>
