<svg xmlns="http://www.w3.org/2000/svg" xmlns:xlink="http://www.w3.org/1999/xlink" width="347" height="118" viewBox="0 0 347 118">
    <defs>
        <path id="a" d="M.213.043h4.214v3.909H.213z"/>
    </defs>
    <g fill="none" fill-rule="evenodd">
        <path fill="#FEFEFE" d="M8.73 24.421C1.957 21.786-4.566 32.235 4.31 35.715c8.334 2.124 12.317-8.22 4.419-11.294M10.326 11c.81-.668.528-1.825-.233-2.777.761.95 1.047 2.106.233 2.777m-.37-2.938c.034.038.069.075.1.114-.031-.04-.066-.076-.1-.114M10.03 5.849c-4.539-2.95-8.942 2.584-7.866 4.528.802 1.45 1.673 2.841 3.638 3.228 1.33.66 2.69.459 3.956-.353 3.194-2.047 2.691-5.83.272-7.403"/>
        <g transform="translate(27)">
            <mask id="b" fill="#fff">
                <use xlink:href="#a"/>
            </mask>
            <path fill="#FEFEFE" d="M3.01.092C2.174-.17.494.662.278 1.445-.314 3.6 3.313 5.2 4.315 2.623c.38-.978-.249-2.198-1.305-2.53" mask="url(#b)"/>
        </g>
        <path fill="#FEFEFE" d="M263.126 29.079c.82.954 1.525 2.039 2.115 3.254.59 1.217.836 2.582.738 4.094-.295 2.563-1.09 5.177-2.386 7.84-1.296 2.662-2.846 5.063-4.648 7.2-1.805 2.137-3.608 3.698-5.412 4.685-1.672.822-3.337.994-4.992.517-1.657-.476-3.133-1.323-4.428-2.54-1.296-1.215-2.255-2.497-2.878-3.846 2.067-.263 4.288-1.2 6.666-2.811a39.496 39.496 0 0 0 6.591-5.62c2.017-2.137 3.567-4.135 4.65-5.993 1.081-1.856 1.41-3.147.983-3.871-.623-.69-1.82-.772-3.59-.247-1.772.527-3.863 1.53-6.273 3.01-2.41 1.478-4.911 3.262-7.502 5.35a74.323 74.323 0 0 0-7.28 6.706c-2.263 2.384-4.116 4.758-5.559 7.125-1.443 2.434-2.14 4.529-2.09 6.288.049 1.759.59 3.345 1.623 4.758 1.032 1.414 2.287 2.828 3.763 4.24a64.115 64.115 0 0 1 3 3.23 23.542 23.542 0 0 1 2.657 3.773c1.246 2.302 1.516 4.628.812 6.978-.706 2.351-2.157 4.512-4.354 6.485-2.197 1.972-4.92 3.533-8.166 4.684-3.247 1.15-6.789 1.692-10.625 1.627-1.936-.098-3.51-.648-4.722-1.652a9.155 9.155 0 0 1-2.706-3.722 15.112 15.112 0 0 1-1.058-4.462c-.115-1.497-.05-2.779.197-3.848.246-1.067.581-1.684 1.008-1.849.557 2.105 1.722 3.657 3.493 4.66 1.771 1.003 3.828 1.561 6.174 1.676a23.499 23.499 0 0 0 6.936-.69c2.279-.574 4.197-1.38 5.755-2.416 1.557-1.036 2.452-2.21 2.682-3.526.097-1.182-.395-2.39-1.477-3.624-1.082-1.233-2.443-2.54-4.083-3.92a66.206 66.206 0 0 1-5.042-4.883 18.924 18.924 0 0 1-3.812-6.04c-.886-2.252-1.033-4.808-.443-7.668.59-2.63 1.771-5.342 3.542-8.137 1.77-2.794 3.935-5.49 6.494-8.087a58.26 58.26 0 0 1 8.313-7.002c2.984-2.071 6.01-3.723 9.076-4.957 3.066-1.232 5.96-1.848 8.682-1.848 1.148 0 2.148.238 3.001.715a10.46 10.46 0 0 1 2.312 1.75 23.93 23.93 0 0 1 1.919 2.17c.098.132.212.28.344.444M269.403 45.557c-.732-.328-1.197-.648-1.396-.96-.2-.311-.183-.714.05-1.206.199-.425.415-.934.648-1.525.765-1.77 1.62-3.673 2.569-5.707.947-2.034 1.787-3.412 2.519-4.133.864-.82 1.928-1.149 3.192-.985.997.164 1.928.402 2.793.713.865.313 1.497.722 1.896 1.23.399.509.431 1.14.1 1.895-.2.328-.691 1.075-1.472 2.24-.782 1.163-1.638 2.435-2.569 3.812a98.564 98.564 0 0 1-2.494 3.543c-.765 1.017-1.38 1.697-1.845 2.042-.466.344-.89.476-1.273.394-.382-.082-.806-.287-1.271-.616-.433-.229-.915-.475-1.447-.737zm-20.95 42.267a6.458 6.458 0 0 1-.847-.492 5.986 5.986 0 0 1-2.095-1.969c-.532-.819-.649-2-.35-3.542.633-2.132 2.162-5.282 4.59-9.447a317.18 317.18 0 0 1 7.581-12.352c1.928-2.984 3.259-5.462 3.99-7.43.899.066 1.946.444 3.143 1.133 1.197.688 2.178 1.533 2.943 2.533.764 1.002.93 1.993.499 2.977-.666 1.182-1.78 2.986-3.342 5.413a1042.78 1042.78 0 0 0-4.863 7.799c-1.713 2.772-3.16 5.29-4.34 7.553-1.18 2.264-1.754 3.838-1.72 4.724.132.885.531 1.23 1.196 1.033.665-.197 1.397-.632 2.195-1.304.798-.672 1.43-1.271 1.896-1.795 1.296-1.444 3.084-3.65 5.361-6.619a751.58 751.58 0 0 0 7.358-9.767c.4-.394.839-.616 1.322-.664.481-.049.84.074 1.072.369.232.295.182.738-.15 1.328a482.78 482.78 0 0 1-8.554 11.563c-2.71 3.544-4.864 6.037-6.46 7.48-1.563 1.377-3.259 2.222-5.087 2.534-1.829.311-3.559.008-5.188-.91l-.15-.148z"/>
        <path fill="#FEFEFE" d="M261.935 111.814c1.672-2.028 3.55-4.663 5.632-7.904 2.081-3.241 3.615-5.826 4.599-7.753-.886.598-2.173 1.587-3.861 2.966a115.424 115.424 0 0 0-5.337 4.663c-1.869 1.728-3.509 3.416-4.919 5.06-1.409 1.646-2.295 3.035-2.656 4.164-.261 1.197.009 1.821.812 1.87.804.05 1.77-.242 2.902-.873 1.132-.631 2.074-1.363 2.828-2.193m47.808-45.127c-.623.865-1.23 1.73-1.82 2.593-3.213 4.488-6.722 8.42-10.525 11.793-3.804 3.375-8.001 6.574-12.592 9.6-1.082 1.959-2.46 4.244-4.131 6.854a136.092 136.092 0 0 1-5.485 7.904c-1.984 2.66-3.992 5.053-6.025 7.18-2.033 2.128-3.951 3.657-5.754 4.588-.721.365-1.787.614-3.198.749a12.4 12.4 0 0 1-4.254-.35c-1.427-.367-2.516-1.115-3.271-2.244-.917-1.663-.917-3.507 0-5.535.919-2.028 2.501-4.13 4.746-6.307 2.247-2.178 4.854-4.33 7.821-6.457a113.362 113.362 0 0 1 9.173-5.935l3.984-7.23c-1.475 1.696-2.828 2.975-4.058 3.84-1.23.864-2.222 1.08-2.975.647a26.06 26.06 0 0 1-2.435-1.644 10.208 10.208 0 0 1-2.14-2.17 5.907 5.907 0 0 1-1.082-2.768c-.229-3.025.28-6.133 1.525-9.324 1.246-3.19 3.041-6.25 5.386-9.175a40.072 40.072 0 0 1 8.115-7.653c3.066-2.177 6.271-3.766 9.617-4.763 3.343-.997 6.622-1.147 9.836-.449 1.77.4 2.91 1.082 3.419 2.044.507.965.598 2.087.27 3.367-.328 1.28-.934 2.601-1.82 3.964a33.449 33.449 0 0 1-2.95 3.89c-.919-2.527-2.337-3.915-4.255-4.165-1.919-.249-4.067.3-6.444 1.646-2.377 1.347-4.69 3.183-6.935 5.51-2.246 2.327-4.148 4.812-5.705 7.455-1.558 2.643-2.484 5.11-2.78 7.404-.098 1.031.394 1.247 1.476.649 1.083-.599 2.467-1.728 4.156-3.392 1.689-1.66 3.419-3.572 5.19-5.734a80.897 80.897 0 0 0 4.721-6.332 192.29 192.29 0 0 0 1.968-3.69c1.082-.133 2.22.091 3.418.673 1.197.582 2.115 1.413 2.754 2.494.64 1.08.647 2.318.025 3.714a1491.901 1491.901 0 0 0-8.312 14.46c2.983-2.094 6.099-4.629 9.345-7.603 3.246-2.975 5.967-5.96 8.165-8.951a94.504 94.504 0 0 0 1.622-2.194c.395-.399.828-.624 1.304-.673.475-.05.82.075 1.033.373.213.3.172.749-.123 1.347"/>
        <path fill="#FEFEFE" d="M344.505 65.902c.391-.4.83-.626 1.32-.676.488-.049.838.076 1.05.375.212.3.154.75-.171 1.351a382.322 382.322 0 0 1-8.355 11.751c-2.672 3.602-4.789 6.135-6.353 7.601-1.53 1.4-3.184 2.26-4.959 2.576-1.775.316-3.477.01-5.106-.926l-.146-.15a17.62 17.62 0 0 1-.83-.5 5.941 5.941 0 0 1-2.053-2c-.522-.833-.62-2.032-.293-3.6.488-1.9 1.726-4.642 3.713-8.226a301.999 301.999 0 0 1 6.4-10.977c.392-.7.815-1.417 1.271-2.15.684-1 1.205-1.841 1.564-2.525.358-.683.374-1.017.049-1.001-.326.018-1.206.593-2.639 1.726-2.15 1.7-4.577 3.992-7.28 6.876a113.83 113.83 0 0 0-7.574 8.951c-2.345 3.084-4.056 5.793-5.13 8.126-.62 1.6-.962 2.868-1.026 3.8-.066.935 0 1.801.195 2.601-2.15.1-4.024-.433-5.62-1.6a5.957 5.957 0 0 1-2.051-2c-.52-.834-.619-2.033-.294-3.6.587-2.168 2.077-5.368 4.471-9.603a347.63 347.63 0 0 1 7.452-12.552c1.888-3.032 3.192-5.55 3.909-7.55.847.066 1.864.45 3.054 1.15 1.189.7 2.157 1.558 2.907 2.575.75 1.017.912 2.025.488 3.026-.683 1.2-1.792 3.034-3.322 5.5-.293.501-.603 1-.929 1.5a108.584 108.584 0 0 1 5.962-6.926c2.019-2.15 3.982-3.858 5.887-5.125 1.906-1.267 3.624-1.783 5.155-1.55.717.167 1.58.642 2.59 1.425a10.376 10.376 0 0 1 2.468 2.7c.635 1.017.773 1.942.415 2.775-.652 1.201-1.743 3.035-3.274 5.502a456.481 456.481 0 0 0-4.69 7.8c-1.63 2.768-3.022 5.285-4.178 7.552-1.157 2.268-1.719 3.85-1.686 4.75.13.9.52 1.25 1.173 1.051.651-.2 1.368-.643 2.15-1.326a24.49 24.49 0 0 0 1.905-1.825c1.238-1.467 2.972-3.708 5.204-6.726a752.742 752.742 0 0 0 7.207-9.926M70.145 77.842c-.093-.563-1.673-4.268 2.556-13.13-2.277 6.049-2.324 11.816-2.556 13.13M84.37 60.07c11.482 0 12.505-16.084 4.09-17.913-3.578-.796-9.204 1.454-12.644 6.33.465-.515 7.299-4.83 7.81-4.267-3.254 1.407-9.483 5.628-12.133 10.222C64.38 64.29 59.034 86 78.327 86c5.067 0 10.97-5.767 10.97-10.082 0-2.25-1.301-3.094-2.463-3.188-1.86 4.173-5.765 9.19-10.972 8.3-7.483-1.266-2.463-21.289 6.602-28.37-.279-.89-3.858 2.72-3.858 2.72 2.975-3.61 7.205-6.001 12.04-7.736 1.998 6.142-6.276 12.426-6.276 12.426"/>
        <path fill="#FEFEFE" d="M180.774 64.654c-.14.186-.325.418-.464.65 1.251-2.51 2.782-4.79 4.126-5.951-1.113 1.395-2.364 3.487-3.524 5.72-.046-.233-.138-.42-.138-.42m-2.875 9.627c-.046-.604 0-1.255.046-2 .14-.186.279-.418.418-.65a12.801 12.801 0 0 0-.464 2.65m-18.406-4.465c.371.233-1.576 4.14.371 7.208-2.457-1.999-.602-7.114-.37-7.208m-3.663-.418c.442-1.532.956-2.907 1.56-4.126.204-.135.392-.266.561-.396-.648 1.213-1.325 2.696-2.121 4.522m7.974-10.091c-.557.558-2.596 1.906-3.385 2.605.464-.605 1.299-1.256 1.438-1.35-1.193.565-2.113 1.44-3.003 2.784a.695.695 0 0 0-.195-.179l-.047.035c1.334-1.88 3.017-3.201 5.192-3.895M137.38 92.602c-.649-6.324 2.874-18.043 4.219-23.159 3.94 5.07-1.716 19.114-4.22 23.159m1.716-21.158s-.231-.885-.65-1.163c.14-1.302.975-3.58 1.716-5.162.464.185-1.344 3.395-.695 4.743.278-.697 1.298-4.93 1.669-5.58-.324-.65-.047-.604.417-.233 1.066-3.115 2.18-6.23 3.941-8.742-.788 2.929-2.457 6.417-3.662 9.626-2.69 7.766-5.518 20.555-6.167 24.879-1.252-1.116 3.616-16.88 3.431-18.368m12.75-23.856c.231-.047.464.418.464.558.927 6.696-5.471 12.323-7.743 13.996 1.854-5.394 4.914-9.625 7.279-14.554m-33.566 45.014c-.648-6.324 2.875-18.043 4.22-23.159 3.94 5.07-1.716 19.114-4.22 23.159m1.716-21.158s-.232-.885-.649-1.163c.139-1.302.974-3.58 1.716-5.162.463.185-1.345 3.395-.696 4.743.278-.697 1.298-4.93 1.669-5.58-.325-.65-.046-.604.418-.233 1.065-3.115 2.178-6.23 3.94-8.742-.788 2.929-2.457 6.417-3.663 9.626-2.688 7.766-5.516 20.555-6.166 24.879-1.251-1.116 3.616-16.88 3.43-18.368m12.751-23.856c.232-.047.463.418.463.558.927 6.696-5.47 12.323-7.743 13.996 1.855-5.394 4.915-9.625 7.28-14.554M109.889 67.77c-2.41-.512-2.642-4.046-2.642-4.046s-.278-2.93.927-3.58c1.669 2.883 2.504 4.975 1.715 7.626m-13.074 8.603c-.973-2.186-.649-6.232.14-8.603-.232 1.72-.418 6.463.185 8.416.278-7.114 1.252-11.765 6.027-15.252-.278 1.162.695 4.37.695 4.37s.371-1.952.371.233c-.37 2 2.364 4.232 4.265 4.837-1.483 3.162-7.278 10.603-11.683 5.999m-3.755-4.418c-.649-2.419 2.736-9.393 3.385-10.836-.928 3.442-2.411 7.162-3.385 10.836m110.802-7.208c-3.941 4.696-11.452 16.137-19.472 11.765-1.02-.744-2.504-2.51-1.113-7.022-.974 1.35-1.066 3.07-1.205 4.93-.881-6.51 4.82-13.905 6.305-15.021-1.53 1.953-2.226 3.72-3.431 5.766 1.113-1.255 4.683-7.021 9.226-6.603.278 0 .65.093 1.02.186.232 2.511-4.497 8.882-7.928 8.882-3.106 0-2.643-2.279-2.643-2.279s-2.225 4.744 2.921 4.744c6.352 0 11.127-8.045 11.127-9.393 0-1.024-1.715-2.652-2.967-2.93-1.344-.977-2.596-1.628-4.08-1.674-6.398-.233-12.286 6.23-14.094 13.252-2.503 3.628-5.795 7.673-10.849 8.975-1.9.512-4.682.094-5.285-.93-1.252-2.139-1.067-4.696-.788-7.254-.417.558-.742 2.512-.788 3.674-.046-4.185 2.132-7.534 2.318-7.626-.65.185-1.391 1.813-1.762 2.883.37-3.023 4.405-6.837 5.795-7.441-1.437.233-3.152 2.047-3.94 2.744 1.576-3.069 9.782-8.417 9.967-2.14 0 2.326-3.291 4.744-5.887 5.581-3.246 1.21-5.47.837-5.425 1.163 1.577 2 7.51 2.278 12.75-1.721 3.245-2.65 2.41-7.115-.742-8.835-2.735-1.535-6.583-1.582-9.134-.419-2.354 1.054-4.52 3.24-6.136 5.834-3.459 1.965-11.803 4.82-14.818 2.582 4.961-3.393 10.293-7.439 12.1-13.067-.324.14-2.04 3.488-3.291 4.79 1.113-2 3.338-6.045 4.405-6.51.37-.79.556-.837.463-2.326-.139-2.696-3.987-6.928-7.372-6.23-1.16.232-4.358 5.626-5.331 7.719-1.622 3.543-3.555 8.186-5.375 13.11-3.53 1.962-11.719 4.726-14.699 2.514 4.96-3.393 10.292-7.439 12.1-13.067-.324.14-2.04 3.488-3.291 4.79 1.112-2 3.338-6.045 4.404-6.51.371-.79.557-.837.464-2.326-.14-2.696-3.987-6.928-7.372-6.23-1.159.232-4.358 5.626-5.332 7.719-1.833 4.006-4.064 9.418-6.08 15.052-1.762 1.167-3.616 1.713-6.529 1.968.742-4.418-1.715-10.602-7-10.51a2.554 2.554 0 0 1-.742.838c-1.113-.744-2.874-2.279-3.895-1.442-.092-.28-1.576 1.628-.556-.558-5.749 4.278-9.365 11.114-7.278 21.252.046-.233.092-.465.231-.605.742 1.163 2.69 2.511 4.822 3.209 7.51 2.464 12.007-5.069 13.445-9.254 0 0 4.057-1.043 6.729-2.69-1.937 5.64-3.582 11.354-4.32 15.99-1.251 7.719.51 12.09 7.65 11.95 1.576-.836 7.928-17.391 7.557-21.204-.14-1.581-1.9-4.14-2.596-5.349 2.41.215 8.473-1.947 11.678-3.861-2.306 6.415-4.342 13.148-5.188 18.464-1.252 7.719.509 12.09 7.649 11.95 1.577-.836 7.928-17.391 7.557-21.204-.139-1.581-1.9-4.14-2.596-5.349 2.33.208 8.067-1.804 11.344-3.668-2.51 5.204-2.723 11.264 1.868 13.341 1.39 1.768 6.305 3.07 8.948 2.604 3.662-1.07 7.047-4.231 9.597-7.905.185 5.116 3.338 7.115 7.418 7.812 9.504 1.628 21.002-14.974 19.472-16.88"/>
        <path fill="#FEFEFE" d="M92.462 97.568c.71-1.25 1.095-.772 3.636-1.88-2.523 1.1-2.93.638-3.636 1.88m-2.696 1.367c.933-.185 2.044-.546 2.558-1.168-.52.63-1.636.986-2.558 1.168M23.86 83.108c.378-.43.869-.466 1.414-.33-.546-.135-1.037-.098-1.414.33m-1.818-40.356c.59.16 1.192.291 1.777.125-.649.185-1.221.037-1.777-.125M23.3 53.777c.1.243.149.475.163.7a2.795 2.795 0 0 0-.163-.7m.135 1.286c-.005.026-.008.052-.014.078-.041.295-.098.587-.126.884.02-.291.072-.586.126-.884.013-.091.03-.181.038-.274-.006.066-.011.129-.024.196m-.469-2.228c-.1-.431-.07-.895.338-1.502-.338.5-.423 1.002-.338 1.502m-.103 8.777c-.571-.076-.806-.027-.975.078.019-.02.041-.036.06-.057.205-.217.58-.15 1.022.002-.035-.007-.07-.019-.107-.023m-2.294.75c.33-.074.646-.183.934-.364-.176.126-.445.258-.934.364m.578-19.838a3.063 3.063 0 0 0-.787-.064 2.74 2.74 0 0 1 .787.064m3.823 19.692c-.358.035-.683-.067-.999-.204.352.123.698.218 1 .204m-.543-3.22c-.109.098-.22.186-.354.201.12-.018.225-.103.354-.2m-5.28-15.818c.16-.218.331-.376.508-.489-.2.145-.338.33-.508.489m7.111-5.994c-.198.359-.619.304-1 .02.382.281.805.334 1-.02m2.296-.796c-.053 0-.1.004-.156.001-.193-.009-.387-.022-.577-.024.239 0 .485.015.733.023m.616-6.413c.725.778 1.61.181 2.669-.745-1.061.929-1.94 1.526-2.67.745-2.025-2.17 1.482-3.568-1.009-3.67 2.505.102-1.01 1.504 1.01 3.67m1.14-3.621c-.156-.104-.257-.268-.34-.456.102.21.21.362.34.456m5.252 8.45c-.486-.437-.967-.226-1.466.087.498-.314.978-.526 1.466-.086m-5.143.955c.056-.06.112-.116.166-.187.114-.153.257-.28.413-.359-.168.131-.341.339-.58.546m7.263-10.906c-.201.075-.422.177-.718.312l-.082.036c.22-.136.396-.262.8-.348m.526-4.793c-.27-.306-.872-.578-1.067-1.095.195.513.797.788 1.067 1.095m1.704.994a1.263 1.263 0 0 1-.318.165c.109-.049.216-.102.318-.165m.665 1.45c-.15.058-.282-.086-.428-.223.15.13.284.268.428.224m-.18-1.934c.334-.544.865-.969 1.294-1.457-.662.753-1.058 1.21-1.327 1.502l.034-.045m2.332-2.13c-.34.062-.616.245-.869.493.35-.351.618-.464.869-.494m-.947 6.382c.555.031.822-.13 1-.31-.177.18-.443.342-1 .31m1.764-4.558c-.135-.057-.259-.16-.393-.235.133.067.26.159.393.235m.378 10.945a.777.777 0 0 0-.605-.648.773.773 0 0 1 .605.648m-2.637-10.127c.29-.436.755-.706 1.192-1.01-.683.473-1.015.771-1.192 1.01m-.358.93a2.03 2.03 0 0 1-.134.263c.085-.152.176-.379.277-.73v-.002c-.035.138-.062.283-.143.47m3.812-4.194c-.033.026-.064.056-.097.08a3.87 3.87 0 0 1-.252.18c.116-.075.233-.169.349-.26m.57.2c1.046-.114 1.797.05 2.22-.364-.423.416-1.176.25-2.22.364m3.828-3.433c.686.246 1.16.235 1.52.096-.413.167-.89.13-1.52-.096-1.2-.43-.724-.054-1.11.589.387-.647-.105-1.025 1.11-.589m1.671 11.703c-.093-.164-.28-.265-.67-.229.407-.038.584.061.67.23m-1.507 1.262c.832.219.772.733.888 1.09-.116-.358-.058-.872-.888-1.09m3.54-14.46c.074.01.134.016.198.023-.359-.035-.785-.003-1.173.388.244-.28.524-.478.974-.411m.999-.13c-.02.29-.286.22-.657.17.456.034.618-.043.657-.17m-.094-.514c-.006-.02-.007-.033-.014-.053-.01-.03-.005-.057-.003-.084-.004.043.008.09.017.137m.26-.393c-.127.03-.238.108-.272.21.023-.093.098-.169.272-.21m12.29-1.446c-1.14.858-1.343-.04-1.811-.37.468.33.673 1.226 1.811.37M75.623 9.935c-.805.374-.837.306-.884.137.054.165.097.23.884-.137m1.007.549c-.239.009-.473.002-.67-.116.137.053.34.075.67.116m2.645.528c.116.03.202.072.276.118-.275-.118-.8-.242-1.316-.37.305.066.648.148 1.04.252m.51.467a.232.232 0 0 1-.123.204.286.286 0 0 0 .123-.204m15.49 8.487c-.143.019-.256.155-.312.335.025-.166.094-.305.313-.335m2.468.925c-.526.002-.688-.22-.859-.454.173.233.335.456.86.454m9.215 66.955c-1.376-1.05-.308-4.41-1.845-3.386-.75.501-1.783 2.938-3.204 4.27-3.458 3.244-2.43 1.064-8.798 5.945-7.18 5.508-14.994 7.083-14.994 7.083l-.486.005c-2.453.522-4.9 1.088-7.436.982-.563.153-1.128.3-1.72.248-10.902-.026-11.475-2.159-19.439-6.084-4.157-2.049-13.445-11.192-14.135-12.37a.926.926 0 0 0-.815-.481c.001.43-.57.876-.905 1.394.335-.52.906-.968.905-1.394-1.715-1.52-1.208-1.486-1.92-1.488.05-.51-.294-.844-.553-1.215-.06-.653.176-1.432-.752-1.705-3.369-5.944-2.77-8.119-4.48-11.142-.668-1.183-.173-2.018-1.201-6.32.012-1.155-.4-2.28-.244-3.445.175-.138.277-.327.186-.532-.242-.545-.175-1.114-.186-1.678.507-.413-.045-.818-.007-1.229-.153-1.407.313-2.778.25-4.18 1.063-2.009.277-2.73 1.403-4.607.41-.685 1.032-1.514 1.864-1.451 1.01.075 2.017-.324 3.02.067 4.202 1.635 3.338 2.014 4.53 2.747 1.05.645 2.23.033 2.29-1.186.065-1.298-.254-2.41.832-3 .704-.383.041-.913-.341-.506-.382.41-.873.61-1.392.74-.964.24-1.176-.03-1.115-1.014.098-1.607 1.468-1.644 2.58-2.488.96-.727 1.044-.007 4.577-.63 1.721-.303.653.884 1.006 1.415.444.181.877-.228 1.364-.204.378.017.463-.316.286-.614-.325-.552-1.221-.97-.736-1.77.434-.717.354-1.49.37-2.264.037-1.925 1.313.369 3.934-3.154.765-1.027.595-2.287.763-3.461l.014-.248c.19-.11.23-.291.234-.488.007-.545.637-.884.493-1.477-.054-.061-.123-.113-.16-.183-.075-.145-.082-.336-.09-.528.023.24.06.499.25.711.224-.558.575-1.102.642-1.676.102-.88.645-1.794.282-2.625-.477-1.093-1.279-4.585-.706-7.01l.296-.709c.336-.039.586-.2.733-.509.256-.156.353-.523.72-.533.213.023.392-.028.503-.228.473-.022.833-.316 1.238-.503.69.026 1.234-.289 1.726-.729l.995-.25c.167-.01.334-.017.5-.024.277.046.502-.096.74-.198.209.003.392-.05.515-.234-.04-.002-.077.002-.113.005.18-.026.39-.011.587-.015 5.094-.51 6.734-1.133 9.895-.553.251.046.487.012.727-.067.57-.188 1.117-.104 1.692.049 1.577.416 7.165.709 8.456 1.857.231.206.537.191.825.18 1.807-.078 8.665 3.37 9.1 3.918.257.323.616.531.98.722.942.494 1.865 1.015 2.62 1.78.232.234.468.463.828.483.035.274.191.565.55.747.29.15.63.278.832.513 1.954 2.253 4.652 3.786 6.24 6.388.084.137.22.244.338.358 3.593 3.472 3.174 4.321 4.953 6.614 1.557 2.006.2 1.522 2.319 3.547.404.387.889.285.824-.548-.04-.512-.77-.602-.714-1.508.104-1.66-1.99-2.908-2.033-4.77-.002-.136-.134-.296-.248-.403-.596-.562-.848-1.276-.941-2.058-.182-1.536-.595-.583-2.536-3.333-.336-.476-.45-.816-.121-1.417.634-1.16.316-2.62-.765-3.013-1.138-.412-1.652-1.261-2.268-2.108-.54.151-.766-.474-1.239-.494-.08-.083-.162-.165-.244-.248-.012-.321-.177-.484-.503-.48-.992-1.761-11.5-8.057-20.715-9.099-.358-.04-.63-.151-.8-.473-.917.03-1.823-.057-2.716-.272-1.348-.157-11.7-.605-12.619.033a234.8 234.8 0 0 1-.983.008c-.257.29-.471.421-.74.474.281-.07.52-.226.74-.474-.64-.092-1.21.093-1.741.432.127.033.244.053.359.066-.38-.017-.879-.06-1.586-.053-.364-.352-.443-.044-.537.228.05.004.098.005.145.003-.246.028-.638.005-1.341.017-.401-.396-.566-.016-.772.231.099.005.199.013.296.01-.186.01-.425-.005-.761.006l-.007-.231c-.2.007-.38.052-.484.247-.281-.024-.507.128-.747.233-.355-.005-.695.017-.777.464.177.007.352.016.529.024.596-.078.58.444.88.626-.305-.181-.29-.702-.88-.626-.633-.027-.419-.027-.985-.013-.252-.318-.638-.18-.955-.278l-.024-.697c-.023-.726.056-1.046-.277-1.077-.495-.049-.472.57-.503 1.067-.412.328-.03.94-.459 1.26-.5.048-.965.324-1.488.224-.005-.35-.015-.694-.486-.74a42.837 42.837 0 0 1-.257-.247c-.023-2.45-.521-2.083-.629-3.322-.066-.763-1.41-.657-1 .349.372.917-.26 2.806.847 3.24.185 1.72 1.082 1.054-4.284 3.622a33.453 33.453 0 0 0-5.457 3.254c-.332.246-.69.436-1.103.508-.247.628-1.04.781-1.264 1.43-.381.02-.705.143-1.003.404-1.136.997-2.3 1.962-3.438 2.957-.825.72-1.728 1.388-2.006 2.54.239.161.344.393.433.636-.1-.253-.218-.491-.433-.635-.931.07-.992.975-1.454 1.496-1.47.97-2.026 2.735-3.368 3.818 0 0-.135 1.098-2.067 3.555 1.554.352 2.272.287 2.243.992.029-.704-.69-.64-2.243-.992-.93.386-3.14 5.947-3.532 7.258-.255.853-.322 1.752-.673 2.574-1.661 6.288-2.03 10.578-1.997 11.793.012.442-.437.935-.188 1.295.783 1.13-.335 1.94 0 3.517.235 1.108.338 2.246.723 3.322.22 2.958.678 4.131.035 5.65-.68 1.61 1.573.531.805 2.675-.797 2.227 1.228 2.146 2.13 3.996 1.793 3.672-.775.055 3.937 7.563.007.21.067.4.213.561 1.175 1.297 2.014 2.858 3.252 4.108 8.298 12.149 27.12 17.938 29.18 17.699.07-.234.154-.436.236-.625.1-.235.199-.45.269-.67-.07.22-.168.435-.27.67-.08.19-.164.391-.235.625 7.016 2.412 34.332 2.597 40.824-9.09.686-.096.475-1.22 1.274-.294.078.09.138.206.176.32.404 1.239 1.335-.505 2.06-.74 1.17-.38 2.134-.992 2.55-2.231.355-1.052.94-.397 1.345-1.83.07-.25.183-.465.414-.58.93-.467 1.328-1.432 2.02-2.121.41-.408.435-.9-.053-1.273"/>
        <path fill="#FEFEFE" d="M41.36 42.991c.662.012.897-.899.286-.983-.89.434-.734.977-.287.983M60.708 7.423l-.29-.125-.126.29c.368.157.258.194.416-.165"/>
    </g>
</svg>
