<svg xmlns="http://www.w3.org/2000/svg" width="18" height="16" viewBox="0 0 18 16">
    <defs>
        <style>
            .cls-1{opacity:.5}.cls-2{fill:#fff}
        </style>
    </defs>
    <g id="action_required_menu" class="cls-1">
        <path id="Path_1" d="M15.069 43.81H2.929A2.908 2.908 0 0 1 .4 42.38a2.777 2.777 0 0 1 0-2.86l6.066-10.28a2.959 2.959 0 0 1 5.067 0L17.6 39.519a2.777 2.777 0 0 1 0 2.86 2.908 2.908 0 0 1-2.531 1.431zM9 28.632a2.073 2.073 0 0 0-1.805 1.019L1.124 39.93a1.979 1.979 0 0 0 0 2.038 2.072 2.072 0 0 0 1.806 1.02h12.14a2.073 2.073 0 0 0 1.805-1.019 1.979 1.979 0 0 0 0-2.038L10.8 29.651A2.072 2.072 0 0 0 9 28.632zm7.338 11.345l-5.853-9.912a1.735 1.735 0 0 0-2.971 0l-5.853 9.912a1.628 1.628 0 0 0 0 1.677 1.705 1.705 0 0 0 1.485.838h11.706a1.705 1.705 0 0 0 1.485-.838 1.628 1.628 0 0 0 0-1.677zm-8.4-6.819a1.06 1.06 0 0 1 2.12 0v3.363a1.06 1.06 0 0 1-2.12 0zM9 40.614a1.062 1.062 0 1 1 1.086-1.062A1.075 1.075 0 0 1 9 40.614z" class="cls-2" data-name="Path 1" transform="translate(.001 -27.81)"/>
    </g>
</svg>
