<svg xmlns="http://www.w3.org/2000/svg" width="18" height="13" viewBox="0 0 18 13">
    <defs>
        <style>
            .cls-1{fill:#fff}
        </style>
    </defs>
    <g id="add-recipien" transform="translate(5 -7.179)">
        <g id="Group_1042" data-name="Group 1042" transform="translate(-5 7.179)">
            <path id="Path_778" d="M10.2 25.439a4.3 4.3 0 0 0 1.2-3.026 3.867 3.867 0 0 0-3.618-4.076 3.867 3.867 0 0 0-3.612 4.076 4.3 4.3 0 0 0 1.2 3.024 3.953 3.953 0 0 0-3.381 4.08l-.036.811H13.5l.036-.75a4.409 4.409 0 0 0-1.065-2.938 3.505 3.505 0 0 0-2.271-1.201z" class="cls-1" data-name="Path 778" transform="translate(4.466 -17.328)"/>
            <path id="Path_779" d="M2.629 5.081v1.514a1.137 1.137 0 0 0 2.274 0V5.081h1.512a1.137 1.137 0 0 0 0-2.274H4.9V1.315a1.137 1.137 0 0 0-2.274 0v1.491H1.137a1.137 1.137 0 0 0 0 2.274h1.492z" class="cls-1" data-name="Path 779" transform="translate(0 -.179)"/>
        </g>
    </g>
</svg>
