<svg xmlns="http://www.w3.org/2000/svg" id="branding_menu_active" width="18" height="17" viewBox="0 0 18 17">
    <defs>
        <style>
            .cls-1{fill:#fff}
        </style>
    </defs>
    <path id="Path_838" d="M19.462 19.275h-6.728V18.3a1.734 1.734 0 1 0-3.468 0v.971H2.537a.542.542 0 0 0-.537.551v13.172a.543.543 0 0 0 .537.547h16.926a.543.543 0 0 0 .537-.547V19.822a.542.542 0 0 0-.538-.547zM11 17.423a.882.882 0 1 1-.867.881.874.874 0 0 1 .867-.881zM8.009 31.569H3.936v-1.34h4.073zm0-2.56H3.936v-1.342h4.073zM9.8 26.5H3.936v-1.535H9.8zm8.082 5.274h-.757a5.033 5.033 0 0 0-.38-1.921c-.144-.324-1.02-.605-1.02-.605-.468-.168-.471-.335-.471-.335-.919 1.842-1.617.005-1.617.005-.064.248-1.01.54-1.01.54a.917.917 0 0 0-.393.27 5.043 5.043 0 0 0-.456 1.989v.056h-.418v-7.105h6.519v7.109zm.739-9.227a.543.543 0 0 1-.538.547H3.937a.543.543 0 0 1-.537-.544v-.957a.543.543 0 0 1 .538-.546h5.328v1.015h3.468v-1.016h5.351a.543.543 0 0 1 .538.546v.957zM13.4 27.942c.071.593.572 1.206 1.027 1.206.523 0 1.02-.646 1.1-1.206a.272.272 0 0 0 .1-.19s.112-.406-.037-.363a1.264 1.264 0 0 0-.108-1.146 1.052 1.052 0 0 0-.532-.33l-.176-.062c-.07-.051-.209-.172-.209-.306a.386.386 0 0 0-.139.118.373.373 0 0 1 .108-.168.4.4 0 0 0-.11.1.353.353 0 0 0-.166.2v-.007a.109.109 0 0 0-.072-.034.387.387 0 0 0-.142.028 1.308 1.308 0 0 0-.708.721 1.818 1.818 0 0 0 .03.9c-.176-.085-.056.354-.056.354a.277.277 0 0 0 .09.185zm1-2.329a.357.357 0 0 0-.06.142l-.02-.007a.328.328 0 0 1 .085-.135z" class="cls-1" data-name="Path 838" transform="translate(-2 -16.541)"/>
</svg>
