<svg xmlns="http://www.w3.org/2000/svg" width="17" height="18" viewBox="0 0 17 18">
    <defs>
        <style>
            .cls-1{fill:#fff;opacity:.5}
        </style>
    </defs>
    <path id="calendar_menu" d="M14.734 18H2.266A2.261 2.261 0 0 1 0 15.75V4.5h17v11.25A2.261 2.261 0 0 1 14.734 18zm-1.7-6.75a1.688 1.688 0 1 0 1.7 1.688 1.7 1.7 0 0 0-1.7-1.688zm-4.533 0a1.688 1.688 0 1 0 1.7 1.688A1.7 1.7 0 0 0 8.5 11.25zm-4.533 0a1.688 1.688 0 1 0 1.7 1.688 1.7 1.7 0 0 0-1.701-1.688zm9.067-4.5a1.688 1.688 0 1 0 1.7 1.688 1.7 1.7 0 0 0-1.701-1.688zm-4.535 0a1.688 1.688 0 1 0 1.7 1.688A1.7 1.7 0 0 0 8.5 6.75zm-4.533 0a1.688 1.688 0 1 0 1.7 1.688 1.7 1.7 0 0 0-1.7-1.688zM13.6 13.5h-1.133v-1.125H13.6V13.5zm-4.534 0H7.934v-1.125h1.133V13.5zm-4.533 0H3.4v-1.125h1.133V13.5zM13.6 9h-1.133V7.875H13.6V9zM9.067 9H7.934V7.875h1.133V9zM4.533 9H3.4V7.875h1.133V9zM17 3.375H0V2.25A2.261 2.261 0 0 1 2.266 0h12.468A2.261 2.261 0 0 1 17 2.25v1.125z" class="cls-1"/>
</svg>
