<svg xmlns="http://www.w3.org/2000/svg" width="18" height="18" viewBox="0 0 18 18">
    <defs>
        <style>
            .cls-1{fill:#775649}
        </style>
    </defs>
    <path id="cancel_active" d="M10.594 9l1.591-1.591a.562.562 0 0 0 0-.8l-.8-.8a.562.562 0 0 0-.8 0L9 7.407l-1.59-1.59a.563.563 0 0 0-.8 0l-.8.8a.562.562 0 0 0 0 .8L7.412 9l-1.588 1.585a.562.562 0 0 0 0 .8l.8.8a.562.562 0 0 0 .8 0L9 10.589l1.6 1.6a.563.563 0 0 0 .8 0l.8-.8a.563.563 0 0 0 0-.8zM9 0a9 9 0 1 0 9 9 9 9 0 0 0-9-9zm0 16.316A7.313 7.313 0 1 1 16.312 9 7.312 7.312 0 0 1 9 16.316z" class="cls-1" transform="translate(0 -.004)"/>
</svg>
