<svg xmlns="http://www.w3.org/2000/svg" width="16" height="10" viewBox="0 0 16 10">
    <defs>
        <style>
            .cls-1{fill:#775649}
        </style>
    </defs>
    <g id="CC_active" transform="translate(-1.45 -5.033)">
        <g id="Group_1307" data-name="Group 1307" transform="translate(1.45 5.033)">
            <path id="Path_1030" d="M9.092 14.52a6.53 6.53 0 0 1-2.8.513 4.761 4.761 0 0 1-3.548-1.308 4.743 4.743 0 0 1-1.294-3.486A5.074 5.074 0 0 1 2.9 6.476a5.121 5.121 0 0 1 3.77-1.443 7.127 7.127 0 0 1 2.42.358v2.1a4.342 4.342 0 0 0-2.24-.583 3 3 0 0 0-2.228.856 3.152 3.152 0 0 0-.848 2.319 3.1 3.1 0 0 0 .8 2.236 2.848 2.848 0 0 0 2.153.833 4.643 4.643 0 0 0 2.365-.62z" class="cls-1" data-name="Path 1030" transform="translate(-1.45 -5.033)"/>
            <path id="Path_1031" d="M17.412 14.52a6.535 6.535 0 0 1-2.8.513 4.758 4.758 0 0 1-3.547-1.308 4.743 4.743 0 0 1-1.293-3.486 5.075 5.075 0 0 1 1.453-3.763 5.119 5.119 0 0 1 3.77-1.443 7.127 7.127 0 0 1 2.42.358v2.1a4.342 4.342 0 0 0-2.242-.579 3 3 0 0 0-2.229.856 3.151 3.151 0 0 0-.847 2.319 3.091 3.091 0 0 0 .8 2.236 2.848 2.848 0 0 0 2.153.833 4.646 4.646 0 0 0 2.365-.62z" class="cls-1" data-name="Path 1031" transform="translate(-1.412 -5.033)"/>
        </g>
    </g>
</svg>
