<svg xmlns="http://www.w3.org/2000/svg" width="18" height="18" viewBox="0 0 18 18">
    <defs>
        <style>
            .cls-1{fill:#775649}
        </style>
    </defs>
    <path id="check_sign_active" d="M16 18H2a2 2 0 0 1-2-2V2a2 2 0 0 1 2-2h14a2 2 0 0 1 2 2v14a2 2 0 0 1-2 2zM5.308 7.43a.63.63 0 0 0-.461.19l-.923.922a.655.655 0 0 0 0 .923L6.38 11.92l.923.923a.655.655 0 0 0 .922 0l.922-.923 4.91-4.91a.655.655 0 0 0 0-.923l-.923-.923a.654.654 0 0 0-.922 0L7.763 9.621l-1.994-2a.634.634 0 0 0-.461-.191z" class="cls-1" transform="translate(0 -.001)"/>
</svg>
