<svg xmlns="http://www.w3.org/2000/svg" id="company_sign" width="18" height="17.996" viewBox="0 0 18 17.996">
    <defs>
        <style>
            .cls-1{fill:#ef634c}
        </style>
    </defs>
    <g id="Group_1196" data-name="Group 1196">
        <g id="Group_1195" data-name="Group 1195">
            <path id="Path_876" d="M12.539 85.328h-1.5a.375.375 0 0 0-.375.375V99.95a.375.375 0 0 0 .375.375h1.5a.375.375 0 0 0 .375-.375v-3.374h-1.125a.375.375 0 0 1 0-.75h1.125v-3.749h-1.125a.375.375 0 1 1 0-.75h1.125v-3.75h-1.125a.375.375 0 0 1 0-.75h1.125V85.7a.375.375 0 0 0-.375-.372z" class="cls-1" data-name="Path 876" transform="translate(-10.664 -82.329)"/>
            <path id="Path_877" d="M439.2 85.328h-1.5a.375.375 0 0 0-.375.375v1.125h1.125a.375.375 0 1 1 0 .75h-1.12v3.749h1.125a.375.375 0 1 1 0 .75h-1.125v3.749h1.125a.375.375 0 1 1 0 .75h-1.125v3.374a.375.375 0 0 0 .375.375h1.5a.375.375 0 0 0 .375-.375V85.7a.375.375 0 0 0-.38-.372z" class="cls-1" data-name="Path 877" transform="translate(-421.58 -82.329)"/>
            <path id="Path_878" d="M107.708 1.514l-5.6-1.5a.435.435 0 0 0-.219 0l-5.6 1.5a.38.38 0 0 0-.29.361v15.746a.388.388 0 0 0 .4.375h2.8v-2.624A.388.388 0 0 1 99.6 15h4.8a.388.388 0 0 1 .4.375V18h2.8a.388.388 0 0 0 .4-.375V1.875a.38.38 0 0 0-.292-.361zm-6.643 11.359a.388.388 0 0 1-.4.375h-1.6a.388.388 0 0 1-.4-.375v-1.5a.388.388 0 0 1 .4-.375h1.6a.388.388 0 0 1 .4.375zm0-4a.388.388 0 0 1-.4.375h-1.6a.388.388 0 0 1-.4-.375v-1.5a.388.388 0 0 1 .4-.375h1.6a.388.388 0 0 1 .4.375zm0-4a.388.388 0 0 1-.4.375h-1.6a.388.388 0 0 1-.4-.375v-1.5a.388.388 0 0 1 .4-.375h1.6a.388.388 0 0 1 .4.375zm4.267 8a.388.388 0 0 1-.4.375h-1.6a.388.388 0 0 1-.4-.375v-1.5a.388.388 0 0 1 .4-.375h1.6a.388.388 0 0 1 .4.375zm0-4a.388.388 0 0 1-.4.375h-1.6a.388.388 0 0 1-.4-.375v-1.5a.388.388 0 0 1 .4-.375h1.6a.388.388 0 0 1 .4.375zm0-4a.388.388 0 0 1-.4.375h-1.6a.388.388 0 0 1-.4-.375v-1.5a.388.388 0 0 1 .4-.375h1.6a.388.388 0 0 1 .4.375z" class="cls-1" data-name="Path 878" transform="translate(-92.998)"/>
        </g>
    </g>
</svg>
