<svg xmlns="http://www.w3.org/2000/svg" width="16" height="20" viewBox="0 0 16 20">
    <defs>
        <style>
            .cls-1{fill:#fff}
        </style>
    </defs>
    <path id="Danger" d="M57 1740c-8.2-2.944-8.078-9.74-7.977-15.2.011-.584.021-1.136.021-1.674h.006A10.5 10.5 0 0 0 57 1720a10.505 10.505 0 0 0 7.956 3.125c0 .538.01 1.09.021 1.674.1 5.461.226 12.256-7.977 15.2zm-.017-6.187a1.329 1.329 0 0 0-.913.325 1.125 1.125 0 0 0 0 1.661 1.444 1.444 0 0 0 1.825 0 1.127 1.127 0 0 0 0-1.661 1.332 1.332 0 0 0-.912-.326zm-1.21-7.765l.294 6.8h1.866l.294-6.8z" class="cls-1" transform="translate(-49 -1720)"/>
</svg>
