<svg xmlns="http://www.w3.org/2000/svg" width="42" height="56" viewBox="0 0 42 56">
    <defs>
        <style>
            .cls-1,.cls-2{fill:#54688a}.cls-1{opacity:.05}.cls-3{opacity:.5}
        </style>
    </defs>
    <g id="doc" transform="translate(.001)">
        <g id="Group_13-3">
            <g id="Group_12-3">
                <path id="Path_29-3" d="M41.6 15.1L26.637.4a1.217 1.217 0 0 0-.9-.4H4.689A4.6 4.6 0 0 0 0 4.6v46.9A4.585 4.585 0 0 0 4.689 56h32.622A4.733 4.733 0 0 0 42 51.4V15.8a1.613 1.613 0 0 0-.4-.7zM26.936 3.8l11.173 11H29.33a2.366 2.366 0 0 1-2.394-2.4V3.8z" class="cls-1"/>
                <path id="Path_28-3" d="M41.6 15.1L26.637.4a1.217 1.217 0 0 0-.9-.4H4.689A4.6 4.6 0 0 0 0 4.6v46.9A4.585 4.585 0 0 0 4.689 56h32.622A4.733 4.733 0 0 0 42 51.4V15.8a1.613 1.613 0 0 0-.4-.7zM26.936 3.8l11.173 11H29.33a2.366 2.366 0 0 1-2.394-2.4V3.8zm12.67 47.6a2.431 2.431 0 0 1-2.394 2.4H4.689a2.366 2.366 0 0 1-2.394-2.4V4.6a2.431 2.431 0 0 1 2.394-2.4h19.952v10.2A4.669 4.669 0 0 0 29.33 17h10.375z" class="cls-2"/>
                <g id="Group_1348" class="cls-3" transform="translate(4.999 15.101)">
                    <path id="Path_1071" d="M246.5 277.3h-3.8a.6.6 0 1 1 0-1.2h3.8a.576.576 0 0 1 .6.6.645.645 0 0 1-.6.6z" class="cls-2" transform="translate(-242 -276.1)"/>
                    <path id="Path_1072" d="M248.4 280.5h-5.8a.6.6 0 1 1 0-1.2h5.8a.6.6 0 1 1 0 1.2z" class="cls-2" transform="translate(-242 -276.1)"/>
                    <path id="Path_1073" d="M251 280.5a.576.576 0 0 1-.6-.6.6.6 0 0 1 1.2 0 .52.52 0 0 1-.2.4.758.758 0 0 1-.4.2z" class="cls-2" transform="translate(-242 -276.1)"/>
                    <path id="Path_1074" d="M258.6 280.5h-5.1a.6.6 0 1 1 0-1.2h5.1a.576.576 0 0 1 .6.6c.1.3-.2.6-.6.6z" class="cls-2" transform="translate(-242 -276.1)"/>
                    <path id="Path_1075" d="M242.6 290.1a.6.6 0 1 1 0-1.2c.2 0 .3.1.5.2a.764.764 0 0 1 .2.5.682.682 0 0 1-.7.5z" class="cls-2" transform="translate(-242 -276.1)"/>
                    <path id="Path_1076" d="M250.3 290.1h-5.1a.6.6 0 1 1 0-1.2h5.1a.576.576 0 0 1 .6.6c.1.3-.2.6-.6.6z" class="cls-2" transform="translate(-242 -276.1)"/>
                    <path id="Path_1077" d="M262.5 280.5h-1.3a.6.6 0 1 1 0-1.2h1.3a.576.576 0 0 1 .6.6.645.645 0 0 1-.6.6z" class="cls-2" transform="translate(-242 -276.1)"/>
                    <path id="Path_1078" d="M256.7 283.7h-14.1a.6.6 0 1 1 0-1.2h14.1a.576.576 0 0 1 .6.6c.1.3-.2.6-.6.6z" class="cls-2" transform="translate(-242 -276.1)"/>
                    <path id="Path_1079" d="M262.5 283.7h-3.8a.6.6 0 1 1 0-1.2h3.8a.576.576 0 0 1 .6.6.645.645 0 0 1-.6.6z" class="cls-2" transform="translate(-242 -276.1)"/>
                    <path id="Path_1080" d="M245.2 286.9h-2.6a.6.6 0 1 1 0-1.2h2.6a.6.6 0 1 1 0 1.2z" class="cls-2" transform="translate(-242 -276.1)"/>
                    <path id="Path_1081" d="M254.2 286.9h-6.4a.6.6 0 1 1 0-1.2h6.4a.576.576 0 0 1 .6.6.645.645 0 0 1-.6.6z" class="cls-2" transform="translate(-242 -276.1)"/>
                    <path id="Path_1082" d="M262.5 286.9h-5.8a.6.6 0 1 1 0-1.2h5.8a.576.576 0 0 1 .6.6.645.645 0 0 1-.6.6z" class="cls-2" transform="translate(-242 -276.1)"/>
                </g>
            </g>
        </g>
        <g id="Group_1358" data-name="Group 1358" transform="translate(5.602 39)">
            <path id="Path_1114" d="M73.4 45.5a.764.764 0 0 1 .2-.5.845.845 0 0 1 .6-.2 1.421 1.421 0 0 1 .6.2c.2.1.2.3.2.5a.764.764 0 0 1-.2.5.845.845 0 0 1-.6.2 1.421 1.421 0 0 1-.6-.2.764.764 0 0 1-.2-.5z" class="cls-2" data-name="Path 1114" transform="translate(-73.4 -39)"/>
            <path id="Path_1115" d="M76.3 46.2v-7.1h2.2a3.287 3.287 0 0 1 1.7.4 3.166 3.166 0 0 1 1.6 3v.3a3.661 3.661 0 0 1-.4 1.8 3.232 3.232 0 0 1-1.1 1.2 3.064 3.064 0 0 1-1.7.4h-2.3zm1.5-5.9V45h.7a1.486 1.486 0 0 0 1.3-.6 2.544 2.544 0 0 0 .5-1.6v-.4a2.364 2.364 0 0 0-.4-1.6 1.486 1.486 0 0 0-1.3-.6h-.8z" class="cls-2" data-name="Path 1115" transform="translate(-73.4 -39)"/>
            <path id="Path_1116" d="M88.7 42.8a3.424 3.424 0 0 1-.4 1.8 3.179 3.179 0 0 1-1.1 1.2 3.4 3.4 0 0 1-3.2 0 3.179 3.179 0 0 1-1.1-1.2 3.424 3.424 0 0 1-.4-1.8v-.4a3.424 3.424 0 0 1 .4-1.8 3.179 3.179 0 0 1 1.1-1.2 3.4 3.4 0 0 1 3.2 0 3.179 3.179 0 0 1 1.1 1.2 3.424 3.424 0 0 1 .4 1.8zm-1.5-.3a2.861 2.861 0 0 0-.4-1.7 1.255 1.255 0 0 0-1.1-.6 1.149 1.149 0 0 0-1.1.6 2.674 2.674 0 0 0-.4 1.7v.3a2.861 2.861 0 0 0 .4 1.7 1.425 1.425 0 0 0 1.2.6 1.149 1.149 0 0 0 1.1-.6 2.674 2.674 0 0 0 .4-1.7v-.3z" class="cls-2" data-name="Path 1116" transform="translate(-73.4 -39)"/>
            <path id="Path_1117" d="M95.3 43.8a2.535 2.535 0 0 1-.8 1.8 3.221 3.221 0 0 1-2 .7 2.94 2.94 0 0 1-2.2-.9 3.936 3.936 0 0 1-.8-2.5v-.4a3.424 3.424 0 0 1 .4-1.8 4 4 0 0 1 1-1.2 3.288 3.288 0 0 1 3.6.3 3.1 3.1 0 0 1 .9 1.9h-1.5a1.333 1.333 0 0 0-.4-1 1.493 1.493 0 0 0-1-.3 1.29 1.29 0 0 0-1.1.5 3.1 3.1 0 0 0-.4 1.6v.5a3.689 3.689 0 0 0 .3 1.7c.2.4.6.5 1.1.5a1.221 1.221 0 0 0 1.4-1.3h1.5z" class="cls-2" data-name="Path 1117" transform="translate(-73.4 -39)"/>
        </g>
    </g>
</svg>
