<svg xmlns="http://www.w3.org/2000/svg" width="21" height="25" viewBox="0 0 21 25">
    <defs>
        <style>
            .cls-1{fill:#9ea0a5}
        </style>
    </defs>
    <path id="doc" d="M14.25 25H3a3.186 3.186 0 0 1-3-3.125V6.25a3.25 3.25 0 0 1 .847-2.155 2.75 2.75 0 0 1 2.037-.949l.867-.021A3.186 3.186 0 0 1 6.75 0l9 .024L21 6.268V18.75a3.185 3.185 0 0 1-3 3.125h-.75a3.186 3.186 0 0 1-3 3.125zM3.75 4.688c-1.514 0-2.25.512-2.25 1.562v15.625A1.614 1.614 0 0 0 3 23.437h11.25a1.443 1.443 0 0 0 1.507-1.571h-.207l-7.639.007H6.75a3.185 3.185 0 0 1-3-3.125zM9 14.854a.781.781 0 0 0 0 1.561h6.75a.781.781 0 0 0 0-1.561zm0-3.9a.781.781 0 0 0 0 1.561h6.75a.781.781 0 0 0 0-1.561zm6.75-9.365v3.1a1.593 1.593 0 0 0 1.5 1.562h2.25z" class="cls-1"/>
</svg>
