<svg xmlns="http://www.w3.org/2000/svg" width="12" height="17" viewBox="0 0 12 17">
    <defs>
        <style>
            .cls-1{fill:#775649}
        </style>
    </defs>
    <g id="document_active" transform="translate(-76.5)">
        <g id="Group_69" data-name="Group 69" transform="translate(76.5)">
            <path id="Path_48" d="M325.755 4.407h3.145L325.125 0v3.778a.631.631 0 0 0 .63.629z" class="cls-1" data-name="Path 48" transform="translate(-316.903)"/>
            <path id="Subtraction_1" d="M-6226.263-145h-9.475a1.263 1.263 0 0 1-1.263-1.26v-2.789h12v2.789a1.263 1.263 0 0 1-1.262 1.26zm-5.218-4.965a2.882 2.882 0 0 1-1.276-.282l.208-.864a2.522 2.522 0 0 0 1.129.288c.448 0 .715-.187.715-.5 0-.279-.191-.444-.756-.651-.831-.3-1.235-.743-1.235-1.363 0-.832.685-1.392 1.7-1.392a2.72 2.72 0 0 1 1.149.233l-.227.842a2.1 2.1 0 0 0-.942-.219c-.4 0-.654.175-.654.446 0 .294.254.425.834.651.809.306 1.169.73 1.169 1.377.003.699-.474 1.434-1.814 1.434zm-2.926 0a2.166 2.166 0 0 1-2.357-2.31 2.324 2.324 0 0 1 2.458-2.453 2.608 2.608 0 0 1 1.11.205l-.208.83a2.142 2.142 0 0 0-.855-.171 1.377 1.377 0 0 0-1.437 1.528 1.369 1.369 0 0 0 1.443 1.507 2.536 2.536 0 0 0 .849-.15l.153.816a2.81 2.81 0 0 1-1.156.198zm7.683-.069h-1.19l-1.441-4.619h1.116l.546 1.953.224.841.177.811h.021c.1-.517.238-1.051.407-1.631l.575-1.974h1.083l-1.516 4.618zm1.725-5.715h-12v-4.99a1.263 1.263 0 0 1 1.263-1.26h6.316v3.779a1.262 1.262 0 0 0 1.263 1.258h3.157v1.213z" class="cls-1" data-name="Subtraction 1" transform="translate(6237 162)"/>
        </g>
    </g>
</svg>
