<svg xmlns="http://www.w3.org/2000/svg" width="24.999" height="18" viewBox="0 0 24.999 18">
    <defs>
        <style>
            .cls-1{fill:#775649}
        </style>
    </defs>
    <path id="download_active" d="M19.531 18L6.25 17.985A6.306 6.306 0 0 1 0 12a5.58 5.58 0 0 1 1.334-3.607 6.751 6.751 0 0 1 3.379-2.138 6.622 6.622 0 0 1 2.21-4.438A7.157 7.157 0 0 1 11.719 0a7.017 7.017 0 0 1 6.3 3.773A7.251 7.251 0 0 1 25 10.875a8.7 8.7 0 0 1-1.6 4.645A4.953 4.953 0 0 1 19.531 18zm-7.018-3h.059a.764.764 0 0 0 .535-.212l4.641-4.432a.744.744 0 0 0 .23-.539.727.727 0 0 0-.23-.525.814.814 0 0 0-1.111 0l-3.355 3.2V5.258a.782.782 0 0 0-1.562 0v7.214l-3.333-3.18a.814.814 0 0 0-1.112 0 .728.728 0 0 0-.229.525.745.745 0 0 0 .229.539l4.641 4.432a.768.768 0 0 0 .536.212z" class="cls-1"/>
</svg>
