<svg xmlns="http://www.w3.org/2000/svg" width="18" height="18" viewBox="0 0 18 18">
    <defs>
        <style>
            .cls-1{fill:#fff;opacity:.5}
        </style>
    </defs>
    <path id="dropdown_menu" d="M16 18H2a2 2 0 0 1-2-2V2a2 2 0 0 1 2-2h14a2 2 0 0 1 2 2v14a2 2 0 0 1-2 2zM5.666 7a.178.178 0 0 0-.148.069.106.106 0 0 0 .012.131l3.333 3.742A.189.189 0 0 0 9 11a.184.184 0 0 0 .137-.056L12.47 7.2a.11.11 0 0 0 .03-.074.107.107 0 0 0-.019-.059.178.178 0 0 0-.147-.067z" class="cls-1" transform="translate(0 .001)"/>
</svg>
