<svg xmlns="http://www.w3.org/2000/svg" id="edit_name_active" width="12" height="10" viewBox="0 0 12 10">
    <defs>
        <style>
            .cls-1{fill:#775649}
        </style>
    </defs>
    <path id="Path_1218" d="M.429 166.173h10.284a.435.435 0 0 0 .428-.429v-.858a.435.435 0 0 0-.428-.429H.429a.412.412 0 0 0-.3.127.413.413 0 0 0-.127.3v.858a.413.413 0 0 0 .127.3.412.412 0 0 0 .3.131z" class="cls-1" data-name="Path 1218" transform="translate(0 -161.695)"/>
    <path id="Path_1219" d="M.429 56.534h7.724a.435.435 0 0 0 .429-.429v-.858a.435.435 0 0 0-.429-.429H.429a.413.413 0 0 0-.3.127.413.413 0 0 0-.127.3v.855a.413.413 0 0 0 .127.3.413.413 0 0 0 .3.134z" class="cls-1" data-name="Path 1219" transform="translate(0 -54.817)"/>
    <path id="Path_1220" d="M11.873 383.847a.412.412 0 0 0-.3-.127H.429a.412.412 0 0 0-.3.127.413.413 0 0 0-.127.3v.858a.413.413 0 0 0 .127.3.413.413 0 0 0 .3.127h11.142a.435.435 0 0 0 .429-.429v-.858a.413.413 0 0 0-.127-.298z" class="cls-1" data-name="Path 1220" transform="translate(0 -375.437)"/>
    <path id="Path_1221" d="M.429 275.8h8.583a.435.435 0 0 0 .429-.429v-.858a.435.435 0 0 0-.429-.429H.429a.412.412 0 0 0-.3.127.413.413 0 0 0-.127.3v.858a.412.412 0 0 0 .127.3.413.413 0 0 0 .3.131z" class="cls-1" data-name="Path 1221" transform="translate(0 -268.565)"/>
</svg>
