<svg xmlns="http://www.w3.org/2000/svg" id="file_name" width="16" height="16" viewBox="0 0 16 16">
    <defs>
        <style>
            .cls-1{fill:#775649}
        </style>
    </defs>
    <path id="Path_1233" d="M80.471 3.453h5.022a.471.471 0 0 0 .471-.471V1.726a.471.471 0 0 0-.471-.471h-.85a1.727 1.727 0 0 0-3.322 0h-.85a.471.471 0 0 0-.471.471v1.256a.471.471 0 0 0 .471.471zm0 0" class="cls-1" data-name="Path 1233" transform="translate(-77.507)"/>
    <path id="Path_1234" d="M408.456 143.145a1.1 1.1 0 0 0-1.554 0l-1 1 1.221 1.221a1.1 1.1 0 0 1 0 1.554l-1.554 1.554a.471.471 0 0 0 .666.666l1.554-1.554a2.044 2.044 0 0 0 .294-2.513l.372-.372a1.1 1.1 0 0 0 .001-1.556zm0 0" class="cls-1" data-name="Path 1234" transform="translate(-392.778 -138.373)"/>
    <path id="Path_1235" d="M208.842 210.75l-1.332 2.22a.471.471 0 0 0 .646.646l2.22-1.332a.469.469 0 0 0 .091-.071l4.55-4.55-1.554-1.554-4.55 4.55a.473.473 0 0 0-.071.091zm0 0" class="cls-1" data-name="Path 1235" transform="translate(-201.003 -199.711)"/>
    <path id="Path_1236" d="M9.928 81.2l-2.219 1.321a1.418 1.418 0 0 1-.726.2 1.406 1.406 0 0 1-1.211-2.128L7.1 78.385a1.411 1.411 0 0 1 .213-.271l3.671-3.652v-3.994a.47.47 0 0 0-.469-.468h-1.1v.781A1.411 1.411 0 0 1 8 72.186H2.982a1.411 1.411 0 0 1-1.413-1.405V70H.471a.47.47 0 0 0-.471.468v12.866a.47.47 0 0 0 .471.468h10.044a.47.47 0 0 0 .471-.468V80.2l-.786.781a1.409 1.409 0 0 1-.272.211zm-5.094-7.546H8.6a.468.468 0 1 1 0 .937H4.834a.468.468 0 1 1 0-.937zm0 1.874H8.6a.468.468 0 1 1 0 .937H4.834a.468.468 0 1 1 0-.937zm-2.48-1.874h.628a.468.468 0 1 1 0 .937h-.628a.468.468 0 1 1 0-.937zm0 1.874h.628a.468.468 0 1 1 0 .937h-.628a.468.468 0 1 1 0-.937z" class="cls-1" data-name="Path 1236" transform="translate(0 -67.803)"/>
</svg>
