<svg xmlns="http://www.w3.org/2000/svg" width="18" height="18" viewBox="0 0 18 18">
    <defs>
        <style>
            .cls-1{fill:#9ea0a5}
        </style>
    </defs>
    <path id="Fill_190" d="M3.375 18v-3.983A7.517 7.517 0 0 1 0 7.875a7.364 7.364 0 0 1 2.636-5.568A9.627 9.627 0 0 1 9 0a9.627 9.627 0 0 1 6.364 2.307A7.364 7.364 0 0 1 18 7.875a7.363 7.363 0 0 1-2.636 5.568A9.628 9.628 0 0 1 9 15.75a10.37 10.37 0 0 1-1.683-.142L3.376 18zm2.812-8.438a.562.562 0 1 0 0 1.125h5.625a.562.562 0 0 0 0-1.125zM5.062 6.187a.562.562 0 1 0 0 1.125h7.875a.562.562 0 1 0 0-1.125z" class="cls-1" data-name="Fill 190"/>
</svg>
