<svg xmlns="http://www.w3.org/2000/svg" width="18" height="15" viewBox="0 0 18 15">
    <defs>
        <style>
            .cls-1{opacity:.5}.cls-2{fill:#fff}
        </style>
    </defs>
    <g id="folder_menu" class="cls-1">
        <path id="Path_13" d="M5.6 23.5a.17.17 0 0 0-.163.126L2 32.268v.3c0 .222-.014.3.169.3h13.424a.762.762 0 0 0 .735-.548l3.067-8.52v-.3z" class="cls-2" data-name="Path 13" transform="translate(-1.395 -17.872)"/>
        <path id="Path_14" d="M3.816 10.4h12.37V8.483a.829.829 0 0 0-.819-.837H7.948L6.449 5.5H.819A.829.829 0 0 0 0 6.337v12.811l3.082-8.189a.763.763 0 0 1 .734-.559z" class="cls-2" data-name="Path 14" transform="translate(0 -5.5)"/>
    </g>
</svg>
