<svg xmlns="http://www.w3.org/2000/svg" width="58" height="54.001" viewBox="0 0 58 54.001">
    <defs>
        <style>
            .cls-1{fill:#84665a}.cls-2{fill:#775649}.cls-3{fill:#f6f4f3}.cls-4{fill:#eee8e6}.cls-5{fill:#d4c9c4}
        </style>
    </defs>
    <g id="folder_2_" data-name="folder (2)">
        <path id="Path_767" d="M52.8 55.956H5.2a.271.271 0 0 1-.268-.23L0 23.268a.271.271 0 0 1 .268-.312h57.46a.271.271 0 0 1 .268.312l-4.925 32.458a.271.271 0 0 1-.271.23z" class="cls-1" data-name="Path 767" transform="translate(0 -1.955)"/>
        <g id="Group_1019" data-name="Group 1019" transform="translate(4)">
            <path id="Path_768" d="M54.088 22.956V7.724a.769.769 0 0 0-.769-.768H22.467a.766.766 0 0 1-.659-.373l-2.557-4.255a.771.771 0 0 0-.659-.373H4.769A.77.77 0 0 0 4 2.724v20.232h50.088z" class="cls-2" data-name="Path 768" transform="translate(-4 -1.955)"/>
        </g>
        <path id="Rectangle_149" d="M0 0h44.088v4H0z" class="cls-3" data-name="Rectangle 149" transform="translate(7 17.001)"/>
        <path id="Rectangle_150" d="M0 0h42.088v3H0z" class="cls-4" data-name="Rectangle 150" transform="translate(8 14.001)"/>
        <path id="Rectangle_151" d="M0 0h40.088v3H0z" class="cls-5" data-name="Rectangle 151" transform="translate(9 11.001)"/>
    </g>
</svg>
