<svg xmlns="http://www.w3.org/2000/svg" width="20" height="20" viewBox="0 0 20 20">
    <defs>
        <style>
            .cls-1{fill:#775649}.cls-2{fill:#fff}
        </style>
    </defs>
    <g id="get_started_check" transform="translate(4369 4920)">
        <circle id="Ellipse_746" cx="10" cy="10" r="10" class="cls-1" data-name="Ellipse 746" transform="translate(-4369 -4920)"/>
        <g id="done-tick_1_" data-name="done-tick (1)" transform="translate(-4365 -4949.292)">
            <path id="Path_905" d="M11.549 34.862l-.321-.267a1.325 1.325 0 0 0-1.806.111L4.047 40.48l-1.623-1.354a1.325 1.325 0 0 0-1.806.109l-.284.3a1.227 1.227 0 0 0 .093 1.773L3.4 43.951a1.324 1.324 0 0 0 1.868-.1l6.417-7.223a1.228 1.228 0 0 0-.138-1.77z" class="cls-2" data-name="Path 905"/>
        </g>
    </g>
</svg>
