<svg xmlns="http://www.w3.org/2000/svg" id="history" width="12" height="13" viewBox="0 0 12 13">
    <defs>
        <style>
            .cls-1{fill:#9ea0a5}
        </style>
    </defs>
    <path id="Path_45" d="M11.571 2.167a.318.318 0 0 0-.069.016.48.48 0 0 0-.074-.016h-.571V.542A.559.559 0 0 0 10.286 0H1.714A1.689 1.689 0 0 0 .029 1.354.36.36 0 0 0 0 1.49v10.02A1.531 1.531 0 0 0 1.572 13h10a.421.421 0 0 0 .428-.406V2.573a.421.421 0 0 0-.429-.406zM6 11.1a3.628 3.628 0 0 1-3.714-3.517A3.629 3.629 0 0 1 6 4.063a3.629 3.629 0 0 1 3.714 3.52A3.628 3.628 0 0 1 6 11.1zm3.714-8.933h-8a.559.559 0 0 1-.571-.542.559.559 0 0 1 .571-.542h8zm0 0" class="cls-1" data-name="Path 45"/>
    <path id="Path_46" d="M204.049 216.922a.551.551 0 0 1-.39-.162l-.828-.828a.55.55 0 0 1-.162-.39v-1.657a.552.552 0 1 1 1.1 0v1.428l.667.667a.552.552 0 0 1-.39.943zm0 0" class="cls-1" data-name="Path 46" transform="translate(-197.203 -207.955)"/>
</svg>
