<svg xmlns="http://www.w3.org/2000/svg" width="18" height="18" viewBox="0 0 18 18">
    <defs>
        <style>
            .cls-1{fill:#775649}
        </style>
    </defs>
    <path id="Subtraction_19" d="M19716.846 15695h-12a3 3 0 0 1-3-3v-12a3 3 0 0 1 3-3h12a3 3 0 0 1 3 3v12a3 3 0 0 1-3 3zm-11.182-14.5l-3.023 11h1.906l.578-2.172h3.564l.564 2.173h2.127l-3.029-11zm6.291 0v11h3.117a4.72 4.72 0 0 0 3.025-.852 3.061 3.061 0 0 0 1.043-2.523 2.8 2.8 0 0 0-.152-.96 2.38 2.38 0 0 0-.412-.748 2.192 2.192 0 0 0-.607-.509 2.238 2.238 0 0 0-.732-.268 2.034 2.034 0 0 0 .662-.4 2.367 2.367 0 0 0 .471-.579 2.571 2.571 0 0 0 .275-.722 3.623 3.623 0 0 0 .09-.8 2.338 2.338 0 0 0-.869-1.985 4.313 4.313 0 0 0-2.613-.658zm3.252 9.31h-1.346v-3.173h1.2a2.4 2.4 0 0 1 1.52.4 1.387 1.387 0 0 1 .494 1.118 1.654 1.654 0 0 1-.123.648 1.5 1.5 0 0 1-.352.529 1.64 1.64 0 0 1-.584.347 2.346 2.346 0 0 1-.809.131zm-6.949-2.173h-2.672l1.346-5.117 1.324 5.116zm6.766-2.583h-1.162v-2.91h1.162a2.774 2.774 0 0 1 .787.094 1.527 1.527 0 0 1 .529.272 1.028 1.028 0 0 1 .3.431 1.557 1.557 0 0 1 .094.564 1.944 1.944 0 0 1-.09.6 1.227 1.227 0 0 1-.3.489 1.4 1.4 0 0 1-.529.337 2.21 2.21 0 0 1-.792.123z" class="cls-1" data-name="Subtraction 19" transform="translate(-19701.844 -15677)"/>
</svg>
