<svg xmlns="http://www.w3.org/2000/svg" width="42" height="56" viewBox="0 0 42 56">
    <defs>
        <style>
            .cls-1,.cls-2{fill:#8f7757}.cls-1{opacity:.05}.cls-3{opacity:.5}.cls-4{fill:none}
        </style>
    </defs>
    <g id="jpeg" transform="translate(.001)">
        <g id="Group_13-6">
            <g id="Group_12-6">
                <path id="Path_29-6" d="M41.6 15.1L26.637.4a1.217 1.217 0 0 0-.9-.4H4.689A4.6 4.6 0 0 0 0 4.6v46.9A4.585 4.585 0 0 0 4.689 56h32.622A4.733 4.733 0 0 0 42 51.4V15.8a1.613 1.613 0 0 0-.4-.7zM26.936 3.8l11.173 11H29.33a2.366 2.366 0 0 1-2.394-2.4V3.8z" class="cls-1"/>
                <path id="Path_28-6" d="M41.6 15.1L26.637.4a1.217 1.217 0 0 0-.9-.4H4.689A4.6 4.6 0 0 0 0 4.6v46.9A4.585 4.585 0 0 0 4.689 56h32.622A4.733 4.733 0 0 0 42 51.4V15.8a1.613 1.613 0 0 0-.4-.7zM26.936 3.8l11.173 11H29.33a2.366 2.366 0 0 1-2.394-2.4V3.8zm12.67 47.6a2.431 2.431 0 0 1-2.394 2.4H4.689a2.366 2.366 0 0 1-2.394-2.4V4.6a2.431 2.431 0 0 1 2.394-2.4h19.952v10.2A4.669 4.669 0 0 0 29.33 17h10.375z" class="cls-2"/>
                <g id="picture" transform="translate(5.001 14.19)">
                    <g id="Path_1103" class="cls-3">
                        <path id="Path_1129" d="M76.5 115.4a2.255 2.255 0 1 0 2.2-2.4 2.31 2.31 0 0 0-2.2 2.4zm5.5 11.2H64l4.5-13 6 8.1 3-2.4z" class="cls-4" data-name="Path 1129" transform="translate(-64 -113)"/>
                        <path id="Path_1130" d="M78.7 114.5a.929.929 0 1 0 .7.9c0-.5-.2-.9-.7-.9m-9.7 2.2l-2.9 8.3h13.2l-2.2-3.6-1.7 1.4-1.2 1-.9-1.3-4.3-5.8m9.7-3.7a2.409 2.409 0 1 1-2.2 2.4 2.333 2.333 0 0 1 2.2-2.4zm-10.2.5l6 8.1 3-2.4 4.5 7.3H64z" class="cls-2" data-name="Path 1130" transform="translate(-64 -113)"/>
                    </g>
                </g>
            </g>
        </g>
        <g id="Group_1361" data-name="Group 1361" transform="translate(5.602 39)">
            <path id="Path_1131" d="M73.4 45.5a.764.764 0 0 1 .2-.5 1.072 1.072 0 0 1 .6-.2 1.421 1.421 0 0 1 .6.2c.2.1.2.3.2.5a.764.764 0 0 1-.2.5.845.845 0 0 1-.6.2 1.421 1.421 0 0 1-.6-.2.764.764 0 0 1-.2-.5z" class="cls-2" data-name="Path 1131" transform="translate(-73.4 -39)"/>
            <path id="Path_1132" d="M79.2 39.1h1.5V44a2.133 2.133 0 0 1-.3 1.2 3.043 3.043 0 0 1-.8.8 2.375 2.375 0 0 1-1.2.3 2.61 2.61 0 0 1-1.8-.6 2.111 2.111 0 0 1-.6-1.6h1.5a1.884 1.884 0 0 0 .2.8c.1.2.4.2.7.2a.908.908 0 0 0 .7-.3 1.077 1.077 0 0 0 .2-.8v-4.9z" class="cls-2" data-name="Path 1132" transform="translate(-73.4 -39)"/>
            <path id="Path_1133" d="M83.4 43.7v2.5h-1.5v-7.1h2.8a3.194 3.194 0 0 1 1.4.3 2.361 2.361 0 0 1 .9.8 2.663 2.663 0 0 1 .3 1.2 1.865 1.865 0 0 1-.7 1.6 2.986 2.986 0 0 1-2 .6h-1.2zm0-1.2h1.3a1.222 1.222 0 0 0 .9-.3.984.984 0 0 0 .3-.8 1.032 1.032 0 0 0-1.1-1.1h-1.3v2.2z" class="cls-2" data-name="Path 1133" transform="translate(-73.4 -39)"/>
            <path id="Path_1134" d="M92.7 43.1h-2.8V45h3.3v1.2h-4.8v-7.1h4.8v1.2h-3.3V42h2.8z" class="cls-2" data-name="Path 1134" transform="translate(-73.4 -39)"/>
            <path id="Path_1135" d="M99.6 45.3a2.1 2.1 0 0 1-1.1.7 4.146 4.146 0 0 1-1.6.3 2.726 2.726 0 0 1-1.6-.4 3.179 3.179 0 0 1-1.1-1.2 3.424 3.424 0 0 1-.4-1.8v-.5a3.424 3.424 0 0 1 .4-1.8 2.587 2.587 0 0 1 2.6-1.6 3.173 3.173 0 0 1 2 .6 2.2 2.2 0 0 1 .8 1.8h-1.4a1.884 1.884 0 0 0-.4-.9 1.222 1.222 0 0 0-.9-.3 1.149 1.149 0 0 0-1.1.6 3.53 3.53 0 0 0-.4 1.7v.5a2.861 2.861 0 0 0 .4 1.7 1.425 1.425 0 0 0 1.2.6 1.594 1.594 0 0 0 1.2-.4v-1.2h-1.3v-1.1h2.8v2.7z" class="cls-2" data-name="Path 1135" transform="translate(-73.4 -39)"/>
        </g>
    </g>
</svg>
