<svg xmlns="http://www.w3.org/2000/svg" width="21" height="15" viewBox="0 0 21 15">
    <defs>
        <style>
            .cls-1{fill:#f5f5f5}.cls-2{fill:#ff4b55}.cls-3{fill:#41479b}.cls-4{fill:#464655}
        </style>
    </defs>
    <g id="korea" transform="translate(0 -88.275)">
        <path id="Path_806" d="M19.427 88.275H1.573A1.648 1.648 0 0 0 0 89.99v11.57a1.648 1.648 0 0 0 1.573 1.715h17.854A1.648 1.648 0 0 0 21 101.56V89.99a1.648 1.648 0 0 0-1.573-1.715z" class="cls-1" data-name="Path 806"/>
        <g id="Group_1149" data-name="Group 1149" transform="translate(-.038 .522)">
            <path id="Path_807" d="M180.525 168.338a3.594 3.594 0 0 0-5.019 1.018 1.846 1.846 0 0 0 .5 2.542 1.794 1.794 0 0 0 2.509-.509 1.8 1.8 0 0 1 2.509-.509 1.846 1.846 0 0 1 .5 2.542 3.7 3.7 0 0 0-1-5.083" class="cls-2" data-name="Path 807" transform="translate(-167.976 -76.121)"/>
            <path id="Path_808" d="M168.412 207.038a1.849 1.849 0 0 0 .5 2.548 1.8 1.8 0 0 0 2.519-.51 1.807 1.807 0 0 1 2.52-.51 1.848 1.848 0 0 1 .5 2.548 3.606 3.606 0 0 1-5.039 1.02 3.7 3.7 0 0 1-1.007-5.1" class="cls-3" data-name="Path 808" transform="translate(-160.872 -113.847)"/>
            <g id="Group_1148" data-name="Group 1148" transform="translate(3.538 89.753)">
                <path id="Path_809" d="M338.244 147.3l.658.989a.181.181 0 0 1-.05.251l-.167.112a.181.181 0 0 1-.251-.05l-.659-.988a.181.181 0 0 1 .05-.251l.168-.112a.181.181 0 0 1 .251.049z" class="cls-4" data-name="Path 809" transform="translate(-327.369 -146.281)"/>
                <path id="Path_810" d="M363 184.468l.66.988a.181.181 0 0 1-.051.252l-.168.111a.181.181 0 0 1-.25-.05l-.659-.987a.181.181 0 0 1 .05-.251l.167-.112a.181.181 0 0 1 .251.049z" class="cls-4" data-name="Path 810" transform="translate(-351.095 -181.871)"/>
                <path id="Path_811" d="M355.386 135.845l1.675 2.513a.181.181 0 0 1-.05.251l-.168.112a.181.181 0 0 1-.251-.05l-1.675-2.513a.181.181 0 0 1 .05-.251l.169-.112a.181.181 0 0 1 .25.05z" class="cls-4" data-name="Path 811" transform="translate(-343.792 -135.295)"/>
                <path id="Path_812" d="M372.524 124.4l.659.99a.181.181 0 0 1-.051.251l-.168.111a.181.181 0 0 1-.25-.051l-.66-.989a.181.181 0 0 1 .05-.251l.168-.112a.181.181 0 0 1 .252.051z" class="cls-4" data-name="Path 812" transform="translate(-360.228 -124.321)"/>
                <path id="Path_813" d="M397.3 161.643l.658.988a.181.181 0 0 1-.05.251l-.167.112a.181.181 0 0 1-.251-.05l-.658-.988a.181.181 0 0 1 .05-.251l.167-.112a.181.181 0 0 1 .251.05z" class="cls-4" data-name="Path 813" transform="translate(-383.992 -160.035)"/>
                <path id="Path_814" d="M121.045 292.1l1.674 2.51a.181.181 0 0 1-.05.251l-.168.112a.181.181 0 0 1-.251-.05l-1.674-2.51a.181.181 0 0 1 .05-.251l.168-.112a.181.181 0 0 1 .251.05z" class="cls-4" data-name="Path 814" transform="translate(-119.139 -284.94)"/>
                <path id="Path_815" d="M103.909 303.545l.657.986a.181.181 0 0 1-.05.251l-.167.112a.181.181 0 0 1-.251-.05l-.658-.986a.181.181 0 0 1 .05-.251l.168-.112a.181.181 0 0 1 .251.05z" class="cls-4" data-name="Path 815" transform="translate(-102.706 -295.961)"/>
                <path id="Path_816" d="M128.673 340.717l.658.989a.181.181 0 0 1-.05.251l-.167.112a.181.181 0 0 1-.251-.05l-.659-.988a.181.181 0 0 1 .05-.251l.168-.112a.181.181 0 0 1 .251.049z" class="cls-4" data-name="Path 816" transform="translate(-126.454 -331.566)"/>
                <path id="Path_817" d="M86.755 314.99l1.673 2.511a.181.181 0 0 1-.05.251l-.167.112a.181.181 0 0 1-.251-.05l-1.674-2.51a.181.181 0 0 1 .05-.251l.168-.112a.181.181 0 0 1 .251.049z" class="cls-4" data-name="Path 817" transform="translate(-86.255 -306.894)"/>
                <path id="Path_818" d="M120.584 149.81l1.674-2.512a.181.181 0 0 1 .251-.05l.168.112a.181.181 0 0 1 .05.251l-1.675 2.511a.181.181 0 0 1-.251.05l-.167-.111a.181.181 0 0 1-.05-.251z" class="cls-4" data-name="Path 818" transform="translate(-119.146 -146.278)"/>
                <path id="Path_819" d="M103.436 138.366l1.674-2.513a.181.181 0 0 1 .251-.05l.167.112a.181.181 0 0 1 .05.251l-1.674 2.513a.181.181 0 0 1-.251.05l-.168-.112a.181.181 0 0 1-.049-.251z" class="cls-4" data-name="Path 819" transform="translate(-102.702 -135.303)"/>
                <path id="Path_820" d="M86.281 126.922l1.675-2.515a.181.181 0 0 1 .251-.05l.167.112a.181.181 0 0 1 .05.251l-1.674 2.516a.181.181 0 0 1-.251.05l-.168-.112a.181.181 0 0 1-.05-.252z" class="cls-4" data-name="Path 820" transform="translate(-86.251 -124.326)"/>
                <path id="Path_821" d="M337.78 330.256l.658-.986a.181.181 0 0 1 .251-.05l.167.112a.181.181 0 0 1 .05.251l-.657.986a.181.181 0 0 1-.251.05l-.168-.112a.181.181 0 0 1-.05-.251z" class="cls-4" data-name="Path 821" transform="translate(-327.373 -320.589)"/>
                <path id="Path_822" d="M362.534 293.09l.659-.991a.181.181 0 0 1 .251-.05l.168.112a.181.181 0 0 1 .05.251l-.662.988a.181.181 0 0 1-.251.05l-.167-.11a.181.181 0 0 1-.048-.25z" class="cls-4" data-name="Path 822" transform="translate(-351.098 -284.994)"/>
                <path id="Path_823" d="M354.915 341.7l.659-.988a.181.181 0 0 1 .251-.05l.168.112a.181.181 0 0 1 .05.251l-.658.988a.181.181 0 0 1-.251.05l-.169-.112a.181.181 0 0 1-.05-.251z" class="cls-4" data-name="Path 823" transform="translate(-343.792 -331.563)"/>
                <path id="Path_824" d="M379.689 304.526l.659-.986a.181.181 0 0 1 .251-.05l.168.112a.181.181 0 0 1 .05.251l-.659.986a.181.181 0 0 1-.251.05l-.168-.112a.181.181 0 0 1-.05-.251z" class="cls-4" data-name="Path 824" transform="translate(-367.549 -295.956)"/>
                <path id="Path_825" d="M372.057 353.13l.659-.987a.181.181 0 0 1 .25-.05l.168.111a.181.181 0 0 1 .051.251l-.659.988a.181.181 0 0 1-.251.05l-.168-.112a.181.181 0 0 1-.05-.251z" class="cls-4" data-name="Path 825" transform="translate(-360.23 -342.524)"/>
                <path id="Path_826" d="M396.844 315.985l.656-.985a.181.181 0 0 1 .251-.05l.167.112a.181.181 0 0 1 .05.251l-.658.987a.181.181 0 0 1-.251.05l-.167-.11a.181.181 0 0 1-.048-.255z" class="cls-4" data-name="Path 826" transform="translate(-384 -306.901)"/>
            </g>
        </g>
    </g>
</svg>
