<svg xmlns="http://www.w3.org/2000/svg" id="line_disabled" width="50" height="50" viewBox="0 0 50 50">
    <defs>
        <style>
            .cls-1{fill:#9e9e9e}.cls-2{fill:#fff}.cls-3{fill:#9f9f9f}
        </style>
    </defs>
    <g id="Group_956" data-name="Group 956" transform="translate(52.5 15)">
        <rect id="Rectangle_87" width="50" height="50" class="cls-1" data-name="Rectangle 87" rx="5" transform="translate(-52.5 -15)"/>
        <g id="Group_970" data-name="Group 970" transform="translate(-508.039 551.798)">
            <path id="path7964" d="M-187-75.272c0-7.044-6.729-12.775-15-12.775s-15 5.731-15 12.775c0 6.315 5.336 11.6 12.545 12.6.489.11 1.153.338 1.322.776a3.389 3.389 0 0 1 .048 1.424l-.214 1.348c-.065.4-.3 1.557 1.3.849s8.639-5.338 11.786-9.14A11.651 11.651 0 0 0-187-75.272" class="cls-2" transform="translate(682.535 -468.751)"/>
            <g id="Group_1082" data-name="Group 1082">
                <path id="path7968" d="M-8.1 0h-1.272a.353.353 0 0 0-.353.352v7.9a.353.353 0 0 0 .353.352H-8.1a.353.353 0 0 0 .353-.352v-7.9A.353.353 0 0 0-8.1 0" class="cls-3" transform="translate(485.055 -548.01)"/>
                <path id="path7972" d="M-35.709 0h-1.271a.353.353 0 0 0-.353.352v4.693l-3.62-4.888a.391.391 0 0 0-.027-.036L-41 .1l-.007-.006-.019-.016-.009-.007-.018-.013-.011-.006-.019-.011-.017-.008-.02-.009h-.011l-.019-.01h-.032L-41.2 0h-1.319a.353.353 0 0 0-.353.352v7.9a.353.353 0 0 0 .353.352h1.271a.353.353 0 0 0 .353-.352V3.559l3.624 4.894a.35.35 0 0 0 .09.087l.022.013.01.005.017.008.017.007h.01l.024.008h.005a.352.352 0 0 0 .09.012h1.271a.352.352 0 0 0 .353-.352V.352A.353.353 0 0 0-35.709 0" class="cls-3" transform="translate(521.239 -548.01)"/>
                <path id="path7976" d="M-27.084-33.033h-3.455V-39.3a.353.353 0 0 0-.353-.353h-1.272a.353.353 0 0 0-.353.353v7.9a.351.351 0 0 0 .1.244v.005h.005a.35.35 0 0 0 .244.1h5.079a.353.353 0 0 0 .352-.353v-1.276a.352.352 0 0 0-.352-.353" class="cls-3" transform="translate(501.333 -508.352)"/>
                <path id="path7980" d="M-27.084-9.861a.352.352 0 0 0 .352-.353v-1.271a.353.353 0 0 0-.352-.353h-5.08a.35.35 0 0 0-.245.1l-.006.006a.351.351 0 0 0-.1.243v7.9a.351.351 0 0 0 .1.244v.005h.005a.351.351 0 0 0 .244.1h5.08a.353.353 0 0 0 .352-.353v-1.268a.353.353 0 0 0-.352-.353h-3.454v-1.335h3.454a.352.352 0 0 0 .352-.353v-1.271a.353.353 0 0 0-.352-.353h-3.454v-1.335z" class="cls-3" transform="translate(519.218 -536.171)"/>
            </g>
        </g>
    </g>
</svg>
