<svg xmlns="http://www.w3.org/2000/svg" width="18" height="18" viewBox="0 0 18 18">
    <defs>
        <style>
            .cls-1{opacity:.5}.cls-2{fill:#fff}
        </style>
    </defs>
    <g id="logout_menu" class="cls-1">
        <g id="Group_5" data-name="Group 5">
            <g id="Group_4" data-name="Group 4">
                <path id="Path_15" d="M306.134 152.056a.76.76 0 0 0-.163-.245l-2.253-2.253a.751.751 0 1 0-1.062 1.062l.971.971h-4.2a.751.751 0 0 0 0 1.5h4.2l-.971.971a.751.751 0 1 0 1.062 1.062l2.253-2.253a.744.744 0 0 0 .163-.245.752.752 0 0 0 0-.57z" class="cls-2" data-name="Path 15" transform="translate(-288.191 -144.093)"/>
                <path id="Path_16" d="M12.758 10.5a.75.75 0 0 0-.75.75V15h-3V3a.751.751 0 0 0-.535-.718L5.872 1.5h6.137v3.75a.75.75 0 1 0 1.5 0V.75a.75.75 0 0 0-.75-.75H.764a.668.668 0 0 0-.078.014.74.74 0 0 0-.317.111C.352.136.332.136.316.148S.308.161.3.166A.743.743 0 0 0 .1.4a.613.613 0 0 0-.019.066.712.712 0 0 0-.059.175.467.467 0 0 0 0 .065C.024.722.014.735.014.75v15a.749.749 0 0 0 .6.735l7.5 1.5A.7.7 0 0 0 8.26 18a.75.75 0 0 0 .75-.75v-.75h3.748a.75.75 0 0 0 .75-.75v-4.5a.75.75 0 0 0-.75-.75z" class="cls-2" data-name="Path 16" transform="translate(-.014)"/>
            </g>
        </g>
    </g>
</svg>
