<svg xmlns="http://www.w3.org/2000/svg" id="logout_header" width="16" height="16" viewBox="0 0 16 16">
    <defs>
        <style>
            .cls-1{fill:#9ea0a5}
        </style>
    </defs>
    <g id="Group_5" data-name="Group 5">
        <g id="Group_4" data-name="Group 4">
            <path id="Path_15" d="M305.285 151.747a.673.673 0 0 0-.144-.217l-2-2a.666.666 0 1 0-.941.941l.861.861h-3.718a.666.666 0 0 0 0 1.331h3.718l-.861.861a.666.666 0 1 0 .941.941l2-2a.66.66 0 0 0 .144-.217.666.666 0 0 0 0-.501z" class="cls-1" data-name="Path 15" transform="translate(-289.336 -144.669)"/>
            <path id="Path_16" d="M11.354 9.333a.667.667 0 0 0-.667.667v3.333H8.019V2.667a.667.667 0 0 0-.476-.639l-2.317-.695h5.46v3.334a.667.667 0 0 0 1.334 0v-4A.667.667 0 0 0 11.354 0H.681a.6.6 0 0 0-.069.013.659.659 0 0 0-.283.1C.315.121.3.121.283.132S.275.143.27.147a.661.661 0 0 0-.177.211.544.544 0 0 0-.019.056.632.632 0 0 0-.053.156.415.415 0 0 0 0 .058C.023.641.014.653.014.667V14a.666.666 0 0 0 .536.653l6.67 1.333a.621.621 0 0 0 .131.014.667.667 0 0 0 .667-.667v-.667h3.335a.667.667 0 0 0 .668-.666v-4a.667.667 0 0 0-.667-.667z" class="cls-1" data-name="Path 16" transform="translate(-.014)"/>
        </g>
    </g>
</svg>
