<svg xmlns="http://www.w3.org/2000/svg" width="43" height="50" viewBox="0 0 43 50">
    <defs>
        <style>
            .cls-1{fill:#775649}.cls-2{fill:#84665a}.cls-3{fill:#41302a}.cls-4{fill:#f6f4f3}.cls-5{fill:#e2dad7}
        </style>
    </defs>
    <g id="mail_password" data-name="mail password" transform="translate(-10000.596 -1141.354)">
        <g id="padlock" transform="translate(10000.596 1141.354)">
            <path id="Path_831" d="M38.573 196.923h36.746a3.135 3.135 0 0 1 3.127 3.125v24.219a3.135 3.135 0 0 1-3.127 3.125H38.573a3.135 3.135 0 0 1-3.127-3.125v-24.219a3.135 3.135 0 0 1 3.127-3.125z" class="cls-1" data-name="Path 831" transform="translate(-35.446 -177.392)"/>
            <path id="Path_832" d="M38.573 181.169h36.746a3.135 3.135 0 0 1 3.127 3.125v1.563a3.135 3.135 0 0 1-3.127 3.125H38.573a3.135 3.135 0 0 1-3.127-3.125v-1.563a3.135 3.135 0 0 1 3.127-3.125z" class="cls-2" data-name="Path 832" transform="translate(-35.446 -163.2)"/>
            <path id="Path_833" d="M82.287 204.8c-1.955 0-3.518.7-3.518 1.563s1.564 1.562 3.518 1.562 3.518-.7 3.518-1.562-1.563-1.563-3.518-1.563zm27.364 0c-1.955 0-3.518.7-3.518 1.563s1.564 1.562 3.518 1.562 3.518-.7 3.518-1.562-1.564-1.563-3.518-1.563zm-13.682 11.719a5.859 5.859 0 1 1-5.864 5.859 5.854 5.854 0 0 1 5.864-5.859z" class="cls-3" data-name="Path 833" transform="translate(-74.469 -184.488)"/>
            <path id="Path_834" d="M213.039 338.708a4.3 4.3 0 1 1-4.3 4.3 4.286 4.286 0 0 1 4.3-4.3z" class="cls-4" data-name="Path 834" transform="translate(-191.539 -305.114)"/>
            <path id="Path_835" d="M244.967 362.338a.784.784 0 0 1 .782.781v2.344a.782.782 0 0 1-1.564 0v-2.344a.784.784 0 0 1 .782-.781z" class="cls-3" data-name="Path 835" transform="translate(-223.467 -326.401)"/>
            <path id="Path_836" d="M103.064 0a16.41 16.41 0 0 0-16.418 16.406v4.688c0 .859 1.212 1.563 2.736 1.563s2.736-.7 2.736-1.563v-4.688a10.945 10.945 0 0 1 21.891 0v4.688c0 .859 1.212 1.563 2.736 1.563s2.736-.7 2.736-1.563v-4.688A16.41 16.41 0 0 0 103.064 0z" class="cls-4" data-name="Path 836" transform="translate(-81.564)"/>
            <path id="Path_837" d="M131.445 31.508a13.275 13.275 0 0 0-13.291 13.281v6.25c1.329-.117 2.345-.742 2.345-1.563v-4.687a10.945 10.945 0 0 1 21.891 0v4.688c0 .781 1.016 1.445 2.345 1.563v-6.25a13.275 13.275 0 0 0-13.29-13.282z" class="cls-5" data-name="Path 837" transform="translate(-109.945 -28.383)"/>
        </g>
    </g>
</svg>
