<svg xmlns="http://www.w3.org/2000/svg" width="4" height="15" viewBox="0 0 4 15">
    <defs>
        <style>
            .cls-1{fill:#fff}
        </style>
    </defs>
    <path id="more_menu_active" d="M1.875 0A1.946 1.946 0 0 0 0 2a1.946 1.946 0 0 0 1.875 2A1.946 1.946 0 0 0 3.75 2a1.946 1.946 0 0 0-1.875-2zm11.25 0a1.946 1.946 0 0 0-1.875 2 1.946 1.946 0 0 0 1.875 2A1.946 1.946 0 0 0 15 2a1.946 1.946 0 0 0-1.875-2zM7.5 0a1.946 1.946 0 0 0-1.875 2A1.946 1.946 0 0 0 7.5 4a1.946 1.946 0 0 0 1.875-2A1.946 1.946 0 0 0 7.5 0z" class="cls-1" transform="rotate(90 2 2)"/>
</svg>
