<svg xmlns="http://www.w3.org/2000/svg" width="11" height="16" viewBox="0 0 11 16">
    <defs>
        <style>
            .cls-1{fill:#775649}
        </style>
    </defs>
    <path id="name_active" d="M8 16H3a3 3 0 0 1-3-3v-2a2.961 2.961 0 0 1 1.148-2.34 5.713 5.713 0 0 0 1.888 1.7 5.08 5.08 0 0 0 4.927 0 5.71 5.71 0 0 0 1.888-1.7A2.961 2.961 0 0 1 11 11v2a3 3 0 0 1-3 3zm-2.5-6A4.775 4.775 0 0 1 1 5a4.775 4.775 0 0 1 4.5-5A4.775 4.775 0 0 1 10 5a4.775 4.775 0 0 1-4.5 5z" class="cls-1"/>
</svg>
