<svg xmlns="http://www.w3.org/2000/svg" width="18" height="18" viewBox="0 0 18 18">
    <defs>
        <style>
            .cls-1{fill:#775649}
        </style>
    </defs>
    <path id="name_sign_active" d="M9 18H3.375A3.379 3.379 0 0 1 0 14.625v-2.25a3.331 3.331 0 0 1 1.292-2.633 6.429 6.429 0 0 0 2.124 1.916 5.715 5.715 0 0 0 5.542 0 6.426 6.426 0 0 0 2.124-1.916 3.331 3.331 0 0 1 1.292 2.633v2.25A3.379 3.379 0 0 1 9 18zm8.437-3.375h-3.375a.562.562 0 0 1 0-1.125h3.375a.562.562 0 1 1 0 1.125zm0-3.375h-3.375a.562.562 0 1 1 0-1.125h3.375a.562.562 0 1 1 0 1.125zm-11.25 0a5.372 5.372 0 0 1-5.062-5.625A5.372 5.372 0 0 1 6.187 0a5.372 5.372 0 0 1 5.063 5.625 5.372 5.372 0 0 1-5.063 5.625zm11.25-3.375h-4.5a.563.563 0 1 1 0-1.125h4.5a.563.563 0 1 1 0 1.125zm0-3.375h-4.5a.562.562 0 1 1 0-1.125h4.5a.562.562 0 1 1 0 1.125z" class="cls-1"/>
</svg>
