<svg xmlns="http://www.w3.org/2000/svg" width="16" height="20.002" viewBox="0 0 16 20.002">
    <defs>
        <style>
            .cls-1{fill:#9ea0a5}
        </style>
    </defs>
    <g id="notification" transform="translate(-93 -111)">
        <path id="Path_1208" d="M175.207 404.514v.016a2.372 2.372 0 0 0 4.743 0v-.016z" class="cls-1" data-name="Path 1208" transform="translate(-76.578 -275.899)"/>
        <path id="Path_1209" d="M67.3 14.65l-2.2-3.135V7.6a5.484 5.484 0 0 0-4.507-5.333v-1.2a1.1 1.1 0 0 0-2.2 0v1.2A5.484 5.484 0 0 0 53.887 7.6v3.912l-2.2 3.135a1.051 1.051 0 0 0-.064 1.111 1.117 1.117 0 0 0 .983.574h13.776a1.117 1.117 0 0 0 .983-.574 1.051 1.051 0 0 0-.065-1.108z" class="cls-1" data-name="Path 1209" transform="translate(41.507 111)"/>
    </g>
</svg>
