<svg xmlns="http://www.w3.org/2000/svg" width="50" height="50" viewBox="0 0 50 50">
    <defs>
        <style>
            .cls-1{fill:#fff;stroke:#e3e5e8;stroke-width:2px}.cls-2{fill:url(#linear-gradient)}.cls-3{stroke:none}.cls-4{fill:none}
        </style>
        <linearGradient id="linear-gradient" x1="1.317" x2="0" y1=".859" y2=".838" gradientUnits="objectBoundingBox">
            <stop offset="0" stop-color="#03488c"/>
            <stop offset="1" stop-color="#3069a1"/>
        </linearGradient>
    </defs>
    <g id="onedrive">
        <g id="Rectangle_87" class="cls-1" data-name="Rectangle 87">
            <rect width="50" height="50" class="cls-3" rx="5"/>
            <rect width="48" height="48" x="1" y="1" class="cls-4" rx="4"/>
        </g>
        <g id="onedrive-2" data-name="onedrive" transform="translate(10 15)">
            <g id="Group_1014" data-name="Group 1014">
                <g id="Group_1013" data-name="Group 1013">
                    <path id="Path_763" d="M16.27 85.5a7.048 7.048 0 0 0-1.258.113 6.968 6.968 0 0 0-3.794 2.04 5.983 5.983 0 0 0-7.083 5.058 4.961 4.961 0 0 0 .554 9.846 6.161 6.161 0 0 1 3.357-7.026 7.918 7.918 0 0 1 7.83-6.747 7.844 7.844 0 0 1 4.99 1.769q.18-.009.361-.009a7.02 7.02 0 0 1 1.831.243A7.014 7.014 0 0 0 16.27 85.5z" class="cls-2" data-name="Path 763" transform="translate(0 -85.5)"/>
                </g>
            </g>
            <g id="Group_1016" data-name="Group 1016" transform="translate(6.25 5.043)">
                <g id="Group_1015" data-name="Group 1015">
                    <path id="Path_764" d="M127.17 177.734a5.279 5.279 0 0 0-6.17-4.388 6.157 6.157 0 0 0-10.554 4.311v.1a4.4 4.4 0 0 0 .952 8.693h14.954a4.4 4.4 0 0 0 .819-8.72z" class="cls-2" data-name="Path 764" transform="translate(-107 -171.5)"/>
                </g>
            </g>
        </g>
    </g>
</svg>
