<svg xmlns="http://www.w3.org/2000/svg" width="18" height="18" viewBox="0 0 18 18">
    <defs>
        <style>
            .cls-1{fill:#ef634c}
        </style>
    </defs>
    <path id="paperclip_sign" d="M6.69 12.207a.745.745 0 0 0 .483.207.626.626 0 0 0 .483-.207L14 5.862a.63.63 0 0 1 .483-.207.652.652 0 0 1 .69.69.626.626 0 0 1-.207.483l-7.518 7.517a2.877 2.877 0 0 1-3.931 0 2.723 2.723 0 0 1-.828-1.931 2.61 2.61 0 0 1 .828-1.931l8.345-8.345a.667.667 0 0 0 0-.966L10.9.207a.667.667 0 0 0-.966 0L1.586 8.552A5.467 5.467 0 0 0 0 12.483a5.585 5.585 0 0 0 1.586 3.931A5.467 5.467 0 0 0 5.517 18a5.585 5.585 0 0 0 3.931-1.586L16.966 8.9A3.512 3.512 0 0 0 18 6.483a3.415 3.415 0 0 0-3.448-3.448 3.235 3.235 0 0 0-2.414 1.034l-6.345 6.345a.667.667 0 0 0 0 .966z" class="cls-1"/>
</svg>
