<svg xmlns="http://www.w3.org/2000/svg" width="42" height="56" viewBox="0 0 42 56">
    <defs>
        <style>
            .cls-1,.cls-2,.cls-3{fill:#97462d}.cls-1{opacity:.05}.cls-3{opacity:.5}
        </style>
    </defs>
    <g id="pdf" transform="translate(-.001)">
        <g id="Group_13">
            <g id="Group_12">
                <path id="Path_29" d="M41.6 15.1L26.637.4a1.217 1.217 0 0 0-.9-.4H4.689A4.6 4.6 0 0 0 0 4.6v46.9A4.585 4.585 0 0 0 4.689 56h32.622A4.733 4.733 0 0 0 42 51.4V15.8a1.613 1.613 0 0 0-.4-.7zM26.936 3.8l11.173 11H29.33a2.366 2.366 0 0 1-2.394-2.4V3.8z" class="cls-1"/>
                <path id="Path_28" d="M41.6 15.1L26.637.4a1.217 1.217 0 0 0-.9-.4H4.689A4.6 4.6 0 0 0 0 4.6v46.9A4.585 4.585 0 0 0 4.689 56h32.622A4.733 4.733 0 0 0 42 51.4V15.8a1.613 1.613 0 0 0-.4-.7zM26.936 3.8l11.173 11H29.33a2.366 2.366 0 0 1-2.394-2.4V3.8zm12.67 47.6a2.431 2.431 0 0 1-2.394 2.4H4.689a2.366 2.366 0 0 1-2.394-2.4V4.6a2.431 2.431 0 0 1 2.394-2.4h19.952v10.2A4.669 4.669 0 0 0 29.33 17h10.375v34.4z" class="cls-2"/>
            </g>
        </g>
        <g id="Group_1356" data-name="Group 1356" transform="translate(5.702 38.4)">
            <path id="Path_1106" d="M73.5 45.4a.864.864 0 0 1 .3-.6.735.735 0 0 1 .6-.2.845.845 0 0 1 .6.2.735.735 0 0 1 .2.6 1.421 1.421 0 0 1-.2.6c-.1.2-.4.2-.6.2a.845.845 0 0 1-.6-.2.855.855 0 0 1-.3-.6z" class="cls-2" data-name="Path 1106" transform="translate(-73.5 -38.4)"/>
            <path id="Path_1107" d="M78.3 43.5v2.8h-1.6v-7.8h3.1a3.339 3.339 0 0 1 1.5.3 2.189 2.189 0 0 1 1 .9 2.891 2.891 0 0 1 .4 1.4 2.2 2.2 0 0 1-.8 1.8 3.606 3.606 0 0 1-2.2.7h-1.4zm0-1.4h1.4a1.493 1.493 0 0 0 1-.3 1.5 1.5 0 0 0 0-1.8 1.268 1.268 0 0 0-.9-.4h-1.5z" class="cls-2" data-name="Path 1107" transform="translate(-73.5 -38.4)"/>
            <path id="Path_1108" d="M83.8 46.2v-7.8h2.4a3.453 3.453 0 0 1 1.8.5 4.036 4.036 0 0 1 1.3 1.3 3.83 3.83 0 0 1 .5 1.9v.4a3.807 3.807 0 0 1-.4 1.9 2.735 2.735 0 0 1-1.3 1.3 4.075 4.075 0 0 1-1.8.5h-2.5zm1.6-6.5v5.2h.8a1.678 1.678 0 0 0 1.4-.6 2.969 2.969 0 0 0 .5-1.8v-.4a2.969 2.969 0 0 0-.5-1.8 1.678 1.678 0 0 0-1.4-.6h-.8z" class="cls-2" data-name="Path 1108" transform="translate(-73.5 -38.4)"/>
            <path id="Path_1109" d="M95.6 43h-3.1v3.2h-1.6v-7.8H96v1.3h-3.5v2h3.1z" class="cls-2" data-name="Path 1109" transform="translate(-73.5 -38.4)"/>
        </g>
        <path id="Path_1052" d="M74.4 32a2.354 2.354 0 0 1-.8-.2 1.965 1.965 0 0 1-.9-1.7c.1-1.2 1.7-2.5 4.7-3.8a56.026 56.026 0 0 0 3-8.1c-.8-1.6-1.5-3.8-1-5a1.352 1.352 0 0 1 .9-.9 2.2 2.2 0 0 1 .8-.1c.4 0 .7.5 1 .8.2.3.8.9-.3 5.2a22.556 22.556 0 0 0 4 5.7 11.529 11.529 0 0 1 2.6-.3c1.2 0 2 .3 2.3.8a1.525 1.525 0 0 1-.3 1.6 1.965 1.965 0 0 1-1.7.9 5.853 5.853 0 0 1-3.3-1.7 39.409 39.409 0 0 0-6.9 2.1 15 15 0 0 1-1.9 3.2c-.8 1-1.5 1.5-2.2 1.5zm2.1-3.9c-1.7.9-2.3 1.7-2.4 2.1a.544.544 0 0 0 .3.5c.2 0 .8-.3 2.1-2.6zm10.6-3.3c.6.5.8.7 1.2.7a.945.945 0 0 0 1.1-.6 3.139 3.139 0 0 0-.9-.1 3.3 3.3 0 0 0-1.4 0zm-5.8-5a55.388 55.388 0 0 1-2.1 5.7 42.841 42.841 0 0 1 5.1-1.5 31.878 31.878 0 0 1-3-4.2zm-.5-6.4a1.72 1.72 0 0 0 .1 2.4c.8-1.6 0-2.4-.1-2.4z" class="cls-3" transform="translate(-67.798)"/>
    </g>
</svg>
