<svg xmlns="http://www.w3.org/2000/svg" width="41" height="36" viewBox="0 0 41 36">
    <defs>
        <style>
            .cls-1{opacity:.3}.cls-2{fill:#2e221e}
        </style>
    </defs>
    <g id="pencil" class="cls-1">
        <path id="Path_784" d="M21.618 402.273a2.258 2.258 0 0 0 2.236 2.273h5.218a.758.758 0 0 1 0 1.515H0v1.515h29.073a2.273 2.273 0 0 0 0-4.546h-5.218a.758.758 0 0 1 0-1.515H41V400H23.855a2.258 2.258 0 0 0-2.237 2.273zm0 0" class="cls-2" data-name="Path 784" transform="translate(0 -371.576)"/>
        <g id="pencil_4_" data-name="pencil (4)">
            <g id="Pencil-2" data-name="Pencil">
                <g id="Group_1087" data-name="Group 1087">
                    <path id="Path_793" d="M30.276 1.722a5.875 5.875 0 0 0-8.309 0L4.294 19.291a.991.991 0 0 0-.235.367l-4 11A1 1 0 0 0 1 32a.987.987 0 0 0 .293-.044l9.949-3.056a1 1 0 0 0 .414-.248l18.621-18.617a5.874 5.874 0 0 0 0-8.313zM10.092 27.165l-3.724 1.144a4.272 4.272 0 0 0-1.016-1.662A5.4 5.4 0 0 0 4 25.686L5.7 21H8v2a1 1 0 0 0 1 1h1.765zm14.72-14.494L12.628 24.855l.35-1.647A1 1 0 0 0 12 22h-2v-2a1 1 0 0 0-1-1H7.422L19.315 7.175l.012.011a3.878 3.878 0 1 1 5.485 5.485zm4.05-4.05l-.932.933a5.851 5.851 0 0 0-5.49-5.485l.938-.931a3.877 3.877 0 1 1 5.482 5.485zm-6.569-.328l-10 10a1 1 0 1 0 1.414 1.414l10-10a1 1 0 0 0-1.414-1.414z" class="cls-2" data-name="Path 793" transform="translate(.001)"/>
                </g>
            </g>
        </g>
    </g>
</svg>
