<svg xmlns="http://www.w3.org/2000/svg" width="42" height="56" viewBox="0 0 42 56">
    <defs>
        <style>
            .cls-1,.cls-2{fill:#8f8857}.cls-1{opacity:.05}.cls-3{opacity:.5}.cls-4{fill:none}
        </style>
    </defs>
    <g id="png" transform="translate(.001)">
        <g id="Group_13-11">
            <g id="Group_12-11">
                <path id="Path_29-11" d="M41.6 15.1L26.637.4a1.217 1.217 0 0 0-.9-.4H4.689A4.6 4.6 0 0 0 0 4.6v46.9A4.585 4.585 0 0 0 4.689 56h32.622A4.733 4.733 0 0 0 42 51.4V15.8a1.613 1.613 0 0 0-.4-.7zM26.936 3.8l11.173 11H29.33a2.366 2.366 0 0 1-2.394-2.4V3.8z" class="cls-1"/>
                <path id="Path_28-11" d="M41.6 15.1L26.637.4a1.217 1.217 0 0 0-.9-.4H4.689A4.6 4.6 0 0 0 0 4.6v46.9A4.585 4.585 0 0 0 4.689 56h32.622A4.733 4.733 0 0 0 42 51.4V15.8a1.613 1.613 0 0 0-.4-.7zM26.936 3.8l11.173 11H29.33a2.366 2.366 0 0 1-2.394-2.4V3.8zm12.67 47.6a2.431 2.431 0 0 1-2.394 2.4H4.689a2.366 2.366 0 0 1-2.394-2.4V4.6a2.431 2.431 0 0 1 2.394-2.4h19.952v10.2A4.669 4.669 0 0 0 29.33 17h10.375z" class="cls-2"/>
                <g id="picture-3" transform="translate(5.001 14.19)">
                    <g id="Path_1103-3" class="cls-3">
                        <path id="Path_1160" d="M76.5 115.4a2.255 2.255 0 1 0 2.2-2.4 2.31 2.31 0 0 0-2.2 2.4zm5.5 11.2H64l4.5-13 6 8.1 3-2.4z" class="cls-4" data-name="Path 1160" transform="translate(-64 -113)"/>
                        <path id="Path_1161" d="M78.7 114.5a.929.929 0 1 0 .7.9c0-.5-.2-.9-.7-.9m-9.7 2.2l-2.9 8.3h13.2l-2.2-3.6-1.7 1.4-1.2 1-.9-1.3-4.3-5.8m9.7-3.7a2.409 2.409 0 1 1-2.2 2.4 2.333 2.333 0 0 1 2.2-2.4zm-10.2.5l6 8.1 3-2.4 4.5 7.3H64z" class="cls-2" data-name="Path 1161" transform="translate(-64 -113)"/>
                    </g>
                </g>
            </g>
        </g>
        <g id="Group_1366" data-name="Group 1366" transform="translate(5.602 39)">
            <path id="Path_1162" d="M73.4 45.5a.764.764 0 0 1 .2-.5 1.072 1.072 0 0 1 .6-.2 1.421 1.421 0 0 1 .6.2c.2.1.2.3.2.5a.764.764 0 0 1-.2.5.845.845 0 0 1-.6.2 1.421 1.421 0 0 1-.6-.2.764.764 0 0 1-.2-.5z" class="cls-2" data-name="Path 1162" transform="translate(-73.4 -39)"/>
            <path id="Path_1163" d="M77.8 43.7v2.5h-1.5v-7.1h2.8a3.194 3.194 0 0 1 1.4.3 2.361 2.361 0 0 1 .9.8 2.663 2.663 0 0 1 .3 1.2A1.865 1.865 0 0 1 81 43a2.986 2.986 0 0 1-2 .6h-1.2zm0-1.2h1.3a1.222 1.222 0 0 0 .9-.3.984.984 0 0 0 .3-.8 1.032 1.032 0 0 0-1.1-1.1h-1.3v2.2z" class="cls-2" data-name="Path 1163" transform="translate(-73.4 -39)"/>
            <path id="Path_1164" d="M88.6 46.2h-1.5l-2.9-4.7v4.7h-1.5v-7.1h1.5l2.9 4.7v-4.7h1.5z" class="cls-2" data-name="Path 1164" transform="translate(-73.4 -39)"/>
            <path id="Path_1165" d="M95.5 45.3a2.1 2.1 0 0 1-1.1.7 4.146 4.146 0 0 1-1.6.3 2.726 2.726 0 0 1-1.6-.4 3.179 3.179 0 0 1-1.1-1.2 3.424 3.424 0 0 1-.4-1.8v-.5a3.424 3.424 0 0 1 .4-1.8 2.587 2.587 0 0 1 2.6-1.6 3.173 3.173 0 0 1 2 .6 2.2 2.2 0 0 1 .8 1.8H94a1.884 1.884 0 0 0-.4-.9 1.222 1.222 0 0 0-.9-.3 1.149 1.149 0 0 0-1.1.6 3.53 3.53 0 0 0-.4 1.7v.5a2.861 2.861 0 0 0 .4 1.7 1.425 1.425 0 0 0 1.2.6 1.594 1.594 0 0 0 1.2-.4v-1.2h-1.3v-1.1h2.8v2.7z" class="cls-2" data-name="Path 1165" transform="translate(-73.4 -39)"/>
        </g>
    </g>
</svg>
