<svg xmlns="http://www.w3.org/2000/svg" width="42" height="56" viewBox="0 0 42 56">
    <defs>
        <style>
            .cls-1,.cls-2{fill:#b14f25}.cls-1{opacity:.05}.cls-3{opacity:.5}.cls-4{fill:none}
        </style>
    </defs>
    <g id="ppt">
        <g id="Group_13-5">
            <g id="Group_12-5">
                <path id="Path_29-5" d="M41.6 15.1L26.637.4a1.217 1.217 0 0 0-.9-.4H4.689A4.6 4.6 0 0 0 0 4.6v46.9A4.585 4.585 0 0 0 4.689 56h32.622A4.733 4.733 0 0 0 42 51.4V15.8a1.613 1.613 0 0 0-.4-.7zM26.936 3.8l11.173 11H29.33a2.366 2.366 0 0 1-2.394-2.4V3.8z" class="cls-1"/>
                <path id="Path_28-5" d="M41.6 15.1L26.637.4a1.217 1.217 0 0 0-.9-.4H4.689A4.6 4.6 0 0 0 0 4.6v46.9A4.585 4.585 0 0 0 4.689 56h32.622A4.733 4.733 0 0 0 42 51.4V15.8a1.613 1.613 0 0 0-.4-.7zM26.936 3.8l11.173 11H29.33a2.366 2.366 0 0 1-2.394-2.4V3.8zm12.67 47.6a2.431 2.431 0 0 1-2.394 2.4H4.689a2.366 2.366 0 0 1-2.394-2.4V4.6a2.431 2.431 0 0 1 2.394-2.4h19.952v10.2A4.669 4.669 0 0 0 29.33 17h10.375z" class="cls-2"/>
                <g id="Group_1353" class="cls-3" transform="translate(5.199 12.73)">
                    <g id="Path_1097" transform="translate(7.506)">
                        <path id="Path_1122" d="M363.4 117.4a.684.684 0 0 0-.7.7v4.3a.684.684 0 0 0 .7.7h4.3a.684.684 0 0 0 .7-.7 4.951 4.951 0 0 0-5-5z" class="cls-4" data-name="Path 1122" transform="translate(-362.7 -117.4)"/>
                        <path id="Path_1123" d="M364.2 119v2.7h2.7a3.7 3.7 0 0 0-2.7-2.7m-.8-1.6a5.015 5.015 0 0 1 5 5 .684.684 0 0 1-.7.7h-4.3a.684.684 0 0 1-.7-.7v-4.3a.684.684 0 0 1 .7-.7z" class="cls-2" data-name="Path 1123" transform="translate(-362.7 -117.4)"/>
                    </g>
                    <path id="Path_1124" d="M431.9 401a5.78 5.78 0 0 1-.8-11.5l.9-.1v4.4a1.367 1.367 0 0 0 1.4 1.4h4.4l-.1.9a5.947 5.947 0 0 1-4.9 4.9zm-1.4-9.8a4.262 4.262 0 0 0-2.8 4.6 4.2 4.2 0 0 0 4.8 3.6 4.117 4.117 0 0 0 3.4-2.8h-2.6a2.9 2.9 0 0 1-2.9-2.9v-2.5z" class="cls-2" data-name="Path 1124" transform="translate(-425.2 -388.729)"/>
                    <path id="Path_1101" d="M439 407.8h-12.9a.9.9 0 1 1 0-1.8H439a.9.9 0 1 1 0 1.8z" class="cls-2" transform="translate(-425.2 -388.729)"/>
                    <path id="Path_1102" d="M439 404.8h-12.9a.9.9 0 1 1 0-1.8H439a.9.9 0 1 1 0 1.8z" class="cls-2" transform="translate(-425.2 -388.729)"/>
                </g>
            </g>
        </g>
        <g id="Group_1360" data-name="Group 1360" transform="translate(5.602 39.1)">
            <path id="Path_1125" d="M73.4 45.5a.764.764 0 0 1 .2-.5.845.845 0 0 1 .6-.2 1.421 1.421 0 0 1 .6.2c.2.1.2.3.2.5a.764.764 0 0 1-.2.5.845.845 0 0 1-.6.2 1.421 1.421 0 0 1-.6-.2.764.764 0 0 1-.2-.5z" class="cls-2" data-name="Path 1125" transform="translate(-73.4 -39.1)"/>
            <path id="Path_1126" d="M77.8 43.7v2.5h-1.5v-7.1h2.8a3.194 3.194 0 0 1 1.4.3 2.361 2.361 0 0 1 .9.8 2.663 2.663 0 0 1 .3 1.2A1.865 1.865 0 0 1 81 43a2.986 2.986 0 0 1-2 .6h-1.2zm0-1.2h1.3a1.222 1.222 0 0 0 .9-.3.984.984 0 0 0 .3-.8 1.032 1.032 0 0 0-1.1-1.1h-1.3v2.2z" class="cls-2" data-name="Path 1126" transform="translate(-73.4 -39.1)"/>
            <path id="Path_1127" d="M84.3 43.7v2.5h-1.5v-7.1h2.8a3.194 3.194 0 0 1 1.4.3 2.361 2.361 0 0 1 .9.8 2.663 2.663 0 0 1 .3 1.2 1.865 1.865 0 0 1-.7 1.6 2.986 2.986 0 0 1-2 .6h-1.2zm0-1.2h1.3a1.222 1.222 0 0 0 .9-.3.984.984 0 0 0 .3-.8 1.032 1.032 0 0 0-1.1-1.1h-1.3v2.2z" class="cls-2" data-name="Path 1127" transform="translate(-73.4 -39.1)"/>
            <path id="Path_1128" d="M94.6 40.3h-2.2v5.9h-1.5v-5.9h-2.1v-1.2h5.8v1.2z" class="cls-2" data-name="Path 1128" transform="translate(-73.4 -39.1)"/>
        </g>
    </g>
</svg>
