<svg xmlns="http://www.w3.org/2000/svg" width="12" height="8" viewBox="0 0 12 8">
    <defs>
        <style>
            .cls-1{fill:#9ea0a5}
        </style>
    </defs>
    <path id="preview" d="M6 98.725c-2.293 0-4.372 1.4-5.906 3.682a.582.582 0 0 0 0 .634c1.534 2.281 3.613 3.684 5.906 3.684s4.372-1.4 5.906-3.682a.582.582 0 0 0 0-.634c-1.534-2.281-3.613-3.684-5.906-3.684zm.164 6.817a2.839 2.839 0 0 1-.329-5.633 2.839 2.839 0 0 1 .329 5.633zm-.076-1.3a1.529 1.529 0 0 1-.174-3.034 1.529 1.529 0 0 1 .174 3.034z" class="cls-1" transform="translate(0 -98.725)"/>
</svg>
