<svg xmlns="http://www.w3.org/2000/svg" width="18.004" height="14" viewBox="0 0 18.004 14">
    <defs>
        <style>
            .cls-1{opacity:.5}.cls-2{fill:#fff}
        </style>
    </defs>
    <g id="pricing_plan_menu" class="cls-1">
        <path id="Path_782" d="M4.856 66.661a1.389 1.389 0 0 0 1.956 0L13.507 60a1.948 1.948 0 0 0 .436-.662 7.077 7.077 0 0 0 1.9.283c1.427-.007 1.9-.629 2.056-1s.266-1.14-.736-2.154l-.033-.033a8.01 8.01 0 0 0-2.547-1.61 13.577 13.577 0 0 0-.562-.213V54.6a1.509 1.509 0 0 0-1.494-1.485l-4.007-.051a1.957 1.957 0 0 0-1.416.573L.4 60.295a1.37 1.37 0 0 0 0 1.945zm5.161-11.215a1.149 1.149 0 0 1 1.619 0 1.129 1.129 0 0 1 .322.97 8 8 0 0 0 1.527.827c.2.081.392.154.577.217l-.022-1.6.1.04a6.974 6.974 0 0 1 2.17 1.36l.022.022c.481.489.532.8.492.9-.126.3-1.475.562-3.523-.287a7.92 7.92 0 0 1-1.62-.895l-.048.055a1.149 1.149 0 0 1-1.619 0 1.132 1.132 0 0 1 .003-1.609z" class="cls-2" data-name="Path 782" transform="translate(0 -53.064)"/>
    </g>
</svg>
