<svg xmlns="http://www.w3.org/2000/svg" width="25" height="25" viewBox="0 0 25 25">
    <defs>
        <style>
            .cls-1{fill:#775649}
        </style>
    </defs>
    <g id="question_active" transform="translate(-.001)">
        <path id="Path_1166" d="M12.334 0A12.5 12.5 0 1 0 25 12.332 12.5 12.5 0 0 0 12.334 0zM12.3 20.109h-.069a1.819 1.819 0 0 1 .043-3.639h.062a1.819 1.819 0 1 1-.036 3.639zm4.471-8.875a8.264 8.264 0 0 1-1.492 1.336l-.763.527a2.074 2.074 0 0 0-.766.933 1.932 1.932 0 0 0-.118.783v.123h-2.917l.008-.246a3.185 3.185 0 0 1 .48-2.1 12.369 12.369 0 0 1 2.173-1.749 2.294 2.294 0 0 0 .514-.526 1.852 1.852 0 0 0 .441-1.079 2.1 2.1 0 0 0-.4-1.243 1.665 1.665 0 0 0-1.441-.542 1.571 1.571 0 0 0-1.456.673 2.7 2.7 0 0 0-.441 1.454V9.7h-3l.007-.13a4.564 4.564 0 0 1 1.948-3.937 5.137 5.137 0 0 1 2.825-.742 6.1 6.1 0 0 1 3.645 1.049 3.639 3.639 0 0 1 1.474 3.14 3.592 3.592 0 0 1-.724 2.154z" class="cls-1" data-name="Path 1166"/>
    </g>
</svg>
