<svg xmlns="http://www.w3.org/2000/svg" id="question_active" width="16" height="16" viewBox="0 0 16 16">
    <defs>
        <style>
            .cls-1{fill:#775649}
        </style>
    </defs>
    <path id="Path_865" d="M7.894 0A8 8 0 1 0 16 7.892 8 8 0 0 0 7.894 0zM7.87 12.869h-.044a1.164 1.164 0 0 1 .027-2.329h.039a1.164 1.164 0 1 1-.023 2.329zm2.862-5.68a5.289 5.289 0 0 1-.955.855l-.488.337a1.327 1.327 0 0 0-.49.6 1.236 1.236 0 0 0-.075.5v.078H6.858l.006-.159a2.038 2.038 0 0 1 .307-1.345 7.916 7.916 0 0 1 1.391-1.119 1.468 1.468 0 0 0 .329-.336 1.185 1.185 0 0 0 .282-.691 1.346 1.346 0 0 0-.256-.8A1.066 1.066 0 0 0 8 4.766a1.006 1.006 0 0 0-.932.431 1.731 1.731 0 0 0-.282.93v.079H4.859v-.083A2.921 2.921 0 0 1 6.111 3.6a3.288 3.288 0 0 1 1.808-.47 3.9 3.9 0 0 1 2.333.671 2.329 2.329 0 0 1 .944 2.01 2.3 2.3 0 0 1-.464 1.379z" class="cls-1" data-name="Path 865" transform="translate(-.001)"/>
</svg>
