<svg xmlns="http://www.w3.org/2000/svg" width="20" height="20" viewBox="0 0 20 20">
    <defs>
        <style>
            .cls-1{fill:#2e221e}
        </style>
    </defs>
    <g id="question-mark_1_" data-name="question-mark (1)" transform="translate(-.001)">
        <path id="Path_871" d="M9.867 0A10 10 0 1 0 20 9.865 10 10 0 0 0 9.867 0zm-.03 16.086h-.055a1.456 1.456 0 0 1 .034-2.911h.049a1.456 1.456 0 1 1-.028 2.911zm3.577-7.1a6.611 6.611 0 0 1-1.194 1.069l-.61.421a1.659 1.659 0 0 0-.613.747 1.545 1.545 0 0 0-.094.626v.1H8.572l.007-.2a2.548 2.548 0 0 1 .384-1.681A9.9 9.9 0 0 1 10.7 8.67a1.835 1.835 0 0 0 .412-.421 1.481 1.481 0 0 0 .353-.863 1.683 1.683 0 0 0-.32-.995 1.332 1.332 0 0 0-1.153-.433 1.257 1.257 0 0 0-1.163.542 2.163 2.163 0 0 0-.353 1.16v.1h-2.4v-.1a3.651 3.651 0 0 1 1.56-3.149A4.11 4.11 0 0 1 9.9 3.913a4.879 4.879 0 0 1 2.916.839 2.911 2.911 0 0 1 1.18 2.512 2.874 2.874 0 0 1-.581 1.723z" class="cls-1" data-name="Path 871"/>
    </g>
</svg>
