<svg xmlns="http://www.w3.org/2000/svg" width="50" height="70" viewBox="0 0 50 70">
    <defs>
        <style>
            .cls-1{fill:rgba(119,86,73,.1)}.cls-2{fill:#ef634c}.cls-3{fill:#84665a}.cls-4{fill:#775649}
        </style>
    </defs>
    <g id="sand-clock" transform="translate(-81.038 -74.481)">
        <path id="bg" d="M149.51 175.761v-7.091c.035-9.473-7.122-17.617-17.009-19.352a1.961 1.961 0 0 1-1.428-1.006 2.156 2.156 0 0 1 .67-2.717 2 2 0 0 1 .866-.351q.354-.06.7-.132l.2-.04c9.432-2.039 16.13-9.931 16.166-19.046l.039-6.832-41.634-.143-.04 6.833c-.036 9.594 7.3 17.8 17.344 19.407a2.057 2.057 0 0 1 1.792 1.811v.147a2.05 2.05 0 0 1-.115.67 2.086 2.086 0 0 1-1.683 1.319q-.419.063-.833.141c-.053.009-.109.022-.109.022-9.622 1.894-16.528 9.868-16.564 19.127l-.029 7.365" class="cls-1" transform="translate(-22.793 -37.894)"/>
        <path id="Path_1213" d="M141.193 382.354c-6.828-.023-12.382 5.189-12.407 11.643l-.013 1.055 24.726.085.013-1.055c.024-6.454-5.491-11.704-12.319-11.728z" class="cls-2" data-name="Path 1213" transform="translate(-34.585 -257.201)"/>
        <path id="Path_1215" d="M148.618 178.995c9.28.032 16.83-7.052 16.863-15.823v-.543a1.51 1.51 0 0 0-1.545-1.472l-30.5-.1a1.512 1.512 0 0 0-1.557 1.461v.543c-.034 8.771 7.462 15.907 16.741 15.939z" class="cls-2" data-name="Path 1215" transform="translate(-42.537 -73.422)"/>
        <g id="down" transform="translate(81.038 137.709)">
            <path id="Path_1221" d="M139.371 508.344l-40.928-.144a2.76 2.76 0 0 1-2.806-2.712v-1.225a2.763 2.763 0 0 1 2.827-2.692l40.928.142a3.316 3.316 0 1 1-.025 6.629z" class="cls-3" data-name="Path 1221" transform="translate(-94.199 -501.573)"/>
            <path id="Path_1222" d="M134.786 518.124l-47.5-.166a1.2 1.2 0 1 1 .009-2.4l47.505.166a1.2 1.2 0 1 1-.009 2.4z" class="cls-4" data-name="Path 1222" transform="translate(-86.038 -513.464)"/>
        </g>
        <g id="up" transform="translate(81.038 74.481)">
            <path id="Path_1209" d="M140.917 81.252l-40.928-.142a2.76 2.76 0 0 1-2.806-2.71v-1.225a2.763 2.763 0 0 1 2.827-2.692l40.928.142a3.316 3.316 0 1 1-.025 6.629z" class="cls-3" data-name="Path 1209" transform="translate(-95.745 -74.481)"/>
            <path id="Path_1211" d="M136.333 91.032l-47.5-.166a1.2 1.2 0 1 1 .009-2.4l47.505.166a1.2 1.2 0 1 1-.009 2.4z" class="cls-4" data-name="Path 1211" transform="translate(-87.585 -86.372)"/>
        </g>
    </g>
</svg>
