<svg xmlns="http://www.w3.org/2000/svg" width="65" height="50.001" viewBox="0 0 65 50.001">
    <defs>
        <style>
            .cls-1{fill:#e5dfdc}.cls-2{fill:#f4d35e}.cls-3{fill:#775649}.cls-4{fill:#84665a}.cls-5{fill:#654b41}
        </style>
    </defs>
    <g id="send">
        <path id="Path_1032" d="M348.894 64.485a2.486 2.486 0 0 0-3.371-.991l-17.45 9.518a5.324 5.324 0 0 0-2.125 7.224l.361.663v5.257h11.766l5.295-2.888a2.485 2.485 0 0 0-2.2-4.449h-.129l-.138.138-1.3.722a.347.347 0 0 1-.171.045.357.357 0 0 1-.311-.183.355.355 0 0 1 .138-.482l1.363-.757.029-.013.031-.02 4.959-2.705a2.485 2.485 0 0 0-2.36-4.373l-.016.007-.031.017-6.77 3.4a.348.348 0 0 1-.159.038.355.355 0 0 1-.16-.672l6.781-3.41 4.981-2.717a2.484 2.484 0 0 0 .991-3.371z" class="cls-1" data-name="Path 1032" transform="translate(-284.198 -63.191)"/>
        <path id="Path_1034" d="M23.683 76.182a5.291 5.291 0 0 0-2.558-3.172L3.674 63.492a2.485 2.485 0 0 0-2.38 4.363l4.97 2.711 6.792 3.416a.355.355 0 0 1-.16.672.35.35 0 0 1-.159-.038l-6.767-3.4-.05-.026a2.485 2.485 0 0 0-2.36 4.37l4.967 2.709 1.415.785a.355.355 0 1 1-.345.621l-1.412-.784a2.485 2.485 0 0 0-2.359 4.374l5.295 2.888 2.2.374 9.567-1.057V80.9l.361-.663a5.288 5.288 0 0 0 .434-4.055z" class="cls-1" data-name="Path 1034" transform="translate(0 -63.189)"/>
        <path id="SVGCleanerId_0" d="M91.654 235.1a2.585 2.585 0 0 1-2.565-2.6v-26.18a2.585 2.585 0 0 1 2.565-2.6h37.056a2.585 2.585 0 0 1 2.565 2.6v26.18a2.585 2.585 0 0 1-2.565 2.6H91.654z" class="cls-2" transform="translate(-77.683 -185.099)"/>
        <g id="Group_1311" data-name="Group 1311" transform="translate(11.131 18.622)">
            <path id="SVGCleanerId_0_1_" d="M91.688 235.1a2.6 2.6 0 0 1-2.6-2.6v-26.18a2.6 2.6 0 0 1 2.6-2.6h37.539a2.6 2.6 0 0 1 2.6 2.6v26.18a2.6 2.6 0 0 1-2.6 2.6H91.688z" class="cls-3" transform="translate(-89.089 -203.721)"/>
        </g>
        <path id="Path_1038" d="M92.028 203.72h-.34a2.922 2.922 0 0 0-.394.033l-.054.008c-.065.012-.13.026-.194.042l-.05.013a2.939 2.939 0 0 0-.188.06l-.046.017q-.093.036-.183.078l-.04.019q-.09.045-.176.1l-.035.021a2.76 2.76 0 0 0-.169.113l-.029.022a2.519 2.519 0 0 0-.16.13l-.024.022c-.052.047-.1.1-.15.146l-.02.022a2.965 2.965 0 0 0-.137.16l-.018.024a2.536 2.536 0 0 0-.121.172l-.018.029a1.852 1.852 0 0 0-.1.179l-.019.039c-.03.059-.058.119-.083.18l-.02.054a2.789 2.789 0 0 0-.061.175c-.008.026-.013.053-.021.08-.014.053-.029.105-.039.159s-.013.082-.019.124-.014.083-.018.125a2.75 2.75 0 0 0-.013.258v23.156l18.5-11.387z" class="cls-4" data-name="Path 1038" transform="translate(-77.817 -185.098)"/>
        <path id="Path_1040" d="M296.86 206.065c0-.042-.012-.083-.018-.125s-.011-.083-.019-.124-.025-.107-.039-.159c-.007-.027-.013-.054-.021-.08a2.404 2.404 0 0 0-.061-.175l-.02-.054a2.706 2.706 0 0 0-.083-.181l-.018-.038c-.032-.061-.067-.121-.1-.179l-.018-.029a2.95 2.95 0 0 0-.121-.172l-.018-.024a2.59 2.59 0 0 0-.137-.161l-.02-.022c-.048-.051-.1-.1-.15-.146l-.024-.021a2.23 2.23 0 0 0-.161-.13l-.028-.021a2.798 2.798 0 0 0-.17-.114l-.034-.02q-.086-.051-.177-.1l-.039-.019q-.09-.043-.183-.078l-.045-.016a2.441 2.441 0 0 0-.189-.06l-.049-.013q-.1-.025-.194-.042l-.053-.008c-.065-.01-.132-.018-.2-.023s-.129-.01-.194-.01h-.34l-15.565 14.367 18.5 11.387v-23.153a2.418 2.418 0 0 0-.012-.257z" class="cls-4" data-name="Path 1040" transform="translate(-243.147 -185.102)"/>
        <path id="Path_1042" d="M147.133 203.72H110.4l16.814 15.752a2.262 2.262 0 0 0 3.1 0z" class="cls-5" data-name="Path 1042" transform="translate(-96.269 -185.385)"/>
    </g>
</svg>
