<svg xmlns="http://www.w3.org/2000/svg" width="11.999" height="11" viewBox="0 0 11.999 11">
    <defs>
        <style>
            .cls-1{fill:#775649}
        </style>
    </defs>
    <path id="sent_active" d="M11.938 12.5a.181.181 0 0 0-.194-.028L.1 17.832a.177.177 0 0 0 0 .321l3.294 1.6a.181.181 0 0 0 .186-.017l3.2-2.371-2.511 2.562a.177.177 0 0 0-.05.137l.25 3.229a.178.178 0 0 0 .123.155.181.181 0 0 0 .192-.053l1.749-2.005 2.162 1.023a.181.181 0 0 0 .149 0 .178.178 0 0 0 .1-.11l3.048-9.617a.177.177 0 0 0-.054-.186z" class="cls-1" transform="translate(0 -12.458)"/>
</svg>
