<svg xmlns="http://www.w3.org/2000/svg" id="signature_sign_active" width="18.004" height="18.004" viewBox="0 0 18.004 18.004">
    <defs>
        <style>
            .cls-1{fill:#775649}
        </style>
    </defs>
    <g id="Group_3" data-name="Group 3">
        <path id="Path_3" d="M0 86.119v4.944h4.944l9.887-9.887-4.944-4.944zm4.314 3.422H3.042v-1.52H1.521v-1.272L2.6 85.668l2.8 2.792zm5.954-11.289a.231.231 0 0 1 .261.261.275.275 0 0 1-.083.2L4 85.157a.276.276 0 0 1-.2.083.231.231 0 0 1-.261-.261.275.275 0 0 1 .083-.2l6.441-6.441a.275.275 0 0 1 .205-.086z" class="cls-1" data-name="Path 3" transform="translate(0 -73.059)"/>
        <path id="Path_4" d="M262.732 3.232L259.94.452A1.476 1.476 0 0 0 258.858 0a1.412 1.412 0 0 0-1.069.452l-1.973 1.961 4.944 4.944 1.973-1.973a1.456 1.456 0 0 0 .44-1.07 1.523 1.523 0 0 0-.441-1.082z" class="cls-1" data-name="Path 4" transform="translate(-245.168)"/>
    </g>
</svg>
