<svg xmlns="http://www.w3.org/2000/svg" width="22" height="13" viewBox="0 0 22 13">
    <defs>
        <style>
            .cls-1{fill:#9ea0a5}
        </style>
    </defs>
    <path id="slide_right" d="M170.921 192.767a1.062 1.062 0 0 0 0-1.487l-5.469-5.568a1.036 1.036 0 0 0-.727-.312 1 1 0 0 0-.727.312l-5.469 5.568a1.062 1.062 0 0 0 0 1.487 1.03 1.03 0 0 0 .727.312 1 1 0 0 0 .727-.312l3.71-3.777v17.359a1.033 1.033 0 1 0 2.065 0V188.99l3.71 3.777a1.008 1.008 0 0 0 1.453 0z" class="cls-1" transform="rotate(90 182.813 24.588)"/>
</svg>
