<svg xmlns="http://www.w3.org/2000/svg" width="50" height="50" viewBox="0 0 50 50">
    <defs>
        <style>
            .cls-1{fill:#d1cac6}.cls-2{fill:#775649}
        </style>
    </defs>
    <g id="stamp">
        <path id="Path_888" d="M67.74 480.152H30.9a4.555 4.555 0 0 1-4.415-3.462h45.669a4.555 4.555 0 0 1-4.415 3.462" class="cls-1" data-name="Path 888" transform="translate(-23.886 -430.152)"/>
        <path id="Path_889" d="M45.69 33.611H33.621A4.31 4.31 0 0 1 29.31 29.3v-1.462a27.416 27.416 0 0 1 3.916-13.646 9.483 9.483 0 1 0-16.273.3 26.115 26.115 0 0 1 3.737 13.9v.908a4.31 4.31 0 0 1-4.31 4.309H4.31A4.31 4.31 0 0 0 0 37.92v8.618h50V37.92a4.31 4.31 0 0 0-4.31-4.309" class="cls-2" data-name="Path 889"/>
    </g>
</svg>
