<svg xmlns="http://www.w3.org/2000/svg" width="28" height="31.996" viewBox="0 0 28 31.996">
    <defs>
        <style>
            .cls-1{fill:#fff}
        </style>
    </defs>
    <path id="Subtraction_15" d="M27 32a.992.992 0 0 1-.454-.111L22 29.569H4a4 4 0 0 1-4-4V4a4 4 0 0 1 4-4h20a4 4 0 0 1 4 4v21.569c0 .116-.005.235-.015.356A1.055 1.055 0 0 1 28 26.1V31a1 1 0 0 1-1 1zM7.848 18.752a.9.9 0 0 0-.352.072A.942.942 0 0 0 7 20.045a7.5 7.5 0 0 0 7.045 4.579 7.557 7.557 0 0 0 7-4.557.943.943 0 0 0-.477-1.229.893.893 0 0 0-.363-.077.916.916 0 0 0-.842.564 5.726 5.726 0 0 1-5.322 3.43 5.68 5.68 0 0 1-5.353-3.427.912.912 0 0 0-.84-.576z" class="cls-1" data-name="Subtraction 15"/>
</svg>
