<svg xmlns="http://www.w3.org/2000/svg" id="Success" width="20" height="20" viewBox="0 0 20 20">
    <defs>
        <style>
            .cls-1{fill:#fff}
        </style>
    </defs>
    <path id="Path_829" d="M18.659 4.98a9.958 9.958 0 0 0-3.639-3.639A9.782 9.782 0 0 0 10 0a9.782 9.782 0 0 0-5.02 1.341A9.955 9.955 0 0 0 1.341 4.98 9.781 9.781 0 0 0 0 10a9.784 9.784 0 0 0 1.341 5.02 9.958 9.958 0 0 0 3.639 3.639A9.783 9.783 0 0 0 10 20a9.783 9.783 0 0 0 5.02-1.341 9.955 9.955 0 0 0 3.639-3.639A9.783 9.783 0 0 0 20 10a9.784 9.784 0 0 0-1.341-5.02zm-2.175 3.5l-7.07 7.07a.815.815 0 0 1-.6.248.8.8 0 0 1-.586-.248l-4.713-4.717a.8.8 0 0 1-.234-.586.811.811 0 0 1 .234-.6L4.7 8.477a.818.818 0 0 1 1.172 0l2.943 2.943 5.312-5.3a.817.817 0 0 1 1.172 0l1.185 1.172a.81.81 0 0 1 .234.6.793.793 0 0 1-.234.585z" class="cls-1" data-name="Path 829"/>
</svg>
