<svg xmlns="http://www.w3.org/2000/svg" id="talk_disabled" width="50" height="50" viewBox="0 0 50 50">
    <defs>
        <style>
            .cls-1{fill:#e8e8e8}.cls-2{fill:#e7e7e7}
        </style>
    </defs>
    <g id="Group_956" data-name="Group 956" transform="translate(52.5 15)">
        <rect id="Rectangle_87" width="50" height="50" class="cls-1" data-name="Rectangle 87" rx="5" transform="translate(-52.5 -15)"/>
        <g id="Group_974" data-name="Group 974" transform="translate(-67.5 -41)">
            <path id="Path_714" d="M39.5 36C30.94 36 24 41.738 24 48.816c0 4.576 2.9 8.592 7.265 10.859-.237.859-1.526 5.524-1.577 5.891 0 0-.031.275.139.38a.448.448 0 0 0 .37.023c.488-.071 5.655-3.878 6.549-4.539a18.742 18.742 0 0 0 2.753.2c8.56 0 15.5-5.738 15.5-12.816S48.06 36 39.5 36z" data-name="Path 714"/>
            <path id="Path_715" d="M52.334 102.028a.9.9 0 0 1-.871-.92v-5.722H50.1a.948.948 0 0 1 0-1.886h4.458a.948.948 0 0 1 0 1.886H53.2v5.722a.9.9 0 0 1-.866.92zm7.635-.013a.7.7 0 0 1-.725-.425l-.431-1.249h-2.655l-.431 1.249a.7.7 0 0 1-.724.425 1.222 1.222 0 0 1-.553-.133c-.24-.122-.471-.459-.206-1.368l2.083-6.064a1.183 1.183 0 0 1 2.321 0l2.082 6.061c.265.91.034 1.247-.206 1.37a1.225 1.225 0 0 1-.553.133zm-1.614-3.38l-.87-2.733-.87 2.733zm3.774 3.252a.861.861 0 0 1-.834-.883v-6.541a.892.892 0 1 1 1.778 0v5.658h1.85a.884.884 0 0 1 0 1.766zm4.837.128a.921.921 0 0 1-.871-.963v-6.589a.875.875 0 1 1 1.741 0v2.07l2.429-2.687a.644.644 0 0 1 .483-.214.821.821 0 0 1 .6.284 1 1 0 0 1 .256.611.8.8 0 0 1-.192.586l-1.984 2.194 2.143 3.141a1.032 1.032 0 0 1 .167.714.98.98 0 0 1-.338.635.81.81 0 0 1-.524.194.839.839 0 0 1-.7-.383l-2.042-2.993-.3.334v2.1a.922.922 0 0 1-.868.966z" class="cls-2" data-name="Path 715" transform="translate(-21.197 -48.606)"/>
        </g>
    </g>
</svg>
