<svg xmlns="http://www.w3.org/2000/svg" width="18" height="18" viewBox="0 0 18 18">
    <defs>
        <style>
            .cls-1{fill:#775649}
        </style>
    </defs>
    <path id="text_sign_active" d="M15 18H3a3 3 0 0 1-3-3V3a3 3 0 0 1 3-3h12a3 3 0 0 1 3 3v12a3 3 0 0 1-3 3zm-6.732-3.141c1.033 0 1.783.021 2.231.062a16.7 16.7 0 0 0 1.754.079c.124 0 .232 0 .319-.008a1.284 1.284 0 0 0 .028-.226c0-.028-.017-.166-.047-.391a2.87 2.87 0 0 0-.468-.141c-.08-.018-.215-.048-.4-.094l-.413-.1A1.439 1.439 0 0 0 11.1 14a3.448 3.448 0 0 1-.834-.25 1.782 1.782 0 0 1-.1-.664l.01-1.148-.029-2.8v-2.6l-.009-1.187a6.726 6.726 0 0 1 .075-1.063 5.018 5.018 0 0 1 .628-.039c.267 0 .617 0 1.041-.008s.75-.008.97-.008a2.641 2.641 0 0 1 .4.016.551.551 0 0 1 .248.151.779.779 0 0 1 .056.226c.025.14.06.307.108.512a3.442 3.442 0 0 0 .146.489 5.448 5.448 0 0 0 .506 1 3.027 3.027 0 0 0 .638-.141 1.739 1.739 0 0 0 .037-.4L15 5.632l-.009-.781-.009-1.027v-.816C14.9 3 14.817 3 14.719 3l-.394.008-.065.062a.779.779 0 0 1-.2.125.55.55 0 0 1-.237.056H13.8l-.319-.016h-2.747l-2.016-.008-1.078.007-.178.023H6.243c-1.206 0-1.853-.013-1.978-.039l-.506-.211L3 3.016v2.992a1.862 1.862 0 0 0 .525.344.372.372 0 0 0 .193-.1A.572.572 0 0 0 3.9 6c.071-.178.147-.4.225-.657a5.477 5.477 0 0 1 .206-.586.541.541 0 0 1 .206-.257 2.78 2.78 0 0 1 .684-.192 4.955 4.955 0 0 1 .938-.108 12.869 12.869 0 0 1 1.388.047.282.282 0 0 1 .131.047.214.214 0 0 1 .056.117 2.984 2.984 0 0 1 .019.445v1.726L7.8 9.93a56.545 56.545 0 0 1-.057 3.383 1.23 1.23 0 0 1-.113.437 11.947 11.947 0 0 1-1.49.391 1.265 1.265 0 0 0-.741.382v.07l.01.2c0 .021.006.089.019.2h.016c.14 0 .349-.01.64-.03.906-.063 1.641-.104 2.184-.104z" class="cls-1"/>
</svg>
