<svg xmlns="http://www.w3.org/2000/svg" width="18" height="17" viewBox="0 0 18 17">
    <defs>
        <style>
            .cls-1{fill:#ef634c}
        </style>
    </defs>
    <path id="title_sign" d="M15.75 17H2.25A2.261 2.261 0 0 1 0 14.734V8.5h6.829a2.144 2.144 0 0 0-.079.567 2.25 2.25 0 1 0 4.5 0 2.156 2.156 0 0 0-.079-.567H18v6.233A2.261 2.261 0 0 1 15.75 17zM9 10.2a1.128 1.128 0 0 1-.969-1.7h1.938A1.128 1.128 0 0 1 9 10.2zm9-2.834H0V4.533a2.261 2.261 0 0 1 2.25-2.267h3.375V1.133A1.13 1.13 0 0 1 6.75 0h4.5a1.13 1.13 0 0 1 1.125 1.133v1.133h3.375A2.261 2.261 0 0 1 18 4.533v2.833zM7.312 1.133a.565.565 0 0 0-.562.567v.567h4.5V1.7a.565.565 0 0 0-.562-.567z" class="cls-1"/>
</svg>
