<svg xmlns="http://www.w3.org/2000/svg" width="38.732" height="35.801" viewBox="0 0 38.732 35.801">
    <defs>
        <style>
            .cls-1{opacity:.3}.cls-2{fill:#41302a}
        </style>
    </defs>
    <g id="upload" class="cls-1" transform="translate(0 -18.4)">
        <g id="Group_1094" data-name="Group 1094" transform="translate(0 18.4)">
            <path id="Path_794" d="M31.5 27.751a11.219 11.219 0 0 0-20.788-3.727 6.427 6.427 0 0 0-1.179-.112 6.149 6.149 0 0 0-6.141 6.141 6.713 6.713 0 0 0 .127 1.274A8.545 8.545 0 0 0 0 38.216a9.136 9.136 0 0 0 2.318 6.045 8.272 8.272 0 0 0 5.735 2.883h6.913a1.075 1.075 0 0 0 0-2.15H8.148a6.782 6.782 0 0 1-6-6.786 6.384 6.384 0 0 1 3.162-5.5 1.084 1.084 0 0 0 .47-1.306 3.9 3.9 0 0 1-.239-1.37 4 4 0 0 1 3.99-3.99 3.922 3.922 0 0 1 1.362.239 1.08 1.08 0 0 0 1.346-.55 9.068 9.068 0 0 1 17.228 2.987 1.074 1.074 0 0 0 .892.956 7.751 7.751 0 0 1-.733 15.308h-5.87a1.075 1.075 0 1 0 0 2.15h5.989a9.529 9.529 0 0 0 6.388-3.154A9.913 9.913 0 0 0 31.5 27.751z" class="cls-2" data-name="Path 794" transform="translate(0 -18.4)"/>
            <path id="Path_795" d="M171.444 192.935a1.072 1.072 0 0 0 0-1.521l-5.695-5.695a1.088 1.088 0 0 0-.757-.319 1.055 1.055 0 0 0-.757.319l-5.695 5.695a1.079 1.079 0 0 0 .757 1.84 1.049 1.049 0 0 0 .757-.319l3.863-3.863v17.753a1.075 1.075 0 1 0 2.15 0v-17.753l3.863 3.863a1.062 1.062 0 0 0 1.514 0z" class="cls-2" data-name="Path 795" transform="translate(-145.623 -172.099)"/>
        </g>
    </g>
</svg>
