<svg xmlns="http://www.w3.org/2000/svg" width="28" height="9" viewBox="0 0 28 9">
    <defs>
        <style>
            .cls-1{fill:#293688}.cls-2{fill:#f7981d}
        </style>
    </defs>
    <g id="visa" transform="translate(-46.823 -173.647)">
        <g id="Group_1500" data-name="Group 1500" transform="translate(49.345 173.647)">
            <path id="Path_1212" d="M175.483 184.1l1.433-8.728h2.32L177.8 184.1z" class="cls-1" data-name="Path 1212" transform="translate(-167.971 -175.237)"/>
            <path id="Path_1213" d="M228.2 174.013a5.864 5.864 0 0 0-2.079-.366c-2.292 0-3.907 1.183-3.921 2.878-.013 1.253 1.153 1.951 2.033 2.369.9.427 1.207.7 1.2 1.081-.006.584-.721.852-1.388.852a4.771 4.771 0 0 1-2.184-.458l-.3-.139-.326 1.952a7.183 7.183 0 0 0 2.584.465c2.438 0 4.022-1.169 4.039-2.979.009-.992-.609-1.747-1.948-2.369-.811-.4-1.308-.672-1.3-1.081 0-.362.421-.75 1.329-.75a4.19 4.19 0 0 1 1.737.334l.208.1.315-1.89z" class="cls-1" data-name="Path 1213" transform="translate(-210.209 -173.647)"/>
            <path id="Path_1214" d="M305.328 175.373a1.149 1.149 0 0 0-1.2.743l-3.438 7.985h2.456l.477-1.337h2.934l.273 1.337h2.183l-1.91-8.728h-1.774zm-1.054 5.644c.192-.5.924-2.439.924-2.439-.013.023.191-.505.308-.833l.157.752.537 2.52h-1.926z" class="cls-1" data-name="Path 1214" transform="translate(-283.534 -175.237)"/>
            <path id="Path_1215" d="M82.153 181.356l-.2-1.2a6.75 6.75 0 0 0-3.21-3.66l2.049 7.6h2.456l3.684-8.728h-2.459z" class="cls-1" data-name="Path 1215" transform="translate(-78.739 -175.237)"/>
        </g>
        <path id="Path_1216" d="M46.823 175.373v.137a7.92 7.92 0 0 1 5.731 4.5l-.841-3.918a1 1 0 0 0-1.069-.722z" class="cls-2" data-name="Path 1216" transform="translate(0 -1.59)"/>
    </g>
</svg>
