<svg xmlns="http://www.w3.org/2000/svg" id="waiting_menu_active" width="12" height="18" viewBox="0 0 12 18">
    <defs>
        <style>
            .cls-1{fill:#fff}
        </style>
    </defs>
    <path id="Path_9" d="M0 0h12v2.122H0zm0 0" class="cls-1" data-name="Path 9"/>
    <path id="Path_10" d="M0 451.949h12v2.122H0zm0 0" class="cls-1" data-name="Path 10" transform="translate(0 -436.071)"/>
    <path id="Path_11" d="M39.9 90.741v-.69h-9.876v.69a5.414 5.414 0 0 0 2.435 4.583 7.486 7.486 0 0 0 1.008.592 7.488 7.488 0 0 0-1.008.592 5.726 5.726 0 0 0-1.852 2.076c.21.044.4.1.575.15a3.985 3.985 0 0 0 3.505-.546 4.6 4.6 0 0 1 2.1-.846 4.529 4.529 0 0 1 1.656.012 6.284 6.284 0 0 0-.981-.846 7.49 7.49 0 0 0-1.008-.592 7.5 7.5 0 0 0 1.008-.592 5.415 5.415 0 0 0 2.438-4.583zm0 0" class="cls-1" data-name="Path 11" transform="translate(-28.963 -86.901)"/>
    <path id="Path_12" d="M36.948 324.419a3.578 3.578 0 0 0-1.691.685 4.6 4.6 0 0 1-2.1.846 5.4 5.4 0 0 1-.835.069 4.656 4.656 0 0 1-1.421-.237 4.974 4.974 0 0 0-.679-.163 5.7 5.7 0 0 0-.195 1.5v.691H39.9v-.691a5.464 5.464 0 0 0-.533-2.406 6.32 6.32 0 0 1-.606-.156 3.548 3.548 0 0 0-1.814-.139zm0 0" class="cls-1" data-name="Path 12" transform="translate(-28.962 -312.972)"/>
</svg>
