<svg xmlns="http://www.w3.org/2000/svg" width="20" height="18" viewBox="0 0 20 18">
    <defs>
        <style>
            .cls-1{fill:#fff}
        </style>
    </defs>
    <g id="Warning_" data-name="Warning" transform="translate(-13.868 -41.869)">
        <path id="Path_828" d="M33.561 56.456L25.83 43.007a2.26 2.26 0 0 0-3.924 0l-7.731 13.449a2.275 2.275 0 0 0 1.962 3.413H31.6a2.275 2.275 0 0 0 1.962-3.413zM22.468 47.2a1.4 1.4 0 1 1 2.8 0v4.563a1.4 1.4 0 1 1-2.8 0zm1.4 10.117A1.441 1.441 0 1 1 25.3 55.88a1.439 1.439 0 0 1-1.432 1.441z" class="cls-1" data-name="Path 828"/>
    </g>
</svg>
