<svg xmlns="http://www.w3.org/2000/svg" width="42" height="56" viewBox="0 0 42 56">
    <defs>
        <style>
            .cls-1,.cls-2,.cls-3{fill:#548a6f}.cls-1{opacity:.05}.cls-3{opacity:.5}
        </style>
    </defs>
    <g id="xls">
        <g id="Group_13-4">
            <g id="Group_12-4">
                <path id="Path_29-4" d="M41.6 15.1L26.637.4a1.217 1.217 0 0 0-.9-.4H4.689A4.6 4.6 0 0 0 0 4.6v46.9A4.585 4.585 0 0 0 4.689 56h32.622A4.733 4.733 0 0 0 42 51.4V15.8a1.613 1.613 0 0 0-.4-.7zM26.936 3.8l11.173 11H29.33a2.366 2.366 0 0 1-2.394-2.4V3.8z" class="cls-1"/>
                <path id="Path_28-4" d="M41.6 15.1L26.637.4a1.217 1.217 0 0 0-.9-.4H4.689A4.6 4.6 0 0 0 0 4.6v46.9A4.585 4.585 0 0 0 4.689 56h32.622A4.733 4.733 0 0 0 42 51.4V15.8a1.613 1.613 0 0 0-.4-.7zM26.936 3.8l11.173 11H29.33a2.366 2.366 0 0 1-2.394-2.4V3.8zm12.67 47.6a2.431 2.431 0 0 1-2.394 2.4H4.689a2.366 2.366 0 0 1-2.394-2.4V4.6a2.431 2.431 0 0 1 2.394-2.4h19.952v10.2A4.669 4.669 0 0 0 29.33 17h10.375z" class="cls-2"/>
                <path id="Path_1090" d="M12.7 17.9V15H5v16h21.2V17.9zm-6.4-1.4h5.1V18H6.3zm0 2.9h5.1v1.5H6.3zm0 2.9h5.1v1.5H6.3zm0 2.9h5.1v1.5H6.3zm5.1 4.4H6.3v-1.5h5.1zm13.5 0H12.7v-1.5h12.2zm0-2.9H12.7v-1.5h12.2zm0-3H12.7v-1.5h12.2zm-12.2-2.9v-1.5h12.2v1.5z" class="cls-3"/>
            </g>
        </g>
        <g id="Group_1359" data-name="Group 1359" transform="translate(5.602 38.9)">
            <path id="Path_1118" d="M73.4 45.5a.764.764 0 0 1 .2-.5.845.845 0 0 1 .6-.2 1.421 1.421 0 0 1 .6.2c.2.1.2.3.2.5a.764.764 0 0 1-.2.5.845.845 0 0 1-.6.2 1.421 1.421 0 0 1-.6-.2.764.764 0 0 1-.2-.5z" class="cls-2" data-name="Path 1118" transform="translate(-73.4 -38.9)"/>
            <path id="Path_1119" d="M78.9 41.6l1.3-2.5h1.7l-2.1 3.5 2.1 3.6h-1.7l-1.4-2.5-1.4 2.5h-1.7l2.1-3.6-2.1-3.5h1.7z" class="cls-2" data-name="Path 1119" transform="translate(-73.4 -38.9)"/>
            <path id="Path_1120" d="M84.2 45h3.1v1.2h-4.6v-7.1h1.5z" class="cls-2" data-name="Path 1120" transform="translate(-73.4 -38.9)"/>
            <path id="Path_1121" d="M91.8 44.3a.6.6 0 0 0-.3-.6 6.136 6.136 0 0 0-1.1-.5 7.255 7.255 0 0 1-1.2-.5 1.922 1.922 0 0 1-1.2-1.8 1.689 1.689 0 0 1 .3-1 2.178 2.178 0 0 1 .9-.7 3.417 3.417 0 0 1 2.8 0 1.765 1.765 0 0 1 .9.8 2.279 2.279 0 0 1 .3 1.1h-1.5a1.135 1.135 0 0 0-.3-.8 1.222 1.222 0 0 0-.9-.3 1.549 1.549 0 0 0-.8.2.75.75 0 0 0 0 1.2 2.321 2.321 0 0 0 1 .4 7.447 7.447 0 0 1 1.8.9 1.678 1.678 0 0 1 .6 1.4 1.513 1.513 0 0 1-.7 1.4 2.851 2.851 0 0 1-1.9.5 4.013 4.013 0 0 1-1.5-.3 2.723 2.723 0 0 1-1-.8 2.45 2.45 0 0 1-.4-1.2h1.5c0 .8.5 1.2 1.4 1.2a1.884 1.884 0 0 0 .8-.2c.4.1.5-.1.5-.4z" class="cls-2" data-name="Path 1121" transform="translate(-73.4 -38.9)"/>
        </g>
    </g>
</svg>
